<?xml version="1.0" encoding="utf-8" standalone="no"?>
<!DOCTYPE svg PUBLIC "-//W3C//DTD SVG 1.1//EN"
  "http://www.w3.org/Graphics/SVG/1.1/DTD/svg11.dtd">
<svg xmlns:xlink="http://www.w3.org/1999/xlink" width="584.39952pt" height="248.904834pt" viewBox="0 0 584.39952 248.904834" xmlns="http://www.w3.org/2000/svg" version="1.1">
 <metadata>
  <rdf:RDF xmlns:dc="http://purl.org/dc/elements/1.1/" xmlns:cc="http://creativecommons.org/ns#" xmlns:rdf="http://www.w3.org/1999/02/22-rdf-syntax-ns#">
   <cc:Work>
    <dc:type rdf:resource="http://purl.org/dc/dcmitype/StillImage"/>
    <dc:date>2022-11-15T21:26:39.966187</dc:date>
    <dc:format>image/svg+xml</dc:format>
    <dc:creator>
     <cc:Agent>
      <dc:title>Matplotlib v3.6.0, https://matplotlib.org/</dc:title>
     </cc:Agent>
    </dc:creator>
   </cc:Work>
  </rdf:RDF>
 </metadata>
 <defs>
  <style type="text/css">*{stroke-linejoin: round; stroke-linecap: butt}</style>
 </defs>
 <g id="figure_1">
  <g id="patch_1">
   <path d="M 0 248.904834
L 584.39952 248.904834
L 584.39952 -0
L 0 -0
L 0 248.904834
z
" style="fill: none"/>
  </g>
  <g id="axes_1">
   <g id="patch_2">
    <path d="M 12.947343 235.957491
L 24.442029 235.957491
L 24.442029 224.462804
L 12.947343 224.462804
z
" clip-path="url(#pc12b611f1b)" style="fill: #7f7f7f; stroke: #ffffff; stroke-linejoin: miter"/>
   </g>
   <g id="patch_3">
    <path d="M 24.442029 235.957491
L 35.936716 235.957491
L 35.936716 224.462804
L 24.442029 224.462804
z
" clip-path="url(#pc12b611f1b)" style="fill: #17becf; stroke: #ffffff; stroke-linejoin: miter"/>
   </g>
   <g id="patch_4">
    <path d="M 35.936716 235.957491
L 47.431402 235.957491
L 47.431402 224.462804
L 35.936716 224.462804
z
" clip-path="url(#pc12b611f1b)" style="fill: #bcbd22; stroke: #ffffff; stroke-linejoin: miter"/>
   </g>
   <g id="patch_5">
    <path d="M 47.431402 235.957491
L 58.926088 235.957491
L 58.926088 224.462804
L 47.431402 224.462804
z
" clip-path="url(#pc12b611f1b)" style="fill: #7f7f7f; stroke: #ffffff; stroke-linejoin: miter"/>
   </g>
   <g id="patch_6">
    <path d="M 58.926088 235.957491
L 70.420775 235.957491
L 70.420775 224.462804
L 58.926088 224.462804
z
" clip-path="url(#pc12b611f1b)" style="fill: #7f7f7f; stroke: #ffffff; stroke-linejoin: miter"/>
   </g>
   <g id="patch_7">
    <path d="M 12.947343 224.462804
L 24.442029 224.462804
L 24.442029 212.968118
L 12.947343 212.968118
z
" clip-path="url(#pc12b611f1b)" style="fill: #7f7f7f; stroke: #ffffff; stroke-linejoin: miter"/>
   </g>
   <g id="patch_8">
    <path d="M 24.442029 224.462804
L 35.936716 224.462804
L 35.936716 212.968118
L 24.442029 212.968118
z
" clip-path="url(#pc12b611f1b)" style="fill: #17becf; stroke: #ffffff; stroke-linejoin: miter"/>
   </g>
   <g id="patch_9">
    <path d="M 35.936716 224.462804
L 47.431402 224.462804
L 47.431402 212.968118
L 35.936716 212.968118
z
" clip-path="url(#pc12b611f1b)" style="fill: #17becf; stroke: #ffffff; stroke-linejoin: miter"/>
   </g>
   <g id="patch_10">
    <path d="M 47.431402 224.462804
L 58.926088 224.462804
L 58.926088 212.968118
L 47.431402 212.968118
z
" clip-path="url(#pc12b611f1b)" style="fill: #17becf; stroke: #ffffff; stroke-linejoin: miter"/>
   </g>
   <g id="patch_11">
    <path d="M 58.926088 224.462804
L 70.420775 224.462804
L 70.420775 212.968118
L 58.926088 212.968118
z
" clip-path="url(#pc12b611f1b)" style="fill: #7f7f7f; stroke: #ffffff; stroke-linejoin: miter"/>
   </g>
   <g id="patch_12">
    <path d="M 12.947343 212.968118
L 24.442029 212.968118
L 24.442029 201.473432
L 12.947343 201.473432
z
" clip-path="url(#pc12b611f1b)" style="fill: #17becf; stroke: #ffffff; stroke-linejoin: miter"/>
   </g>
   <g id="patch_13">
    <path d="M 24.442029 212.968118
L 35.936716 212.968118
L 35.936716 201.473432
L 24.442029 201.473432
z
" clip-path="url(#pc12b611f1b)" style="fill: #bcbd22; stroke: #ffffff; stroke-linejoin: miter"/>
   </g>
   <g id="patch_14">
    <path d="M 35.936716 212.968118
L 47.431402 212.968118
L 47.431402 201.473432
L 35.936716 201.473432
z
" clip-path="url(#pc12b611f1b)" style="fill: #7f7f7f; stroke: #ffffff; stroke-linejoin: miter"/>
   </g>
   <g id="patch_15">
    <path d="M 47.431402 212.968118
L 58.926088 212.968118
L 58.926088 201.473432
L 47.431402 201.473432
z
" clip-path="url(#pc12b611f1b)" style="fill: #17becf; stroke: #ffffff; stroke-linejoin: miter"/>
   </g>
   <g id="patch_16">
    <path d="M 58.926088 212.968118
L 70.420775 212.968118
L 70.420775 201.473432
L 58.926088 201.473432
z
" clip-path="url(#pc12b611f1b)" style="fill: #17becf; stroke: #ffffff; stroke-linejoin: miter"/>
   </g>
   <g id="patch_17">
    <path d="M 12.947343 189.978745
L 24.442029 189.978745
L 24.442029 178.484059
L 12.947343 178.484059
z
" clip-path="url(#pc12b611f1b)" style="fill: #7f7f7f; stroke: #ffffff; stroke-linejoin: miter"/>
   </g>
   <g id="patch_18">
    <path d="M 24.442029 189.978745
L 35.936716 189.978745
L 35.936716 178.484059
L 24.442029 178.484059
z
" clip-path="url(#pc12b611f1b)" style="fill: #bcbd22; stroke: #ffffff; stroke-linejoin: miter"/>
   </g>
   <g id="patch_19">
    <path d="M 35.936716 189.978745
L 47.431402 189.978745
L 47.431402 178.484059
L 35.936716 178.484059
z
" clip-path="url(#pc12b611f1b)" style="fill: #bcbd22; stroke: #ffffff; stroke-linejoin: miter"/>
   </g>
   <g id="patch_20">
    <path d="M 47.431402 189.978745
L 58.926088 189.978745
L 58.926088 178.484059
L 47.431402 178.484059
z
" clip-path="url(#pc12b611f1b)" style="fill: #7f7f7f; stroke: #ffffff; stroke-linejoin: miter"/>
   </g>
   <g id="patch_21">
    <path d="M 58.926088 189.978745
L 70.420775 189.978745
L 70.420775 178.484059
L 58.926088 178.484059
z
" clip-path="url(#pc12b611f1b)" style="fill: #7f7f7f; stroke: #ffffff; stroke-linejoin: miter"/>
   </g>
   <g id="patch_22">
    <path d="M 12.947343 178.484059
L 24.442029 178.484059
L 24.442029 166.989373
L 12.947343 166.989373
z
" clip-path="url(#pc12b611f1b)" style="fill: #bcbd22; stroke: #ffffff; stroke-linejoin: miter"/>
   </g>
   <g id="patch_23">
    <path d="M 24.442029 178.484059
L 35.936716 178.484059
L 35.936716 166.989373
L 24.442029 166.989373
z
" clip-path="url(#pc12b611f1b)" style="fill: #bcbd22; stroke: #ffffff; stroke-linejoin: miter"/>
   </g>
   <g id="patch_24">
    <path d="M 35.936716 178.484059
L 47.431402 178.484059
L 47.431402 166.989373
L 35.936716 166.989373
z
" clip-path="url(#pc12b611f1b)" style="fill: #7f7f7f; stroke: #ffffff; stroke-linejoin: miter"/>
   </g>
   <g id="patch_25">
    <path d="M 47.431402 178.484059
L 58.926088 178.484059
L 58.926088 166.989373
L 47.431402 166.989373
z
" clip-path="url(#pc12b611f1b)" style="fill: #7f7f7f; stroke: #ffffff; stroke-linejoin: miter"/>
   </g>
   <g id="patch_26">
    <path d="M 58.926088 178.484059
L 70.420775 178.484059
L 70.420775 166.989373
L 58.926088 166.989373
z
" clip-path="url(#pc12b611f1b)" style="fill: #bcbd22; stroke: #ffffff; stroke-linejoin: miter"/>
   </g>
   <g id="patch_27">
    <path d="M 12.947343 155.494686
L 24.442029 155.494686
L 24.442029 144
L 12.947343 144
z
" clip-path="url(#pc12b611f1b)" style="fill: #d62728; stroke: #ffffff; stroke-linejoin: miter"/>
   </g>
   <g id="patch_28">
    <path d="M 24.442029 155.494686
L 35.936716 155.494686
L 35.936716 144
L 24.442029 144
z
" clip-path="url(#pc12b611f1b)" style="fill: #d62728; stroke: #ffffff; stroke-linejoin: miter"/>
   </g>
   <g id="patch_29">
    <path d="M 35.936716 155.494686
L 47.431402 155.494686
L 47.431402 144
L 35.936716 144
z
" clip-path="url(#pc12b611f1b)" style="fill: #8c564b; stroke: #ffffff; stroke-linejoin: miter"/>
   </g>
   <g id="patch_30">
    <path d="M 47.431402 155.494686
L 58.926088 155.494686
L 58.926088 144
L 47.431402 144
z
" clip-path="url(#pc12b611f1b)" style="fill: #d62728; stroke: #ffffff; stroke-linejoin: miter"/>
   </g>
   <g id="patch_31">
    <path d="M 58.926088 155.494686
L 70.420775 155.494686
L 70.420775 144
L 58.926088 144
z
" clip-path="url(#pc12b611f1b)" style="fill: #e377c2; stroke: #ffffff; stroke-linejoin: miter"/>
   </g>
   <g id="patch_32">
    <path d="M 12.947343 144
L 24.442029 144
L 24.442029 132.505314
L 12.947343 132.505314
z
" clip-path="url(#pc12b611f1b)" style="fill: #9467bd; stroke: #ffffff; stroke-linejoin: miter"/>
   </g>
   <g id="patch_33">
    <path d="M 24.442029 144
L 35.936716 144
L 35.936716 132.505314
L 24.442029 132.505314
z
" clip-path="url(#pc12b611f1b)" style="fill: #9467bd; stroke: #ffffff; stroke-linejoin: miter"/>
   </g>
   <g id="patch_34">
    <path d="M 35.936716 144
L 47.431402 144
L 47.431402 132.505314
L 35.936716 132.505314
z
" clip-path="url(#pc12b611f1b)" style="fill: #9467bd; stroke: #ffffff; stroke-linejoin: miter"/>
   </g>
   <g id="patch_35">
    <path d="M 47.431402 144
L 58.926088 144
L 58.926088 132.505314
L 47.431402 132.505314
z
" clip-path="url(#pc12b611f1b)" style="fill: #e377c2; stroke: #ffffff; stroke-linejoin: miter"/>
   </g>
   <g id="patch_36">
    <path d="M 58.926088 144
L 70.420775 144
L 70.420775 132.505314
L 58.926088 132.505314
z
" clip-path="url(#pc12b611f1b)" style="fill: #d62728; stroke: #ffffff; stroke-linejoin: miter"/>
   </g>
   <g id="patch_37">
    <path d="M 12.947343 132.505314
L 24.442029 132.505314
L 24.442029 121.010627
L 12.947343 121.010627
z
" clip-path="url(#pc12b611f1b)" style="fill: #8c564b; stroke: #ffffff; stroke-linejoin: miter"/>
   </g>
   <g id="patch_38">
    <path d="M 24.442029 132.505314
L 35.936716 132.505314
L 35.936716 121.010627
L 24.442029 121.010627
z
" clip-path="url(#pc12b611f1b)" style="fill: #e377c2; stroke: #ffffff; stroke-linejoin: miter"/>
   </g>
   <g id="patch_39">
    <path d="M 35.936716 132.505314
L 47.431402 132.505314
L 47.431402 121.010627
L 35.936716 121.010627
z
" clip-path="url(#pc12b611f1b)" style="fill: #8c564b; stroke: #ffffff; stroke-linejoin: miter"/>
   </g>
   <g id="patch_40">
    <path d="M 47.431402 132.505314
L 58.926088 132.505314
L 58.926088 121.010627
L 47.431402 121.010627
z
" clip-path="url(#pc12b611f1b)" style="fill: #d62728; stroke: #ffffff; stroke-linejoin: miter"/>
   </g>
   <g id="patch_41">
    <path d="M 58.926088 132.505314
L 70.420775 132.505314
L 70.420775 121.010627
L 58.926088 121.010627
z
" clip-path="url(#pc12b611f1b)" style="fill: #d62728; stroke: #ffffff; stroke-linejoin: miter"/>
   </g>
   <g id="patch_42">
    <path d="M 12.947343 109.515941
L 24.442029 109.515941
L 24.442029 98.021255
L 12.947343 98.021255
z
" clip-path="url(#pc12b611f1b)" style="fill: #8c564b; stroke: #ffffff; stroke-linejoin: miter"/>
   </g>
   <g id="patch_43">
    <path d="M 24.442029 109.515941
L 35.936716 109.515941
L 35.936716 98.021255
L 24.442029 98.021255
z
" clip-path="url(#pc12b611f1b)" style="fill: #8c564b; stroke: #ffffff; stroke-linejoin: miter"/>
   </g>
   <g id="patch_44">
    <path d="M 35.936716 109.515941
L 47.431402 109.515941
L 47.431402 98.021255
L 35.936716 98.021255
z
" clip-path="url(#pc12b611f1b)" style="fill: #8c564b; stroke: #ffffff; stroke-linejoin: miter"/>
   </g>
   <g id="patch_45">
    <path d="M 47.431402 109.515941
L 58.926088 109.515941
L 58.926088 98.021255
L 47.431402 98.021255
z
" clip-path="url(#pc12b611f1b)" style="fill: #ff7f0e; stroke: #ffffff; stroke-linejoin: miter"/>
   </g>
   <g id="patch_46">
    <path d="M 58.926088 109.515941
L 70.420775 109.515941
L 70.420775 98.021255
L 58.926088 98.021255
z
" clip-path="url(#pc12b611f1b)" style="fill: #2ca02c; stroke: #ffffff; stroke-linejoin: miter"/>
   </g>
   <g id="patch_47">
    <path d="M 12.947343 98.021255
L 24.442029 98.021255
L 24.442029 86.526568
L 12.947343 86.526568
z
" clip-path="url(#pc12b611f1b)" style="fill: #d62728; stroke: #ffffff; stroke-linejoin: miter"/>
   </g>
   <g id="patch_48">
    <path d="M 24.442029 98.021255
L 35.936716 98.021255
L 35.936716 86.526568
L 24.442029 86.526568
z
" clip-path="url(#pc12b611f1b)" style="fill: #d62728; stroke: #ffffff; stroke-linejoin: miter"/>
   </g>
   <g id="patch_49">
    <path d="M 35.936716 98.021255
L 47.431402 98.021255
L 47.431402 86.526568
L 35.936716 86.526568
z
" clip-path="url(#pc12b611f1b)" style="fill: #d62728; stroke: #ffffff; stroke-linejoin: miter"/>
   </g>
   <g id="patch_50">
    <path d="M 47.431402 98.021255
L 58.926088 98.021255
L 58.926088 86.526568
L 47.431402 86.526568
z
" clip-path="url(#pc12b611f1b)" style="fill: #2ca02c; stroke: #ffffff; stroke-linejoin: miter"/>
   </g>
   <g id="patch_51">
    <path d="M 58.926088 98.021255
L 70.420775 98.021255
L 70.420775 86.526568
L 58.926088 86.526568
z
" clip-path="url(#pc12b611f1b)" style="fill: #2ca02c; stroke: #ffffff; stroke-linejoin: miter"/>
   </g>
   <g id="patch_52">
    <path d="M 12.947343 75.031882
L 24.442029 75.031882
L 24.442029 63.537196
L 12.947343 63.537196
z
" clip-path="url(#pc12b611f1b)" style="fill: #2ca02c; stroke: #ffffff; stroke-linejoin: miter"/>
   </g>
   <g id="patch_53">
    <path d="M 24.442029 75.031882
L 35.936716 75.031882
L 35.936716 63.537196
L 24.442029 63.537196
z
" clip-path="url(#pc12b611f1b)" style="fill: #ff7f0e; stroke: #ffffff; stroke-linejoin: miter"/>
   </g>
   <g id="patch_54">
    <path d="M 35.936716 75.031882
L 47.431402 75.031882
L 47.431402 63.537196
L 35.936716 63.537196
z
" clip-path="url(#pc12b611f1b)" style="fill: #1f77b4; stroke: #ffffff; stroke-linejoin: miter"/>
   </g>
   <g id="patch_55">
    <path d="M 47.431402 75.031882
L 58.926088 75.031882
L 58.926088 63.537196
L 47.431402 63.537196
z
" clip-path="url(#pc12b611f1b)" style="fill: #2ca02c; stroke: #ffffff; stroke-linejoin: miter"/>
   </g>
   <g id="patch_56">
    <path d="M 58.926088 75.031882
L 70.420775 75.031882
L 70.420775 63.537196
L 58.926088 63.537196
z
" clip-path="url(#pc12b611f1b)" style="fill: #2ca02c; stroke: #ffffff; stroke-linejoin: miter"/>
   </g>
   <g id="patch_57">
    <path d="M 12.947343 63.537196
L 24.442029 63.537196
L 24.442029 52.042509
L 12.947343 52.042509
z
" clip-path="url(#pc12b611f1b)" style="fill: #1f77b4; stroke: #ffffff; stroke-linejoin: miter"/>
   </g>
   <g id="patch_58">
    <path d="M 24.442029 63.537196
L 35.936716 63.537196
L 35.936716 52.042509
L 24.442029 52.042509
z
" clip-path="url(#pc12b611f1b)" style="fill: #1f77b4; stroke: #ffffff; stroke-linejoin: miter"/>
   </g>
   <g id="patch_59">
    <path d="M 35.936716 63.537196
L 47.431402 63.537196
L 47.431402 52.042509
L 35.936716 52.042509
z
" clip-path="url(#pc12b611f1b)" style="fill: #ff7f0e; stroke: #ffffff; stroke-linejoin: miter"/>
   </g>
   <g id="patch_60">
    <path d="M 47.431402 63.537196
L 58.926088 63.537196
L 58.926088 52.042509
L 47.431402 52.042509
z
" clip-path="url(#pc12b611f1b)" style="fill: #ff7f0e; stroke: #ffffff; stroke-linejoin: miter"/>
   </g>
   <g id="patch_61">
    <path d="M 58.926088 63.537196
L 70.420775 63.537196
L 70.420775 52.042509
L 58.926088 52.042509
z
" clip-path="url(#pc12b611f1b)" style="fill: #2ca02c; stroke: #ffffff; stroke-linejoin: miter"/>
   </g>
   <g id="text_1">
    <!--    input -->
    <g transform="translate(49.496635 31.701916) scale(0.08 -0.08)">
     <defs>
      <path id="HelveticaNeue-20" transform="scale(0.015625)"/>
      <path id="HelveticaNeue-69" d="M 986 3904
L 986 4570
L 442 4570
L 442 3904
L 986 3904
z
M 442 3309
L 442 0
L 986 0
L 986 3309
L 442 3309
z
" transform="scale(0.015625)"/>
      <path id="HelveticaNeue-6e" d="M 410 3309
L 410 0
L 954 0
L 954 1869
Q 954 2093 1014 2281
Q 1075 2470 1196 2611
Q 1318 2752 1500 2829
Q 1683 2906 1933 2906
Q 2246 2906 2425 2726
Q 2605 2547 2605 2240
L 2605 0
L 3149 0
L 3149 2176
Q 3149 2445 3094 2665
Q 3040 2886 2905 3046
Q 2771 3206 2553 3296
Q 2336 3386 2010 3386
Q 1274 3386 934 2784
L 922 2784
L 922 3309
L 410 3309
z
" transform="scale(0.015625)"/>
      <path id="HelveticaNeue-70" d="M 429 3309
L 429 -1261
L 973 -1261
L 973 442
L 986 442
Q 1075 294 1206 195
Q 1338 96 1485 38
Q 1632 -19 1782 -44
Q 1933 -70 2054 -70
Q 2432 -70 2717 64
Q 3002 198 3190 432
Q 3379 666 3472 979
Q 3565 1293 3565 1645
Q 3565 1997 3469 2310
Q 3373 2624 3184 2864
Q 2995 3104 2710 3245
Q 2426 3386 2042 3386
Q 1696 3386 1408 3261
Q 1120 3136 986 2861
L 973 2861
L 973 3309
L 429 3309
z
M 2989 1683
Q 2989 1440 2937 1209
Q 2886 979 2771 800
Q 2656 621 2467 512
Q 2278 403 1997 403
Q 1715 403 1516 508
Q 1318 614 1193 787
Q 1069 960 1011 1187
Q 954 1414 954 1658
Q 954 1888 1008 2112
Q 1062 2336 1184 2512
Q 1306 2688 1498 2797
Q 1690 2906 1965 2906
Q 2227 2906 2422 2803
Q 2618 2701 2742 2528
Q 2867 2355 2928 2134
Q 2989 1914 2989 1683
z
" transform="scale(0.015625)"/>
      <path id="HelveticaNeue-75" d="M 3149 0
L 3149 3309
L 2605 3309
L 2605 1440
Q 2605 1216 2544 1027
Q 2483 838 2361 697
Q 2240 557 2057 480
Q 1875 403 1626 403
Q 1312 403 1133 582
Q 954 762 954 1069
L 954 3309
L 410 3309
L 410 1133
Q 410 864 464 643
Q 518 422 652 262
Q 787 102 1004 16
Q 1222 -70 1549 -70
Q 1914 -70 2182 74
Q 2451 218 2624 525
L 2637 525
L 2637 0
L 3149 0
z
" transform="scale(0.015625)"/>
      <path id="HelveticaNeue-74" d="M 1165 3309
L 1165 4301
L 621 4301
L 621 3309
L 58 3309
L 58 2829
L 621 2829
L 621 723
Q 621 493 665 352
Q 710 211 803 134
Q 896 58 1046 29
Q 1197 0 1408 0
L 1824 0
L 1824 480
L 1574 480
Q 1446 480 1366 489
Q 1286 499 1241 531
Q 1197 563 1181 620
Q 1165 678 1165 774
L 1165 2829
L 1824 2829
L 1824 3309
L 1165 3309
z
" transform="scale(0.015625)"/>
     </defs>
     <use xlink:href="#HelveticaNeue-20"/>
     <use xlink:href="#HelveticaNeue-20" x="27.799988"/>
     <use xlink:href="#HelveticaNeue-20" x="55.599976"/>
     <use xlink:href="#HelveticaNeue-69" x="83.399963"/>
     <use xlink:href="#HelveticaNeue-6e" x="105.59996"/>
     <use xlink:href="#HelveticaNeue-70" x="161.199951"/>
     <use xlink:href="#HelveticaNeue-75" x="220.499939"/>
     <use xlink:href="#HelveticaNeue-74" x="276.09993"/>
    </g>
    <!-- (1 array, 5 blocks) -->
    <g transform="translate(30.386635 40.295166) scale(0.08 -0.08)">
     <defs>
      <path id="HelveticaNeue-28" d="M 1306 -1261
L 1722 -1261
Q 1267 -525 1072 198
Q 877 922 877 1728
Q 877 2515 1069 3232
Q 1261 3949 1722 4678
L 1306 4678
Q 806 4019 553 3251
Q 301 2483 301 1728
Q 301 1306 371 922
Q 442 538 573 173
Q 704 -192 889 -547
Q 1075 -902 1306 -1261
z
" transform="scale(0.015625)"/>
      <path id="HelveticaNeue-31" d="M 2278 0
L 2278 4538
L 1862 4538
Q 1818 4282 1696 4115
Q 1574 3949 1398 3853
Q 1222 3757 1004 3721
Q 787 3686 557 3686
L 557 3251
L 1734 3251
L 1734 0
L 2278 0
z
" transform="scale(0.015625)"/>
      <path id="HelveticaNeue-61" d="M 3341 13
Q 3200 -70 2950 -70
Q 2739 -70 2614 48
Q 2490 166 2490 435
Q 2266 166 1968 48
Q 1670 -70 1325 -70
Q 1101 -70 899 -19
Q 698 32 550 141
Q 403 250 316 426
Q 230 602 230 851
Q 230 1133 326 1312
Q 422 1491 579 1603
Q 736 1715 937 1772
Q 1139 1830 1350 1869
Q 1574 1914 1776 1936
Q 1978 1958 2131 2000
Q 2285 2042 2374 2122
Q 2464 2202 2464 2355
Q 2464 2534 2397 2643
Q 2330 2752 2224 2809
Q 2118 2867 1987 2886
Q 1856 2906 1728 2906
Q 1382 2906 1152 2774
Q 922 2643 902 2278
L 358 2278
Q 371 2586 486 2797
Q 602 3008 794 3139
Q 986 3270 1232 3328
Q 1478 3386 1760 3386
Q 1984 3386 2205 3354
Q 2426 3322 2605 3222
Q 2784 3123 2893 2944
Q 3002 2765 3002 2477
L 3002 774
Q 3002 582 3024 492
Q 3046 403 3174 403
Q 3245 403 3341 435
L 3341 13
z
M 2458 1709
Q 2355 1632 2188 1597
Q 2022 1562 1840 1539
Q 1658 1517 1472 1488
Q 1286 1459 1139 1395
Q 992 1331 899 1212
Q 806 1094 806 890
Q 806 755 860 662
Q 915 570 1001 512
Q 1088 454 1203 428
Q 1318 403 1446 403
Q 1715 403 1907 476
Q 2099 550 2220 662
Q 2342 774 2400 905
Q 2458 1037 2458 1152
L 2458 1709
z
" transform="scale(0.015625)"/>
      <path id="HelveticaNeue-72" d="M 390 3309
L 390 0
L 934 0
L 934 1472
Q 934 1792 998 2038
Q 1062 2285 1203 2457
Q 1344 2630 1574 2720
Q 1805 2810 2131 2810
L 2131 3386
Q 1690 3398 1402 3206
Q 1114 3014 915 2611
L 902 2611
L 902 3309
L 390 3309
z
" transform="scale(0.015625)"/>
      <path id="HelveticaNeue-79" d="M 1709 -442
Q 1613 -685 1520 -851
Q 1427 -1018 1315 -1123
Q 1203 -1229 1065 -1277
Q 928 -1325 749 -1325
Q 653 -1325 557 -1312
Q 461 -1299 371 -1267
L 371 -768
Q 442 -800 534 -822
Q 627 -845 691 -845
Q 858 -845 970 -765
Q 1082 -685 1139 -538
L 1363 19
L 51 3309
L 666 3309
L 1632 602
L 1645 602
L 2573 3309
L 3149 3309
L 1709 -442
z
" transform="scale(0.015625)"/>
      <path id="HelveticaNeue-2c" d="M 531 710
L 531 0
L 909 0
Q 915 -77 899 -166
Q 883 -256 838 -342
Q 794 -429 720 -502
Q 646 -576 538 -614
L 538 -934
Q 909 -826 1075 -563
Q 1242 -301 1242 64
L 1242 710
L 531 710
z
" transform="scale(0.015625)"/>
      <path id="HelveticaNeue-35" d="M 3008 3981
L 3008 4461
L 768 4461
L 346 2106
L 813 2080
Q 973 2272 1181 2390
Q 1389 2509 1658 2509
Q 1888 2509 2077 2432
Q 2266 2355 2400 2217
Q 2534 2080 2608 1891
Q 2682 1702 2682 1478
Q 2682 1210 2605 1008
Q 2528 806 2397 672
Q 2266 538 2090 470
Q 1914 403 1722 403
Q 1517 403 1347 464
Q 1178 525 1053 637
Q 928 749 854 899
Q 781 1050 768 1222
L 224 1222
Q 230 915 345 672
Q 461 429 659 265
Q 858 102 1117 16
Q 1376 -70 1670 -70
Q 2067 -70 2364 54
Q 2662 179 2860 390
Q 3059 602 3158 874
Q 3258 1146 3258 1434
Q 3258 1824 3142 2115
Q 3027 2406 2828 2601
Q 2630 2797 2361 2893
Q 2093 2989 1792 2989
Q 1562 2989 1328 2909
Q 1094 2829 947 2662
L 934 2675
L 1178 3981
L 3008 3981
z
" transform="scale(0.015625)"/>
      <path id="HelveticaNeue-62" d="M 429 4570
L 429 0
L 973 0
L 973 442
L 986 442
Q 1075 294 1206 195
Q 1338 96 1485 38
Q 1632 -19 1782 -44
Q 1933 -70 2054 -70
Q 2432 -70 2717 64
Q 3002 198 3190 432
Q 3379 666 3472 979
Q 3565 1293 3565 1645
Q 3565 1997 3469 2310
Q 3373 2624 3184 2864
Q 2995 3104 2710 3245
Q 2426 3386 2042 3386
Q 1696 3386 1408 3261
Q 1120 3136 986 2861
L 973 2861
L 973 4570
L 429 4570
z
M 2989 1683
Q 2989 1440 2937 1209
Q 2886 979 2771 800
Q 2656 621 2467 512
Q 2278 403 1997 403
Q 1715 403 1516 508
Q 1318 614 1193 787
Q 1069 960 1011 1187
Q 954 1414 954 1658
Q 954 1888 1008 2112
Q 1062 2336 1184 2512
Q 1306 2688 1498 2797
Q 1690 2906 1965 2906
Q 2227 2906 2422 2803
Q 2618 2701 2742 2528
Q 2867 2355 2928 2134
Q 2989 1914 2989 1683
z
" transform="scale(0.015625)"/>
      <path id="HelveticaNeue-6c" d="M 442 4570
L 442 0
L 986 0
L 986 4570
L 442 4570
z
" transform="scale(0.015625)"/>
      <path id="HelveticaNeue-6f" d="M 806 1651
Q 806 1952 886 2185
Q 966 2419 1107 2579
Q 1248 2739 1437 2822
Q 1626 2906 1837 2906
Q 2048 2906 2237 2822
Q 2426 2739 2566 2579
Q 2707 2419 2787 2185
Q 2867 1952 2867 1651
Q 2867 1350 2787 1116
Q 2707 883 2566 726
Q 2426 570 2237 486
Q 2048 403 1837 403
Q 1626 403 1437 486
Q 1248 570 1107 726
Q 966 883 886 1116
Q 806 1350 806 1651
z
M 230 1651
Q 230 1286 332 972
Q 435 659 640 425
Q 845 192 1145 61
Q 1446 -70 1837 -70
Q 2234 -70 2531 61
Q 2829 192 3033 425
Q 3238 659 3340 972
Q 3443 1286 3443 1651
Q 3443 2016 3340 2333
Q 3238 2650 3033 2883
Q 2829 3117 2531 3251
Q 2234 3386 1837 3386
Q 1446 3386 1145 3251
Q 845 3117 640 2883
Q 435 2650 332 2333
Q 230 2016 230 1651
z
" transform="scale(0.015625)"/>
      <path id="HelveticaNeue-63" d="M 2656 2246
L 3219 2246
Q 3187 2541 3065 2755
Q 2944 2970 2755 3110
Q 2566 3251 2320 3318
Q 2074 3386 1792 3386
Q 1402 3386 1107 3248
Q 813 3110 617 2870
Q 422 2630 326 2307
Q 230 1984 230 1613
Q 230 1242 329 931
Q 429 621 624 397
Q 819 173 1110 51
Q 1402 -70 1779 -70
Q 2413 -70 2781 262
Q 3149 595 3238 1210
L 2682 1210
Q 2630 826 2403 614
Q 2176 403 1773 403
Q 1517 403 1331 505
Q 1146 608 1030 777
Q 915 947 860 1164
Q 806 1382 806 1613
Q 806 1862 857 2096
Q 909 2330 1027 2509
Q 1146 2688 1344 2797
Q 1542 2906 1837 2906
Q 2182 2906 2387 2733
Q 2592 2560 2656 2246
z
" transform="scale(0.015625)"/>
      <path id="HelveticaNeue-6b" d="M 442 4570
L 442 0
L 986 0
L 986 1254
L 1498 1728
L 2630 0
L 3322 0
L 1914 2106
L 3226 3309
L 2496 3309
L 986 1862
L 986 4570
L 442 4570
z
" transform="scale(0.015625)"/>
      <path id="HelveticaNeue-73" d="M 742 1043
L 198 1043
Q 211 736 326 521
Q 442 307 634 176
Q 826 45 1075 -12
Q 1325 -70 1600 -70
Q 1850 -70 2102 -22
Q 2355 26 2556 147
Q 2758 269 2883 467
Q 3008 666 3008 966
Q 3008 1203 2915 1363
Q 2822 1523 2672 1628
Q 2522 1734 2326 1798
Q 2131 1862 1926 1907
Q 1734 1952 1542 1993
Q 1350 2035 1196 2096
Q 1043 2157 944 2249
Q 845 2342 845 2483
Q 845 2611 909 2691
Q 973 2771 1075 2819
Q 1178 2867 1302 2886
Q 1427 2906 1549 2906
Q 1683 2906 1814 2877
Q 1946 2848 2054 2784
Q 2163 2720 2233 2614
Q 2304 2509 2317 2349
L 2861 2349
Q 2842 2650 2733 2851
Q 2624 3053 2441 3171
Q 2259 3290 2022 3338
Q 1786 3386 1504 3386
Q 1286 3386 1065 3331
Q 845 3277 669 3165
Q 493 3053 381 2873
Q 269 2694 269 2445
Q 269 2125 429 1945
Q 589 1766 829 1667
Q 1069 1568 1350 1513
Q 1632 1459 1872 1392
Q 2112 1325 2272 1216
Q 2432 1107 2432 896
Q 2432 742 2355 643
Q 2278 544 2160 493
Q 2042 442 1901 422
Q 1760 403 1632 403
Q 1466 403 1309 435
Q 1152 467 1027 540
Q 902 614 825 739
Q 749 864 742 1043
z
" transform="scale(0.015625)"/>
      <path id="HelveticaNeue-29" d="M -58 -1261
L 352 -1261
Q 851 -602 1104 163
Q 1357 928 1357 1683
Q 1357 2106 1286 2490
Q 1216 2874 1085 3242
Q 954 3610 768 3965
Q 582 4320 352 4678
L -58 4678
Q 390 3942 585 3216
Q 781 2490 781 1683
Q 781 902 589 182
Q 397 -538 -58 -1261
z
" transform="scale(0.015625)"/>
     </defs>
     <use xlink:href="#HelveticaNeue-28"/>
     <use xlink:href="#HelveticaNeue-31" x="25.899994"/>
     <use xlink:href="#HelveticaNeue-20" x="81.499985"/>
     <use xlink:href="#HelveticaNeue-61" x="109.299973"/>
     <use xlink:href="#HelveticaNeue-72" x="162.999969"/>
     <use xlink:href="#HelveticaNeue-72" x="196.299957"/>
     <use xlink:href="#HelveticaNeue-61" x="229.599945"/>
     <use xlink:href="#HelveticaNeue-79" x="283.299942"/>
     <use xlink:href="#HelveticaNeue-2c" x="325.924927"/>
     <use xlink:href="#HelveticaNeue-20" x="353.724915"/>
     <use xlink:href="#HelveticaNeue-35" x="381.524902"/>
     <use xlink:href="#HelveticaNeue-20" x="437.124893"/>
     <use xlink:href="#HelveticaNeue-62" x="464.924881"/>
     <use xlink:href="#HelveticaNeue-6c" x="524.224869"/>
     <use xlink:href="#HelveticaNeue-6f" x="546.424866"/>
     <use xlink:href="#HelveticaNeue-63" x="603.82486"/>
     <use xlink:href="#HelveticaNeue-6b" x="657.524857"/>
     <use xlink:href="#HelveticaNeue-73" x="709.42485"/>
     <use xlink:href="#HelveticaNeue-29" x="759.424835"/>
    </g>
   </g>
  </g>
  <g id="axes_2">
   <g id="patch_62">
    <path d="M 128.147343 224.462804
L 139.642029 224.462804
L 139.642029 212.968118
L 128.147343 212.968118
z
" clip-path="url(#p6330aee02a)" style="fill: #17becf; stroke: #ffffff; stroke-linejoin: miter"/>
   </g>
   <g id="patch_63">
    <path d="M 139.642029 224.462804
L 151.136716 224.462804
L 151.136716 212.968118
L 139.642029 212.968118
z
" clip-path="url(#p6330aee02a)" style="fill: #bcbd22; stroke: #ffffff; stroke-linejoin: miter"/>
   </g>
   <g id="patch_64">
    <path d="M 151.136716 224.462804
L 162.631402 224.462804
L 162.631402 212.968118
L 151.136716 212.968118
z
" clip-path="url(#p6330aee02a)" style="fill: #7f7f7f; stroke: #ffffff; stroke-linejoin: miter"/>
   </g>
   <g id="patch_65">
    <path d="M 128.147343 184.231402
L 139.642029 184.231402
L 139.642029 172.736716
L 128.147343 172.736716
z
" clip-path="url(#p6330aee02a)" style="fill: #bcbd22; stroke: #ffffff; stroke-linejoin: miter"/>
   </g>
   <g id="patch_66">
    <path d="M 139.642029 184.231402
L 151.136716 184.231402
L 151.136716 172.736716
L 139.642029 172.736716
z
" clip-path="url(#p6330aee02a)" style="fill: #7f7f7f; stroke: #ffffff; stroke-linejoin: miter"/>
   </g>
   <g id="patch_67">
    <path d="M 128.147343 144
L 139.642029 144
L 139.642029 132.505314
L 128.147343 132.505314
z
" clip-path="url(#p6330aee02a)" style="fill: #e377c2; stroke: #ffffff; stroke-linejoin: miter"/>
   </g>
   <g id="patch_68">
    <path d="M 139.642029 144
L 151.136716 144
L 151.136716 132.505314
L 139.642029 132.505314
z
" clip-path="url(#p6330aee02a)" style="fill: #8c564b; stroke: #ffffff; stroke-linejoin: miter"/>
   </g>
   <g id="patch_69">
    <path d="M 151.136716 144
L 162.631402 144
L 162.631402 132.505314
L 151.136716 132.505314
z
" clip-path="url(#p6330aee02a)" style="fill: #9467bd; stroke: #ffffff; stroke-linejoin: miter"/>
   </g>
   <g id="patch_70">
    <path d="M 162.631402 144
L 174.126088 144
L 174.126088 132.505314
L 162.631402 132.505314
z
" clip-path="url(#p6330aee02a)" style="fill: #d62728; stroke: #ffffff; stroke-linejoin: miter"/>
   </g>
   <g id="patch_71">
    <path d="M 128.147343 103.768598
L 139.642029 103.768598
L 139.642029 92.273912
L 128.147343 92.273912
z
" clip-path="url(#p6330aee02a)" style="fill: #8c564b; stroke: #ffffff; stroke-linejoin: miter"/>
   </g>
   <g id="patch_72">
    <path d="M 139.642029 103.768598
L 151.136716 103.768598
L 151.136716 92.273912
L 139.642029 92.273912
z
" clip-path="url(#p6330aee02a)" style="fill: #d62728; stroke: #ffffff; stroke-linejoin: miter"/>
   </g>
   <g id="patch_73">
    <path d="M 151.136716 103.768598
L 162.631402 103.768598
L 162.631402 92.273912
L 151.136716 92.273912
z
" clip-path="url(#p6330aee02a)" style="fill: #2ca02c; stroke: #ffffff; stroke-linejoin: miter"/>
   </g>
   <g id="patch_74">
    <path d="M 162.631402 103.768598
L 174.126088 103.768598
L 174.126088 92.273912
L 162.631402 92.273912
z
" clip-path="url(#p6330aee02a)" style="fill: #ff7f0e; stroke: #ffffff; stroke-linejoin: miter"/>
   </g>
   <g id="patch_75">
    <path d="M 128.147343 69.284539
L 139.642029 69.284539
L 139.642029 57.789853
L 128.147343 57.789853
z
" clip-path="url(#p6330aee02a)" style="fill: #2ca02c; stroke: #ffffff; stroke-linejoin: miter"/>
   </g>
   <g id="patch_76">
    <path d="M 139.642029 69.284539
L 151.136716 69.284539
L 151.136716 57.789853
L 139.642029 57.789853
z
" clip-path="url(#p6330aee02a)" style="fill: #ff7f0e; stroke: #ffffff; stroke-linejoin: miter"/>
   </g>
   <g id="patch_77">
    <path d="M 151.136716 69.284539
L 162.631402 69.284539
L 162.631402 57.789853
L 151.136716 57.789853
z
" clip-path="url(#p6330aee02a)" style="fill: #1f77b4; stroke: #ffffff; stroke-linejoin: miter"/>
   </g>
   <g id="text_2">
    <!--    blockwise -->
    <g transform="translate(155.815385 31.701916) scale(0.08 -0.08)">
     <defs>
      <path id="HelveticaNeue-77" d="M 3686 0
L 4742 3309
L 4179 3309
L 3437 602
L 3424 602
L 2733 3309
L 2138 3309
L 1472 602
L 1459 602
L 710 3309
L 109 3309
L 1171 0
L 1760 0
L 2426 2630
L 2438 2630
L 3110 0
L 3686 0
z
" transform="scale(0.015625)"/>
      <path id="HelveticaNeue-65" d="M 2707 1971
L 806 1971
Q 819 2163 889 2332
Q 960 2502 1081 2630
Q 1203 2758 1372 2832
Q 1542 2906 1754 2906
Q 1958 2906 2128 2832
Q 2298 2758 2422 2633
Q 2547 2509 2620 2336
Q 2694 2163 2707 1971
z
M 3232 1050
L 2694 1050
Q 2624 723 2403 563
Q 2182 403 1837 403
Q 1568 403 1369 492
Q 1171 582 1043 732
Q 915 883 857 1078
Q 800 1274 806 1491
L 3283 1491
Q 3296 1792 3229 2125
Q 3162 2458 2986 2739
Q 2810 3021 2518 3203
Q 2227 3386 1786 3386
Q 1446 3386 1161 3258
Q 877 3130 669 2899
Q 461 2669 345 2355
Q 230 2042 230 1664
Q 243 1286 342 966
Q 442 646 640 416
Q 838 186 1129 58
Q 1421 -70 1818 -70
Q 2381 -70 2752 211
Q 3123 493 3232 1050
z
" transform="scale(0.015625)"/>
     </defs>
     <use xlink:href="#HelveticaNeue-20"/>
     <use xlink:href="#HelveticaNeue-20" x="27.799988"/>
     <use xlink:href="#HelveticaNeue-20" x="55.599976"/>
     <use xlink:href="#HelveticaNeue-62" x="83.399963"/>
     <use xlink:href="#HelveticaNeue-6c" x="142.699951"/>
     <use xlink:href="#HelveticaNeue-6f" x="164.899948"/>
     <use xlink:href="#HelveticaNeue-63" x="222.299942"/>
     <use xlink:href="#HelveticaNeue-6b" x="275.999939"/>
     <use xlink:href="#HelveticaNeue-77" x="327.899933"/>
     <use xlink:href="#HelveticaNeue-69" x="403.699921"/>
     <use xlink:href="#HelveticaNeue-73" x="425.899918"/>
     <use xlink:href="#HelveticaNeue-65" x="475.899902"/>
    </g>
    <!-- (1 array, 5 blocks) -->
    <g transform="translate(145.586635 40.295166) scale(0.08 -0.08)">
     <use xlink:href="#HelveticaNeue-28"/>
     <use xlink:href="#HelveticaNeue-31" x="25.899994"/>
     <use xlink:href="#HelveticaNeue-20" x="81.499985"/>
     <use xlink:href="#HelveticaNeue-61" x="109.299973"/>
     <use xlink:href="#HelveticaNeue-72" x="162.999969"/>
     <use xlink:href="#HelveticaNeue-72" x="196.299957"/>
     <use xlink:href="#HelveticaNeue-61" x="229.599945"/>
     <use xlink:href="#HelveticaNeue-79" x="283.299942"/>
     <use xlink:href="#HelveticaNeue-2c" x="325.924927"/>
     <use xlink:href="#HelveticaNeue-20" x="353.724915"/>
     <use xlink:href="#HelveticaNeue-35" x="381.524902"/>
     <use xlink:href="#HelveticaNeue-20" x="437.124893"/>
     <use xlink:href="#HelveticaNeue-62" x="464.924881"/>
     <use xlink:href="#HelveticaNeue-6c" x="524.224869"/>
     <use xlink:href="#HelveticaNeue-6f" x="546.424866"/>
     <use xlink:href="#HelveticaNeue-63" x="603.82486"/>
     <use xlink:href="#HelveticaNeue-6b" x="657.524857"/>
     <use xlink:href="#HelveticaNeue-73" x="709.42485"/>
     <use xlink:href="#HelveticaNeue-29" x="759.424835"/>
    </g>
   </g>
  </g>
  <g id="axes_3">
   <g id="patch_78">
    <path d="M 243.347343 207.220775
L 254.842029 207.220775
L 254.842029 195.726088
L 243.347343 195.726088
z
" clip-path="url(#p8b56f54fa3)" style="fill: #17becf; stroke: #ffffff; stroke-linejoin: miter"/>
   </g>
   <g id="patch_79">
    <path d="M 254.842029 207.220775
L 266.336716 207.220775
L 266.336716 195.726088
L 254.842029 195.726088
z
" clip-path="url(#p8b56f54fa3)" style="fill: #bcbd22; stroke: #ffffff; stroke-linejoin: miter"/>
   </g>
   <g id="patch_80">
    <path d="M 266.336716 207.220775
L 277.831402 207.220775
L 277.831402 195.726088
L 266.336716 195.726088
z
" clip-path="url(#p8b56f54fa3)" style="fill: #7f7f7f; stroke: #ffffff; stroke-linejoin: miter"/>
   </g>
   <g id="patch_81">
    <path d="M 243.347343 195.726088
L 254.842029 195.726088
L 254.842029 184.231402
L 243.347343 184.231402
z
" clip-path="url(#p8b56f54fa3)" style="fill: #17becf; stroke: #ffffff; stroke-linejoin: miter"/>
   </g>
   <g id="patch_82">
    <path d="M 254.842029 195.726088
L 266.336716 195.726088
L 266.336716 184.231402
L 254.842029 184.231402
z
" clip-path="url(#p8b56f54fa3)" style="fill: #bcbd22; stroke: #ffffff; stroke-linejoin: miter"/>
   </g>
   <g id="patch_83">
    <path d="M 266.336716 195.726088
L 277.831402 195.726088
L 277.831402 184.231402
L 266.336716 184.231402
z
" clip-path="url(#p8b56f54fa3)" style="fill: #7f7f7f; stroke: #ffffff; stroke-linejoin: miter"/>
   </g>
   <g id="patch_84">
    <path d="M 243.347343 144
L 254.842029 144
L 254.842029 132.505314
L 243.347343 132.505314
z
" clip-path="url(#p8b56f54fa3)" style="fill: #e377c2; stroke: #ffffff; stroke-linejoin: miter"/>
   </g>
   <g id="patch_85">
    <path d="M 254.842029 144
L 266.336716 144
L 266.336716 132.505314
L 254.842029 132.505314
z
" clip-path="url(#p8b56f54fa3)" style="fill: #8c564b; stroke: #ffffff; stroke-linejoin: miter"/>
   </g>
   <g id="patch_86">
    <path d="M 266.336716 144
L 277.831402 144
L 277.831402 132.505314
L 266.336716 132.505314
z
" clip-path="url(#p8b56f54fa3)" style="fill: #9467bd; stroke: #ffffff; stroke-linejoin: miter"/>
   </g>
   <g id="patch_87">
    <path d="M 277.831402 144
L 289.326088 144
L 289.326088 132.505314
L 277.831402 132.505314
z
" clip-path="url(#p8b56f54fa3)" style="fill: #d62728; stroke: #ffffff; stroke-linejoin: miter"/>
   </g>
   <g id="patch_88">
    <path d="M 289.326088 144
L 300.820775 144
L 300.820775 132.505314
L 289.326088 132.505314
z
" clip-path="url(#p8b56f54fa3)" style="fill: #2ca02c; stroke: #ffffff; stroke-linejoin: miter"/>
   </g>
   <g id="patch_89">
    <path d="M 300.820775 144
L 312.315461 144
L 312.315461 132.505314
L 300.820775 132.505314
z
" clip-path="url(#p8b56f54fa3)" style="fill: #ff7f0e; stroke: #ffffff; stroke-linejoin: miter"/>
   </g>
   <g id="patch_90">
    <path d="M 243.347343 132.505314
L 254.842029 132.505314
L 254.842029 121.010627
L 243.347343 121.010627
z
" clip-path="url(#p8b56f54fa3)" style="fill: #e377c2; stroke: #ffffff; stroke-linejoin: miter"/>
   </g>
   <g id="patch_91">
    <path d="M 254.842029 132.505314
L 266.336716 132.505314
L 266.336716 121.010627
L 254.842029 121.010627
z
" clip-path="url(#p8b56f54fa3)" style="fill: #8c564b; stroke: #ffffff; stroke-linejoin: miter"/>
   </g>
   <g id="patch_92">
    <path d="M 266.336716 132.505314
L 277.831402 132.505314
L 277.831402 121.010627
L 266.336716 121.010627
z
" clip-path="url(#p8b56f54fa3)" style="fill: #9467bd; stroke: #ffffff; stroke-linejoin: miter"/>
   </g>
   <g id="patch_93">
    <path d="M 277.831402 132.505314
L 289.326088 132.505314
L 289.326088 121.010627
L 277.831402 121.010627
z
" clip-path="url(#p8b56f54fa3)" style="fill: #d62728; stroke: #ffffff; stroke-linejoin: miter"/>
   </g>
   <g id="patch_94">
    <path d="M 289.326088 132.505314
L 300.820775 132.505314
L 300.820775 121.010627
L 289.326088 121.010627
z
" clip-path="url(#p8b56f54fa3)" style="fill: #2ca02c; stroke: #ffffff; stroke-linejoin: miter"/>
   </g>
   <g id="patch_95">
    <path d="M 300.820775 132.505314
L 312.315461 132.505314
L 312.315461 121.010627
L 300.820775 121.010627
z
" clip-path="url(#p8b56f54fa3)" style="fill: #ff7f0e; stroke: #ffffff; stroke-linejoin: miter"/>
   </g>
   <g id="patch_96">
    <path d="M 243.347343 86.526568
L 254.842029 86.526568
L 254.842029 75.031882
L 243.347343 75.031882
z
" clip-path="url(#p8b56f54fa3)" style="fill: #2ca02c; stroke: #ffffff; stroke-linejoin: miter"/>
   </g>
   <g id="patch_97">
    <path d="M 254.842029 86.526568
L 266.336716 86.526568
L 266.336716 75.031882
L 254.842029 75.031882
z
" clip-path="url(#p8b56f54fa3)" style="fill: #ff7f0e; stroke: #ffffff; stroke-linejoin: miter"/>
   </g>
   <g id="patch_98">
    <path d="M 266.336716 86.526568
L 277.831402 86.526568
L 277.831402 75.031882
L 266.336716 75.031882
z
" clip-path="url(#p8b56f54fa3)" style="fill: #1f77b4; stroke: #ffffff; stroke-linejoin: miter"/>
   </g>
   <g id="text_3">
    <!--    reindex/stack -->
    <g transform="translate(264.78601 31.701916) scale(0.08 -0.08)">
     <defs>
      <path id="HelveticaNeue-64" d="M 806 1626
Q 806 1869 857 2099
Q 909 2330 1024 2509
Q 1139 2688 1331 2797
Q 1523 2906 1798 2906
Q 2080 2906 2278 2800
Q 2477 2694 2601 2521
Q 2726 2349 2784 2121
Q 2842 1894 2842 1651
Q 2842 1421 2787 1197
Q 2733 973 2611 797
Q 2490 621 2298 512
Q 2106 403 1830 403
Q 1568 403 1373 505
Q 1178 608 1053 781
Q 928 954 867 1174
Q 806 1395 806 1626
z
M 3366 0
L 3366 4570
L 2822 4570
L 2822 2867
L 2810 2867
Q 2720 3014 2589 3113
Q 2458 3213 2310 3273
Q 2163 3334 2016 3360
Q 1869 3386 1741 3386
Q 1363 3386 1078 3248
Q 794 3110 605 2876
Q 416 2643 323 2329
Q 230 2016 230 1664
Q 230 1312 326 998
Q 422 685 611 448
Q 800 211 1085 70
Q 1370 -70 1754 -70
Q 2099 -70 2387 51
Q 2675 173 2810 448
L 2822 448
L 2822 0
L 3366 0
z
" transform="scale(0.015625)"/>
      <path id="HelveticaNeue-78" d="M 1299 1741
L 58 0
L 717 0
L 1638 1370
L 2560 0
L 3258 0
L 1978 1786
L 3117 3309
L 2464 3309
L 1638 2150
L 845 3309
L 147 3309
L 1299 1741
z
" transform="scale(0.015625)"/>
      <path id="HelveticaNeue-2f" d="M 1779 4678
L -109 -102
L 352 -102
L 2246 4678
L 1779 4678
z
" transform="scale(0.015625)"/>
     </defs>
     <use xlink:href="#HelveticaNeue-20"/>
     <use xlink:href="#HelveticaNeue-20" x="27.799988"/>
     <use xlink:href="#HelveticaNeue-20" x="55.599976"/>
     <use xlink:href="#HelveticaNeue-72" x="83.399963"/>
     <use xlink:href="#HelveticaNeue-65" x="114.949951"/>
     <use xlink:href="#HelveticaNeue-69" x="168.649948"/>
     <use xlink:href="#HelveticaNeue-6e" x="190.849945"/>
     <use xlink:href="#HelveticaNeue-64" x="246.449936"/>
     <use xlink:href="#HelveticaNeue-65" x="305.749924"/>
     <use xlink:href="#HelveticaNeue-78" x="359.449921"/>
     <use xlink:href="#HelveticaNeue-2f" x="411.249908"/>
     <use xlink:href="#HelveticaNeue-73" x="444.549896"/>
     <use xlink:href="#HelveticaNeue-74" x="494.549881"/>
     <use xlink:href="#HelveticaNeue-61" x="526.049866"/>
     <use xlink:href="#HelveticaNeue-63" x="579.749863"/>
     <use xlink:href="#HelveticaNeue-6b" x="633.44986"/>
    </g>
    <!-- (1 array, 3 blocks) -->
    <g transform="translate(260.786635 40.295166) scale(0.08 -0.08)">
     <defs>
      <path id="HelveticaNeue-33" d="M 1395 2592
L 1395 2131
Q 1549 2150 1722 2150
Q 1926 2150 2102 2096
Q 2278 2042 2406 1930
Q 2534 1818 2611 1654
Q 2688 1491 2688 1280
Q 2688 1075 2608 912
Q 2528 749 2393 637
Q 2259 525 2080 464
Q 1901 403 1702 403
Q 1235 403 992 681
Q 749 960 736 1402
L 192 1402
Q 186 1050 291 774
Q 397 499 595 310
Q 794 122 1075 26
Q 1357 -70 1702 -70
Q 2022 -70 2307 16
Q 2592 102 2803 275
Q 3014 448 3139 707
Q 3264 966 3264 1306
Q 3264 1715 3062 2016
Q 2861 2317 2445 2406
L 2445 2419
Q 2714 2541 2893 2777
Q 3072 3014 3072 3322
Q 3072 3635 2966 3865
Q 2861 4096 2675 4243
Q 2490 4390 2237 4464
Q 1984 4538 1690 4538
Q 1350 4538 1091 4429
Q 832 4320 659 4128
Q 486 3936 393 3667
Q 301 3398 288 3072
L 832 3072
Q 832 3270 883 3449
Q 934 3629 1040 3763
Q 1146 3898 1309 3978
Q 1472 4058 1690 4058
Q 2035 4058 2265 3875
Q 2496 3693 2496 3328
Q 2496 3149 2425 3008
Q 2355 2867 2236 2774
Q 2118 2682 1961 2634
Q 1805 2586 1632 2586
L 1517 2586
Q 1485 2586 1453 2586
Q 1427 2586 1395 2592
z
" transform="scale(0.015625)"/>
     </defs>
     <use xlink:href="#HelveticaNeue-28"/>
     <use xlink:href="#HelveticaNeue-31" x="25.899994"/>
     <use xlink:href="#HelveticaNeue-20" x="81.499985"/>
     <use xlink:href="#HelveticaNeue-61" x="109.299973"/>
     <use xlink:href="#HelveticaNeue-72" x="162.999969"/>
     <use xlink:href="#HelveticaNeue-72" x="196.299957"/>
     <use xlink:href="#HelveticaNeue-61" x="229.599945"/>
     <use xlink:href="#HelveticaNeue-79" x="283.299942"/>
     <use xlink:href="#HelveticaNeue-2c" x="325.924927"/>
     <use xlink:href="#HelveticaNeue-20" x="353.724915"/>
     <use xlink:href="#HelveticaNeue-33" x="381.524902"/>
     <use xlink:href="#HelveticaNeue-20" x="437.124893"/>
     <use xlink:href="#HelveticaNeue-62" x="464.924881"/>
     <use xlink:href="#HelveticaNeue-6c" x="524.224869"/>
     <use xlink:href="#HelveticaNeue-6f" x="546.424866"/>
     <use xlink:href="#HelveticaNeue-63" x="603.82486"/>
     <use xlink:href="#HelveticaNeue-6b" x="657.524857"/>
     <use xlink:href="#HelveticaNeue-73" x="709.42485"/>
     <use xlink:href="#HelveticaNeue-29" x="759.424835"/>
    </g>
   </g>
  </g>
  <g id="axes_4">
   <g id="patch_99">
    <path d="M 358.547343 201.473432
L 370.042029 201.473432
L 370.042029 189.978745
L 358.547343 189.978745
z
" clip-path="url(#p1d57df1a0f)" style="fill: #17becf; stroke: #ffffff; stroke-linejoin: miter"/>
   </g>
   <g id="patch_100">
    <path d="M 370.042029 201.473432
L 381.536716 201.473432
L 381.536716 189.978745
L 370.042029 189.978745
z
" clip-path="url(#p1d57df1a0f)" style="fill: #bcbd22; stroke: #ffffff; stroke-linejoin: miter"/>
   </g>
   <g id="patch_101">
    <path d="M 381.536716 201.473432
L 393.031402 201.473432
L 393.031402 189.978745
L 381.536716 189.978745
z
" clip-path="url(#p1d57df1a0f)" style="fill: #7f7f7f; stroke: #ffffff; stroke-linejoin: miter"/>
   </g>
   <g id="patch_102">
    <path d="M 358.547343 138.252657
L 370.042029 138.252657
L 370.042029 126.757971
L 358.547343 126.757971
z
" clip-path="url(#p1d57df1a0f)" style="fill: #e377c2; stroke: #ffffff; stroke-linejoin: miter"/>
   </g>
   <g id="patch_103">
    <path d="M 370.042029 138.252657
L 381.536716 138.252657
L 381.536716 126.757971
L 370.042029 126.757971
z
" clip-path="url(#p1d57df1a0f)" style="fill: #8c564b; stroke: #ffffff; stroke-linejoin: miter"/>
   </g>
   <g id="patch_104">
    <path d="M 381.536716 138.252657
L 393.031402 138.252657
L 393.031402 126.757971
L 381.536716 126.757971
z
" clip-path="url(#p1d57df1a0f)" style="fill: #9467bd; stroke: #ffffff; stroke-linejoin: miter"/>
   </g>
   <g id="patch_105">
    <path d="M 393.031402 138.252657
L 404.526088 138.252657
L 404.526088 126.757971
L 393.031402 126.757971
z
" clip-path="url(#p1d57df1a0f)" style="fill: #d62728; stroke: #ffffff; stroke-linejoin: miter"/>
   </g>
   <g id="patch_106">
    <path d="M 404.526088 138.252657
L 416.020775 138.252657
L 416.020775 126.757971
L 404.526088 126.757971
z
" clip-path="url(#p1d57df1a0f)" style="fill: #2ca02c; stroke: #ffffff; stroke-linejoin: miter"/>
   </g>
   <g id="patch_107">
    <path d="M 416.020775 138.252657
L 427.515461 138.252657
L 427.515461 126.757971
L 416.020775 126.757971
z
" clip-path="url(#p1d57df1a0f)" style="fill: #ff7f0e; stroke: #ffffff; stroke-linejoin: miter"/>
   </g>
   <g id="patch_108">
    <path d="M 358.547343 86.526568
L 370.042029 86.526568
L 370.042029 75.031882
L 358.547343 75.031882
z
" clip-path="url(#p1d57df1a0f)" style="fill: #2ca02c; stroke: #ffffff; stroke-linejoin: miter"/>
   </g>
   <g id="patch_109">
    <path d="M 370.042029 86.526568
L 381.536716 86.526568
L 381.536716 75.031882
L 370.042029 75.031882
z
" clip-path="url(#p1d57df1a0f)" style="fill: #ff7f0e; stroke: #ffffff; stroke-linejoin: miter"/>
   </g>
   <g id="patch_110">
    <path d="M 381.536716 86.526568
L 393.031402 86.526568
L 393.031402 75.031882
L 381.536716 75.031882
z
" clip-path="url(#p1d57df1a0f)" style="fill: #1f77b4; stroke: #ffffff; stroke-linejoin: miter"/>
   </g>
   <g id="text_4">
    <!--    reduce -->
    <g transform="translate(391.76226 31.701916) scale(0.08 -0.08)">
     <use xlink:href="#HelveticaNeue-20"/>
     <use xlink:href="#HelveticaNeue-20" x="27.799988"/>
     <use xlink:href="#HelveticaNeue-20" x="55.599976"/>
     <use xlink:href="#HelveticaNeue-72" x="83.399963"/>
     <use xlink:href="#HelveticaNeue-65" x="114.949951"/>
     <use xlink:href="#HelveticaNeue-64" x="168.649948"/>
     <use xlink:href="#HelveticaNeue-75" x="227.949936"/>
     <use xlink:href="#HelveticaNeue-63" x="283.549927"/>
     <use xlink:href="#HelveticaNeue-65" x="337.249924"/>
    </g>
    <!-- (1 array, 3 blocks) -->
    <g transform="translate(375.986635 40.295166) scale(0.08 -0.08)">
     <use xlink:href="#HelveticaNeue-28"/>
     <use xlink:href="#HelveticaNeue-31" x="25.899994"/>
     <use xlink:href="#HelveticaNeue-20" x="81.499985"/>
     <use xlink:href="#HelveticaNeue-61" x="109.299973"/>
     <use xlink:href="#HelveticaNeue-72" x="162.999969"/>
     <use xlink:href="#HelveticaNeue-72" x="196.299957"/>
     <use xlink:href="#HelveticaNeue-61" x="229.599945"/>
     <use xlink:href="#HelveticaNeue-79" x="283.299942"/>
     <use xlink:href="#HelveticaNeue-2c" x="325.924927"/>
     <use xlink:href="#HelveticaNeue-20" x="353.724915"/>
     <use xlink:href="#HelveticaNeue-33" x="381.524902"/>
     <use xlink:href="#HelveticaNeue-20" x="437.124893"/>
     <use xlink:href="#HelveticaNeue-62" x="464.924881"/>
     <use xlink:href="#HelveticaNeue-6c" x="524.224869"/>
     <use xlink:href="#HelveticaNeue-6f" x="546.424866"/>
     <use xlink:href="#HelveticaNeue-63" x="603.82486"/>
     <use xlink:href="#HelveticaNeue-6b" x="657.524857"/>
     <use xlink:href="#HelveticaNeue-73" x="709.42485"/>
     <use xlink:href="#HelveticaNeue-29" x="759.424835"/>
    </g>
   </g>
  </g>
  <g id="axes_5">
   <g id="patch_111">
    <path d="M 473.747343 138.252657
L 485.242029 138.252657
L 485.242029 126.757971
L 473.747343 126.757971
z
" clip-path="url(#p48e015558a)" style="fill: #17becf; stroke: #ffffff; stroke-linejoin: miter"/>
   </g>
   <g id="patch_112">
    <path d="M 485.242029 138.252657
L 496.736716 138.252657
L 496.736716 126.757971
L 485.242029 126.757971
z
" clip-path="url(#p48e015558a)" style="fill: #bcbd22; stroke: #ffffff; stroke-linejoin: miter"/>
   </g>
   <g id="patch_113">
    <path d="M 496.736716 138.252657
L 508.231402 138.252657
L 508.231402 126.757971
L 496.736716 126.757971
z
" clip-path="url(#p48e015558a)" style="fill: #7f7f7f; stroke: #ffffff; stroke-linejoin: miter"/>
   </g>
   <g id="patch_114">
    <path d="M 508.231402 138.252657
L 519.726088 138.252657
L 519.726088 126.757971
L 508.231402 126.757971
z
" clip-path="url(#p48e015558a)" style="fill: #e377c2; stroke: #ffffff; stroke-linejoin: miter"/>
   </g>
   <g id="patch_115">
    <path d="M 519.726088 138.252657
L 531.220775 138.252657
L 531.220775 126.757971
L 519.726088 126.757971
z
" clip-path="url(#p48e015558a)" style="fill: #8c564b; stroke: #ffffff; stroke-linejoin: miter"/>
   </g>
   <g id="patch_116">
    <path d="M 531.220775 138.252657
L 542.715461 138.252657
L 542.715461 126.757971
L 531.220775 126.757971
z
" clip-path="url(#p48e015558a)" style="fill: #9467bd; stroke: #ffffff; stroke-linejoin: miter"/>
   </g>
   <g id="patch_117">
    <path d="M 542.715461 138.252657
L 554.210147 138.252657
L 554.210147 126.757971
L 542.715461 126.757971
z
" clip-path="url(#p48e015558a)" style="fill: #d62728; stroke: #ffffff; stroke-linejoin: miter"/>
   </g>
   <g id="patch_118">
    <path d="M 554.210147 138.252657
L 565.704834 138.252657
L 565.704834 126.757971
L 554.210147 126.757971
z
" clip-path="url(#p48e015558a)" style="fill: #2ca02c; stroke: #ffffff; stroke-linejoin: miter"/>
   </g>
   <g id="patch_119">
    <path d="M 565.704834 138.252657
L 577.19952 138.252657
L 577.19952 126.757971
L 565.704834 126.757971
z
" clip-path="url(#p48e015558a)" style="fill: #ff7f0e; stroke: #ffffff; stroke-linejoin: miter"/>
   </g>
   <g id="patch_120">
    <path d="M 577.19952 138.252657
L 588.694206 138.252657
L 588.694206 126.757971
L 577.19952 126.757971
z
" clip-path="url(#p48e015558a)" style="fill: #1f77b4; stroke: #ffffff; stroke-linejoin: miter"/>
   </g>
   <g id="text_5">
    <!--    combine/reduce -->
    <g transform="translate(490.14226 31.701916) scale(0.08 -0.08)">
     <defs>
      <path id="HelveticaNeue-6d" d="M 410 3309
L 410 0
L 954 0
L 954 2061
Q 954 2157 1002 2301
Q 1050 2445 1155 2579
Q 1261 2714 1430 2810
Q 1600 2906 1837 2906
Q 2022 2906 2140 2851
Q 2259 2797 2329 2697
Q 2400 2598 2429 2464
Q 2458 2330 2458 2170
L 2458 0
L 3002 0
L 3002 2061
Q 3002 2445 3232 2675
Q 3462 2906 3866 2906
Q 4064 2906 4189 2848
Q 4314 2790 4384 2691
Q 4454 2592 4480 2457
Q 4506 2323 4506 2170
L 4506 0
L 5050 0
L 5050 2426
Q 5050 2682 4970 2864
Q 4890 3046 4746 3161
Q 4602 3277 4400 3331
Q 4198 3386 3949 3386
Q 3622 3386 3350 3238
Q 3078 3091 2912 2822
Q 2810 3130 2560 3258
Q 2310 3386 2003 3386
Q 1306 3386 934 2822
L 922 2822
L 922 3309
L 410 3309
z
" transform="scale(0.015625)"/>
     </defs>
     <use xlink:href="#HelveticaNeue-20"/>
     <use xlink:href="#HelveticaNeue-20" x="27.799988"/>
     <use xlink:href="#HelveticaNeue-20" x="55.599976"/>
     <use xlink:href="#HelveticaNeue-63" x="83.399963"/>
     <use xlink:href="#HelveticaNeue-6f" x="137.09996"/>
     <use xlink:href="#HelveticaNeue-6d" x="194.499954"/>
     <use xlink:href="#HelveticaNeue-62" x="279.799942"/>
     <use xlink:href="#HelveticaNeue-69" x="339.09993"/>
     <use xlink:href="#HelveticaNeue-6e" x="361.299927"/>
     <use xlink:href="#HelveticaNeue-65" x="416.899918"/>
     <use xlink:href="#HelveticaNeue-2f" x="470.599915"/>
     <use xlink:href="#HelveticaNeue-72" x="503.899902"/>
     <use xlink:href="#HelveticaNeue-65" x="535.44989"/>
     <use xlink:href="#HelveticaNeue-64" x="589.149887"/>
     <use xlink:href="#HelveticaNeue-75" x="648.449875"/>
     <use xlink:href="#HelveticaNeue-63" x="704.049866"/>
     <use xlink:href="#HelveticaNeue-65" x="757.749863"/>
    </g>
    <!-- (1 array, 1 block) -->
    <g transform="translate(493.186635 40.295166) scale(0.08 -0.08)">
     <use xlink:href="#HelveticaNeue-28"/>
     <use xlink:href="#HelveticaNeue-31" x="25.899994"/>
     <use xlink:href="#HelveticaNeue-20" x="81.499985"/>
     <use xlink:href="#HelveticaNeue-61" x="109.299973"/>
     <use xlink:href="#HelveticaNeue-72" x="162.999969"/>
     <use xlink:href="#HelveticaNeue-72" x="196.299957"/>
     <use xlink:href="#HelveticaNeue-61" x="229.599945"/>
     <use xlink:href="#HelveticaNeue-79" x="283.299942"/>
     <use xlink:href="#HelveticaNeue-2c" x="325.924927"/>
     <use xlink:href="#HelveticaNeue-20" x="353.724915"/>
     <use xlink:href="#HelveticaNeue-31" x="381.524902"/>
     <use xlink:href="#HelveticaNeue-20" x="437.124893"/>
     <use xlink:href="#HelveticaNeue-62" x="464.924881"/>
     <use xlink:href="#HelveticaNeue-6c" x="524.224869"/>
     <use xlink:href="#HelveticaNeue-6f" x="546.424866"/>
     <use xlink:href="#HelveticaNeue-63" x="603.82486"/>
     <use xlink:href="#HelveticaNeue-6b" x="657.524857"/>
     <use xlink:href="#HelveticaNeue-29" x="709.42485"/>
    </g>
   </g>
  </g>
  <g id="text_6">
   <!-- method='map-reduce', reindex=False -->
   <g transform="translate(169.385385 16.351875) scale(0.12 -0.12)">
    <defs>
     <path id="Menlo-Regular-6d" d="M 2113 3144
Q 2219 3369 2383 3476
Q 2547 3584 2778 3584
Q 3200 3584 3373 3257
Q 3547 2931 3547 2028
L 3547 0
L 3022 0
L 3022 2003
Q 3022 2744 2939 2923
Q 2856 3103 2638 3103
Q 2388 3103 2295 2911
Q 2203 2719 2203 2003
L 2203 0
L 1678 0
L 1678 2003
Q 1678 2753 1589 2928
Q 1500 3103 1269 3103
Q 1041 3103 952 2911
Q 863 2719 863 2003
L 863 0
L 341 0
L 341 3500
L 863 3500
L 863 3200
Q 966 3388 1120 3486
Q 1275 3584 1472 3584
Q 1709 3584 1867 3475
Q 2025 3366 2113 3144
z
" transform="scale(0.015625)"/>
     <path id="Menlo-Regular-65" d="M 3500 2038
L 3500 1756
L 1009 1756
L 1009 1738
Q 984 1022 1282 709
Q 1581 397 2125 397
Q 2400 397 2700 484
Q 3000 572 3341 750
L 3341 178
Q 3013 44 2708 -23
Q 2403 -91 2119 -91
Q 1303 -91 843 398
Q 384 888 384 1747
Q 384 2584 834 3084
Q 1284 3584 2034 3584
Q 2703 3584 3089 3131
Q 3475 2678 3500 2038
z
M 2925 2206
Q 2888 2569 2661 2833
Q 2434 3097 2009 3097
Q 1594 3097 1325 2822
Q 1056 2547 1031 2203
L 2925 2206
z
" transform="scale(0.015625)"/>
     <path id="Menlo-Regular-74" d="M 1919 4494
L 1919 3500
L 3225 3500
L 3225 3053
L 1919 3053
L 1919 1153
Q 1919 766 2066 612
Q 2213 459 2578 459
L 3225 459
L 3225 0
L 2522 0
Q 1875 0 1609 259
Q 1344 519 1344 1153
L 1344 3053
L 409 3053
L 409 3500
L 1344 3500
L 1344 4494
L 1919 4494
z
" transform="scale(0.015625)"/>
     <path id="Menlo-Regular-68" d="M 3284 2169
L 3284 0
L 2706 0
L 2706 2169
Q 2706 2641 2540 2862
Q 2375 3084 2022 3084
Q 1619 3084 1401 2798
Q 1184 2513 1184 1978
L 1184 0
L 609 0
L 609 4863
L 1184 4863
L 1184 2975
Q 1338 3275 1600 3429
Q 1863 3584 2222 3584
Q 2756 3584 3020 3232
Q 3284 2881 3284 2169
z
" transform="scale(0.015625)"/>
     <path id="Menlo-Regular-6f" d="M 1925 3097
Q 1488 3097 1263 2756
Q 1038 2416 1038 1747
Q 1038 1081 1263 739
Q 1488 397 1925 397
Q 2366 397 2591 739
Q 2816 1081 2816 1747
Q 2816 2416 2591 2756
Q 2366 3097 1925 3097
z
M 1925 3584
Q 2653 3584 3039 3112
Q 3425 2641 3425 1747
Q 3425 850 3040 379
Q 2656 -91 1925 -91
Q 1197 -91 812 379
Q 428 850 428 1747
Q 428 2641 812 3112
Q 1197 3584 1925 3584
z
" transform="scale(0.015625)"/>
     <path id="Menlo-Regular-64" d="M 2681 3053
L 2681 4863
L 3256 4863
L 3256 0
L 2681 0
L 2681 441
Q 2538 181 2298 45
Q 2059 -91 1747 -91
Q 1113 -91 748 401
Q 384 894 384 1759
Q 384 2613 750 3098
Q 1116 3584 1747 3584
Q 2063 3584 2303 3448
Q 2544 3313 2681 3053
z
M 991 1747
Q 991 1078 1203 737
Q 1416 397 1831 397
Q 2247 397 2464 740
Q 2681 1084 2681 1747
Q 2681 2413 2464 2755
Q 2247 3097 1831 3097
Q 1416 3097 1203 2756
Q 991 2416 991 1747
z
" transform="scale(0.015625)"/>
     <path id="Menlo-Regular-3d" d="M 275 1563
L 3578 1563
L 3578 1034
L 275 1034
L 275 1563
z
M 275 3034
L 3578 3034
L 3578 2506
L 275 2506
L 275 3034
z
" transform="scale(0.015625)"/>
     <path id="Menlo-Regular-27" d="M 2319 4869
L 2319 2922
L 1619 2922
L 1619 4869
L 2319 4869
z
" transform="scale(0.015625)"/>
     <path id="Menlo-Regular-61" d="M 2194 1759
L 2003 1759
Q 1500 1759 1245 1582
Q 991 1406 991 1056
Q 991 741 1181 566
Q 1372 391 1709 391
Q 2184 391 2456 720
Q 2728 1050 2731 1631
L 2731 1759
L 2194 1759
z
M 3309 1997
L 3309 0
L 2731 0
L 2731 519
Q 2547 206 2267 57
Q 1988 -91 1588 -91
Q 1053 -91 734 211
Q 416 513 416 1019
Q 416 1603 808 1906
Q 1200 2209 1959 2209
L 2731 2209
L 2731 2300
Q 2728 2719 2518 2908
Q 2309 3097 1850 3097
Q 1556 3097 1256 3012
Q 956 2928 672 2766
L 672 3341
Q 991 3463 1283 3523
Q 1575 3584 1850 3584
Q 2284 3584 2592 3456
Q 2900 3328 3091 3072
Q 3209 2916 3259 2686
Q 3309 2456 3309 1997
z
" transform="scale(0.015625)"/>
     <path id="Menlo-Regular-70" d="M 1172 441
L 1172 -1331
L 594 -1331
L 594 3500
L 1172 3500
L 1172 3053
Q 1316 3313 1555 3448
Q 1794 3584 2106 3584
Q 2741 3584 3102 3093
Q 3463 2603 3463 1734
Q 3463 881 3100 395
Q 2738 -91 2106 -91
Q 1788 -91 1548 45
Q 1309 181 1172 441
z
M 2859 1747
Q 2859 2416 2648 2756
Q 2438 3097 2022 3097
Q 1603 3097 1387 2755
Q 1172 2413 1172 1747
Q 1172 1084 1387 740
Q 1603 397 2022 397
Q 2438 397 2648 737
Q 2859 1078 2859 1747
z
" transform="scale(0.015625)"/>
     <path id="Menlo-Regular-2d" d="M 319 2263
L 3631 2263
L 3631 1734
L 319 1734
L 319 2263
z
" transform="scale(0.015625)"/>
     <path id="Menlo-Regular-72" d="M 3609 2778
Q 3425 2922 3234 2987
Q 3044 3053 2816 3053
Q 2278 3053 1993 2715
Q 1709 2378 1709 1741
L 1709 0
L 1131 0
L 1131 3500
L 1709 3500
L 1709 2816
Q 1853 3188 2151 3386
Q 2450 3584 2859 3584
Q 3072 3584 3256 3531
Q 3441 3478 3609 3366
L 3609 2778
z
" transform="scale(0.015625)"/>
     <path id="Menlo-Regular-75" d="M 609 1325
L 609 3494
L 1184 3494
L 1184 1325
Q 1184 853 1351 631
Q 1519 409 1869 409
Q 2275 409 2490 695
Q 2706 981 2706 1516
L 2706 3494
L 3284 3494
L 3284 0
L 2706 0
L 2706 525
Q 2553 222 2289 65
Q 2025 -91 1672 -91
Q 1134 -91 871 261
Q 609 613 609 1325
z
" transform="scale(0.015625)"/>
     <path id="Menlo-Regular-63" d="M 3316 178
Q 3084 44 2839 -23
Q 2594 -91 2338 -91
Q 1525 -91 1067 396
Q 609 884 609 1747
Q 609 2609 1067 3096
Q 1525 3584 2338 3584
Q 2591 3584 2831 3518
Q 3072 3453 3316 3316
L 3316 2713
Q 3088 2916 2858 3006
Q 2628 3097 2338 3097
Q 1797 3097 1506 2747
Q 1216 2397 1216 1747
Q 1216 1100 1508 748
Q 1800 397 2338 397
Q 2638 397 2875 489
Q 3113 581 3316 775
L 3316 178
z
" transform="scale(0.015625)"/>
     <path id="Menlo-Regular-2c" d="M 1381 1128
L 2356 1128
L 2356 300
L 1663 -1047
L 1038 -1050
L 1381 300
L 1381 1128
z
" transform="scale(0.015625)"/>
     <path id="Menlo-Regular-20" transform="scale(0.015625)"/>
     <path id="Menlo-Regular-69" d="M 988 3488
L 2459 3488
L 2459 447
L 3600 447
L 3600 0
L 744 0
L 744 447
L 1884 447
L 1884 3041
L 988 3041
L 988 3488
z
M 1884 4847
L 2459 4847
L 2459 4122
L 1884 4122
L 1884 4847
z
" transform="scale(0.015625)"/>
     <path id="Menlo-Regular-6e" d="M 3284 2169
L 3284 0
L 2706 0
L 2706 2169
Q 2706 2641 2540 2862
Q 2375 3084 2022 3084
Q 1619 3084 1401 2798
Q 1184 2513 1184 1978
L 1184 0
L 609 0
L 609 3500
L 1184 3500
L 1184 2975
Q 1338 3275 1600 3429
Q 1863 3584 2222 3584
Q 2756 3584 3020 3232
Q 3284 2881 3284 2169
z
" transform="scale(0.015625)"/>
     <path id="Menlo-Regular-78" d="M 3494 3500
L 2241 1825
L 3616 0
L 2950 0
L 1925 1403
L 903 0
L 238 0
L 1613 1825
L 359 3500
L 997 3500
L 1925 2234
L 2847 3500
L 3494 3500
z
" transform="scale(0.015625)"/>
     <path id="Menlo-Regular-46" d="M 728 4666
L 3475 4666
L 3475 4134
L 1363 4134
L 1363 2884
L 3278 2884
L 3278 2353
L 1363 2353
L 1363 0
L 728 0
L 728 4666
z
" transform="scale(0.015625)"/>
     <path id="Menlo-Regular-6c" d="M 2247 1266
Q 2247 878 2389 681
Q 2531 484 2809 484
L 3481 484
L 3481 0
L 2753 0
Q 2238 0 1955 329
Q 1672 659 1672 1266
L 1672 4431
L 750 4431
L 750 4881
L 2247 4881
L 2247 1266
z
" transform="scale(0.015625)"/>
     <path id="Menlo-Regular-73" d="M 3041 3378
L 3041 2816
Q 2794 2959 2544 3031
Q 2294 3103 2034 3103
Q 1644 3103 1451 2976
Q 1259 2850 1259 2591
Q 1259 2356 1403 2240
Q 1547 2125 2119 2016
L 2350 1972
Q 2778 1891 2998 1647
Q 3219 1403 3219 1013
Q 3219 494 2850 201
Q 2481 -91 1825 -91
Q 1566 -91 1281 -36
Q 997 19 666 128
L 666 722
Q 988 556 1281 473
Q 1575 391 1838 391
Q 2219 391 2428 545
Q 2638 700 2638 978
Q 2638 1378 1872 1531
L 1847 1538
L 1631 1581
Q 1134 1678 906 1908
Q 678 2138 678 2534
Q 678 3038 1018 3311
Q 1359 3584 1991 3584
Q 2272 3584 2531 3532
Q 2791 3481 3041 3378
z
" transform="scale(0.015625)"/>
    </defs>
    <use xlink:href="#Menlo-Regular-6d"/>
    <use xlink:href="#Menlo-Regular-65" x="60.205078"/>
    <use xlink:href="#Menlo-Regular-74" x="120.410156"/>
    <use xlink:href="#Menlo-Regular-68" x="180.615234"/>
    <use xlink:href="#Menlo-Regular-6f" x="240.820312"/>
    <use xlink:href="#Menlo-Regular-64" x="301.025391"/>
    <use xlink:href="#Menlo-Regular-3d" x="361.230469"/>
    <use xlink:href="#Menlo-Regular-27" x="421.435547"/>
    <use xlink:href="#Menlo-Regular-6d" x="481.640625"/>
    <use xlink:href="#Menlo-Regular-61" x="541.845703"/>
    <use xlink:href="#Menlo-Regular-70" x="602.050781"/>
    <use xlink:href="#Menlo-Regular-2d" x="662.255859"/>
    <use xlink:href="#Menlo-Regular-72" x="722.460938"/>
    <use xlink:href="#Menlo-Regular-65" x="782.666016"/>
    <use xlink:href="#Menlo-Regular-64" x="842.871094"/>
    <use xlink:href="#Menlo-Regular-75" x="903.076172"/>
    <use xlink:href="#Menlo-Regular-63" x="963.28125"/>
    <use xlink:href="#Menlo-Regular-65" x="1023.486328"/>
    <use xlink:href="#Menlo-Regular-27" x="1083.691406"/>
    <use xlink:href="#Menlo-Regular-2c" x="1143.896484"/>
    <use xlink:href="#Menlo-Regular-20" x="1204.101562"/>
    <use xlink:href="#Menlo-Regular-72" x="1264.306641"/>
    <use xlink:href="#Menlo-Regular-65" x="1324.511719"/>
    <use xlink:href="#Menlo-Regular-69" x="1384.716797"/>
    <use xlink:href="#Menlo-Regular-6e" x="1444.921875"/>
    <use xlink:href="#Menlo-Regular-64" x="1505.126953"/>
    <use xlink:href="#Menlo-Regular-65" x="1565.332031"/>
    <use xlink:href="#Menlo-Regular-78" x="1625.537109"/>
    <use xlink:href="#Menlo-Regular-3d" x="1685.742188"/>
    <use xlink:href="#Menlo-Regular-46" x="1745.947266"/>
    <use xlink:href="#Menlo-Regular-61" x="1806.152344"/>
    <use xlink:href="#Menlo-Regular-6c" x="1866.357422"/>
    <use xlink:href="#Menlo-Regular-73" x="1926.5625"/>
    <use xlink:href="#Menlo-Regular-65" x="1986.767578"/>
   </g>
  </g>
 </g>
 <defs>
  <clipPath id="pc12b611f1b">
   <rect x="7.2" y="46.295166" width="109.19952" height="195.409667"/>
  </clipPath>
  <clipPath id="p6330aee02a">
   <rect x="122.4" y="46.295166" width="109.19952" height="195.409667"/>
  </clipPath>
  <clipPath id="p8b56f54fa3">
   <rect x="237.6" y="46.295166" width="109.19952" height="195.409667"/>
  </clipPath>
  <clipPath id="p1d57df1a0f">
   <rect x="352.8" y="46.295166" width="109.19952" height="195.409667"/>
  </clipPath>
  <clipPath id="p48e015558a">
   <rect x="468" y="46.295166" width="109.19952" height="195.409667"/>
  </clipPath>
 </defs>
</svg>
