<?xml version="1.0" encoding="UTF-8" standalone="no"?>
<svg
   width="492.457116pt"
   height="119.39976pt"
   viewBox="0 0 492.457116 119.39976"
   version="1.1"
   id="svg1631"
   sodipodi:docname="new-blockwise-annotated.svg"
   inkscape:version="1.2 (dc2aeda, 2022-05-15)"
   xml:space="preserve"
   xmlns:inkscape="http://www.inkscape.org/namespaces/inkscape"
   xmlns:sodipodi="http://sodipodi.sourceforge.net/DTD/sodipodi-0.dtd"
   xmlns:xlink="http://www.w3.org/1999/xlink"
   xmlns="http://www.w3.org/2000/svg"
   xmlns:svg="http://www.w3.org/2000/svg"
   xmlns:rdf="http://www.w3.org/1999/02/22-rdf-syntax-ns#"
   xmlns:cc="http://creativecommons.org/ns#"
   xmlns:dc="http://purl.org/dc/elements/1.1/"><sodipodi:namedview
     id="namedview1633"
     pagecolor="#ffffff"
     bordercolor="#999999"
     borderopacity="1"
     inkscape:showpageshadow="0"
     inkscape:pageopacity="0"
     inkscape:pagecheckerboard="0"
     inkscape:deskcolor="#d1d1d1"
     inkscape:document-units="pt"
     showgrid="false"
     inkscape:zoom="1.2595005"
     inkscape:cx="275.90303"
     inkscape:cy="143.31078"
     inkscape:window-width="1390"
     inkscape:window-height="1205"
     inkscape:window-x="2240"
     inkscape:window-y="25"
     inkscape:window-maximized="0"
     inkscape:current-layer="layer1" /><metadata
     id="metadata1168"><rdf:RDF><cc:Work><dc:type
           rdf:resource="http://purl.org/dc/dcmitype/StillImage" /><dc:date>2022-11-14T16:09:56.206507</dc:date><dc:format>image/svg+xml</dc:format><dc:creator><cc:Agent><dc:title>Matplotlib v3.6.0, https://matplotlib.org/</dc:title></cc:Agent></dc:creator></cc:Work></rdf:RDF></metadata><defs
     id="defs1172"><marker
       style="overflow:visible"
       id="Arrow5"
       refX="0"
       refY="0"
       orient="auto-start-reverse"
       inkscape:stockid="Arrow5"
       markerWidth="5.166595"
       markerHeight="5.6665726"
       viewBox="0 0 5.166595 5.6665725"
       inkscape:isstock="true"
       inkscape:collect="always"
       preserveAspectRatio="xMidYMid"><path
         transform="scale(0.5)"
         style="fill:context-stroke;fill-rule:evenodd;stroke:context-stroke;stroke-width:1pt"
         d="m 6,0 c -3,1 -7,3 -9,5 0,0 0,-4 2,-5 -2,-1 -2,-5 -2,-5 2,2 6,4 9,5 z"
         id="path8893" /></marker><style
       type="text/css"
       id="style1170">*{stroke-linejoin: round; stroke-linecap: butt}</style><marker
       style="overflow:visible"
       id="Arrow5-0"
       refX="0"
       refY="0"
       orient="auto-start-reverse"
       inkscape:stockid="Arrow5"
       markerWidth="5.166595"
       markerHeight="5.6665726"
       viewBox="0 0 5.166595 5.6665725"
       inkscape:isstock="true"
       inkscape:collect="always"
       preserveAspectRatio="xMidYMid"><path
         transform="scale(0.5)"
         style="fill:context-stroke;fill-rule:evenodd;stroke:context-stroke;stroke-width:1pt"
         d="m 6,0 c -3,1 -7,3 -9,5 0,0 0,-4 2,-5 -2,-1 -2,-5 -2,-5 2,2 6,4 9,5 z"
         id="path8893-2" /></marker><marker
       style="overflow:visible"
       id="Arrow5-8"
       refX="0"
       refY="0"
       orient="auto-start-reverse"
       inkscape:stockid="Arrow5"
       markerWidth="5.166595"
       markerHeight="5.6665726"
       viewBox="0 0 5.166595 5.6665725"
       inkscape:isstock="true"
       inkscape:collect="always"
       preserveAspectRatio="xMidYMid"><path
         transform="scale(0.5)"
         style="fill:context-stroke;fill-rule:evenodd;stroke:context-stroke;stroke-width:1pt"
         d="m 6,0 c -3,1 -7,3 -9,5 0,0 0,-4 2,-5 -2,-1 -2,-5 -2,-5 2,2 6,4 9,5 z"
         id="path8893-3" /></marker><style
       type="text/css"
       id="style36836">*{stroke-linejoin: round; stroke-linecap: butt}</style><path
       id="HelveticaNeue-42"
       d="M 1107 2605 L 1107 4058 L 2323 4058 Q 2522 4058 2698 4035 Q 2874 4013 3008 3936 Q 3142 3859 3219 3718 Q 3296 3578 3296 3334 Q 3296 2970 3069 2787 Q 2842 2605 2323 2605 L 1107 2605 z M 499 4570 L 499 0 L 2707 0 Q 3046 0 3305 112 Q 3565 224 3741 406 Q 3917 589 4006 825 Q 4096 1062 4096 1312 Q 4096 1734 3872 2028 Q 3648 2323 3226 2413 L 3226 2426 Q 3552 2554 3728 2819 Q 3904 3085 3904 3450 Q 3904 3795 3747 4032 Q 3590 4269 3366 4403 Q 3264 4467 3120 4499 Q 2976 4531 2809 4547 Q 2643 4563 2473 4566 Q 2304 4570 2157 4570 L 499 4570 z M 1107 512 L 1107 2093 L 2496 2093 Q 2688 2093 2867 2057 Q 3046 2022 3184 1936 Q 3322 1850 3405 1702 Q 3488 1555 3488 1331 Q 3488 947 3261 729 Q 3034 512 2630 512 L 1107 512 z "
       transform="scale(0.015625)" /><path
       id="HelveticaNeue-65"
       d="M 2707 1971 L 806 1971 Q 819 2163 889 2332 Q 960 2502 1081 2630 Q 1203 2758 1372 2832 Q 1542 2906 1754 2906 Q 1958 2906 2128 2832 Q 2298 2758 2422 2633 Q 2547 2509 2620 2336 Q 2694 2163 2707 1971 z M 3232 1050 L 2694 1050 Q 2624 723 2403 563 Q 2182 403 1837 403 Q 1568 403 1369 492 Q 1171 582 1043 732 Q 915 883 857 1078 Q 800 1274 806 1491 L 3283 1491 Q 3296 1792 3229 2125 Q 3162 2458 2986 2739 Q 2810 3021 2518 3203 Q 2227 3386 1786 3386 Q 1446 3386 1161 3258 Q 877 3130 669 2899 Q 461 2669 345 2355 Q 230 2042 230 1664 Q 243 1286 342 966 Q 442 646 640 416 Q 838 186 1129 58 Q 1421 -70 1818 -70 Q 2381 -70 2752 211 Q 3123 493 3232 1050 z "
       transform="scale(0.015625)" /><path
       id="HelveticaNeue-66"
       d="M 634 2829 L 634 0 L 1178 0 L 1178 2829 L 1818 2829 L 1818 3309 L 1178 3309 L 1178 3770 Q 1178 3987 1286 4064 Q 1395 4141 1594 4141 Q 1664 4141 1747 4131 Q 1830 4122 1901 4096 L 1901 4570 Q 1824 4595 1725 4608 Q 1626 4621 1549 4621 Q 1101 4621 867 4413 Q 634 4205 634 3802 L 634 3309 L 77 3309 L 77 2829 L 634 2829 z "
       transform="scale(0.015625)" /><path
       id="HelveticaNeue-6f"
       d="M 806 1651 Q 806 1952 886 2185 Q 966 2419 1107 2579 Q 1248 2739 1437 2822 Q 1626 2906 1837 2906 Q 2048 2906 2237 2822 Q 2426 2739 2566 2579 Q 2707 2419 2787 2185 Q 2867 1952 2867 1651 Q 2867 1350 2787 1116 Q 2707 883 2566 726 Q 2426 570 2237 486 Q 2048 403 1837 403 Q 1626 403 1437 486 Q 1248 570 1107 726 Q 966 883 886 1116 Q 806 1350 806 1651 z M 230 1651 Q 230 1286 332 972 Q 435 659 640 425 Q 845 192 1145 61 Q 1446 -70 1837 -70 Q 2234 -70 2531 61 Q 2829 192 3033 425 Q 3238 659 3340 972 Q 3443 1286 3443 1651 Q 3443 2016 3340 2333 Q 3238 2650 3033 2883 Q 2829 3117 2531 3251 Q 2234 3386 1837 3386 Q 1446 3386 1145 3251 Q 845 3117 640 2883 Q 435 2650 332 2333 Q 230 2016 230 1651 z "
       transform="scale(0.015625)" /><path
       id="HelveticaNeue-72"
       d="M 390 3309 L 390 0 L 934 0 L 934 1472 Q 934 1792 998 2038 Q 1062 2285 1203 2457 Q 1344 2630 1574 2720 Q 1805 2810 2131 2810 L 2131 3386 Q 1690 3398 1402 3206 Q 1114 3014 915 2611 L 902 2611 L 902 3309 L 390 3309 z "
       transform="scale(0.015625)" /><path
       id="HelveticaNeue-20"
       transform="scale(0.015625)" /><path
       id="HelveticaNeue-63"
       d="M 2656 2246 L 3219 2246 Q 3187 2541 3065 2755 Q 2944 2970 2755 3110 Q 2566 3251 2320 3318 Q 2074 3386 1792 3386 Q 1402 3386 1107 3248 Q 813 3110 617 2870 Q 422 2630 326 2307 Q 230 1984 230 1613 Q 230 1242 329 931 Q 429 621 624 397 Q 819 173 1110 51 Q 1402 -70 1779 -70 Q 2413 -70 2781 262 Q 3149 595 3238 1210 L 2682 1210 Q 2630 826 2403 614 Q 2176 403 1773 403 Q 1517 403 1331 505 Q 1146 608 1030 777 Q 915 947 860 1164 Q 806 1382 806 1613 Q 806 1862 857 2096 Q 909 2330 1027 2509 Q 1146 2688 1344 2797 Q 1542 2906 1837 2906 Q 2182 2906 2387 2733 Q 2592 2560 2656 2246 z "
       transform="scale(0.015625)" /><path
       id="HelveticaNeue-68"
       d="M 410 4570 L 410 0 L 954 0 L 954 1869 Q 954 2093 1014 2281 Q 1075 2470 1196 2611 Q 1318 2752 1500 2829 Q 1683 2906 1933 2906 Q 2246 2906 2425 2726 Q 2605 2547 2605 2240 L 2605 0 L 3149 0 L 3149 2176 Q 3149 2445 3094 2665 Q 3040 2886 2905 3046 Q 2771 3206 2553 3296 Q 2336 3386 2010 3386 Q 1862 3386 1705 3354 Q 1549 3322 1405 3254 Q 1261 3187 1145 3081 Q 1030 2976 966 2822 L 954 2822 L 954 4570 L 410 4570 z "
       transform="scale(0.015625)" /><path
       id="HelveticaNeue-75"
       d="M 3149 0 L 3149 3309 L 2605 3309 L 2605 1440 Q 2605 1216 2544 1027 Q 2483 838 2361 697 Q 2240 557 2057 480 Q 1875 403 1626 403 Q 1312 403 1133 582 Q 954 762 954 1069 L 954 3309 L 410 3309 L 410 1133 Q 410 864 464 643 Q 518 422 652 262 Q 787 102 1004 16 Q 1222 -70 1549 -70 Q 1914 -70 2182 74 Q 2451 218 2624 525 L 2637 525 L 2637 0 L 3149 0 z "
       transform="scale(0.015625)" /><path
       id="HelveticaNeue-6e"
       d="M 410 3309 L 410 0 L 954 0 L 954 1869 Q 954 2093 1014 2281 Q 1075 2470 1196 2611 Q 1318 2752 1500 2829 Q 1683 2906 1933 2906 Q 2246 2906 2425 2726 Q 2605 2547 2605 2240 L 2605 0 L 3149 0 L 3149 2176 Q 3149 2445 3094 2665 Q 3040 2886 2905 3046 Q 2771 3206 2553 3296 Q 2336 3386 2010 3386 Q 1274 3386 934 2784 L 922 2784 L 922 3309 L 410 3309 z "
       transform="scale(0.015625)" /><path
       id="HelveticaNeue-6b"
       d="M 442 4570 L 442 0 L 986 0 L 986 1254 L 1498 1728 L 2630 0 L 3322 0 L 1914 2106 L 3226 3309 L 2496 3309 L 986 1862 L 986 4570 L 442 4570 z "
       transform="scale(0.015625)" /><path
       id="HelveticaNeue-69"
       d="M 986 3904 L 986 4570 L 442 4570 L 442 3904 L 986 3904 z M 442 3309 L 442 0 L 986 0 L 986 3309 L 442 3309 z "
       transform="scale(0.015625)" /><path
       id="HelveticaNeue-67"
       d="M 3264 282 L 3264 3309 L 2752 3309 L 2752 2835 L 2746 2835 Q 2598 3110 2336 3248 Q 2074 3386 1760 3386 Q 1331 3386 1036 3222 Q 742 3059 563 2806 Q 384 2554 307 2243 Q 230 1933 230 1638 Q 230 1299 323 995 Q 416 691 601 464 Q 787 237 1062 102 Q 1338 -32 1709 -32 Q 2029 -32 2313 112 Q 2598 256 2739 563 L 2752 563 L 2752 346 Q 2752 70 2697 -160 Q 2643 -390 2521 -553 Q 2400 -717 2214 -809 Q 2029 -902 1760 -902 Q 1626 -902 1478 -873 Q 1331 -845 1206 -781 Q 1082 -717 995 -614 Q 909 -512 902 -365 L 358 -365 Q 371 -634 499 -819 Q 627 -1005 822 -1120 Q 1018 -1235 1258 -1286 Q 1498 -1338 1728 -1338 Q 2522 -1338 2893 -934 Q 3264 -531 3264 282 z M 1741 442 Q 1472 442 1293 554 Q 1114 666 1005 848 Q 896 1030 851 1254 Q 806 1478 806 1702 Q 806 1939 860 2156 Q 915 2374 1033 2540 Q 1152 2707 1337 2806 Q 1523 2906 1786 2906 Q 2042 2906 2221 2803 Q 2400 2701 2512 2531 Q 2624 2362 2675 2150 Q 2726 1939 2726 1722 Q 2726 1491 2672 1260 Q 2618 1030 2502 848 Q 2387 666 2198 554 Q 2010 442 1741 442 z "
       transform="scale(0.015625)" /><path
       id="HelveticaNeue-41"
       d="M 1286 1888 L 2061 4019 L 2074 4019 L 2835 1888 L 1286 1888 z M 1741 4570 L -38 0 L 582 0 L 1094 1376 L 3027 1376 L 3526 0 L 4198 0 L 2413 4570 L 1741 4570 z "
       transform="scale(0.015625)" /><path
       id="HelveticaNeue-74"
       d="M 1165 3309 L 1165 4301 L 621 4301 L 621 3309 L 58 3309 L 58 2829 L 621 2829 L 621 723 Q 621 493 665 352 Q 710 211 803 134 Q 896 58 1046 29 Q 1197 0 1408 0 L 1824 0 L 1824 480 L 1574 480 Q 1446 480 1366 489 Q 1286 499 1241 531 Q 1197 563 1181 620 Q 1165 678 1165 774 L 1165 2829 L 1824 2829 L 1824 3309 L 1165 3309 z "
       transform="scale(0.015625)" /><path
       id="HelveticaNeue-64"
       d="M 806 1626 Q 806 1869 857 2099 Q 909 2330 1024 2509 Q 1139 2688 1331 2797 Q 1523 2906 1798 2906 Q 2080 2906 2278 2800 Q 2477 2694 2601 2521 Q 2726 2349 2784 2121 Q 2842 1894 2842 1651 Q 2842 1421 2787 1197 Q 2733 973 2611 797 Q 2490 621 2298 512 Q 2106 403 1830 403 Q 1568 403 1373 505 Q 1178 608 1053 781 Q 928 954 867 1174 Q 806 1395 806 1626 z M 3366 0 L 3366 4570 L 2822 4570 L 2822 2867 L 2810 2867 Q 2720 3014 2589 3113 Q 2458 3213 2310 3273 Q 2163 3334 2016 3360 Q 1869 3386 1741 3386 Q 1363 3386 1078 3248 Q 794 3110 605 2876 Q 416 2643 323 2329 Q 230 2016 230 1664 Q 230 1312 326 998 Q 422 685 611 448 Q 800 211 1085 70 Q 1370 -70 1754 -70 Q 2099 -70 2387 51 Q 2675 173 2810 448 L 2822 448 L 2822 0 L 3366 0 z "
       transform="scale(0.015625)" /><path
       id="Menlo-Regular-6d"
       d="M 2113 3144 Q 2219 3369 2383 3476 Q 2547 3584 2778 3584 Q 3200 3584 3373 3257 Q 3547 2931 3547 2028 L 3547 0 L 3022 0 L 3022 2003 Q 3022 2744 2939 2923 Q 2856 3103 2638 3103 Q 2388 3103 2295 2911 Q 2203 2719 2203 2003 L 2203 0 L 1678 0 L 1678 2003 Q 1678 2753 1589 2928 Q 1500 3103 1269 3103 Q 1041 3103 952 2911 Q 863 2719 863 2003 L 863 0 L 341 0 L 341 3500 L 863 3500 L 863 3200 Q 966 3388 1120 3486 Q 1275 3584 1472 3584 Q 1709 3584 1867 3475 Q 2025 3366 2113 3144 z "
       transform="scale(0.015625)" /><path
       id="Menlo-Regular-65"
       d="M 3500 2038 L 3500 1756 L 1009 1756 L 1009 1738 Q 984 1022 1282 709 Q 1581 397 2125 397 Q 2400 397 2700 484 Q 3000 572 3341 750 L 3341 178 Q 3013 44 2708 -23 Q 2403 -91 2119 -91 Q 1303 -91 843 398 Q 384 888 384 1747 Q 384 2584 834 3084 Q 1284 3584 2034 3584 Q 2703 3584 3089 3131 Q 3475 2678 3500 2038 z M 2925 2206 Q 2888 2569 2661 2833 Q 2434 3097 2009 3097 Q 1594 3097 1325 2822 Q 1056 2547 1031 2203 L 2925 2206 z "
       transform="scale(0.015625)" /><path
       id="Menlo-Regular-74"
       d="M 1919 4494 L 1919 3500 L 3225 3500 L 3225 3053 L 1919 3053 L 1919 1153 Q 1919 766 2066 612 Q 2213 459 2578 459 L 3225 459 L 3225 0 L 2522 0 Q 1875 0 1609 259 Q 1344 519 1344 1153 L 1344 3053 L 409 3053 L 409 3500 L 1344 3500 L 1344 4494 L 1919 4494 z "
       transform="scale(0.015625)" /><path
       id="Menlo-Regular-68"
       d="M 3284 2169 L 3284 0 L 2706 0 L 2706 2169 Q 2706 2641 2540 2862 Q 2375 3084 2022 3084 Q 1619 3084 1401 2798 Q 1184 2513 1184 1978 L 1184 0 L 609 0 L 609 4863 L 1184 4863 L 1184 2975 Q 1338 3275 1600 3429 Q 1863 3584 2222 3584 Q 2756 3584 3020 3232 Q 3284 2881 3284 2169 z "
       transform="scale(0.015625)" /><path
       id="Menlo-Regular-6f"
       d="M 1925 3097 Q 1488 3097 1263 2756 Q 1038 2416 1038 1747 Q 1038 1081 1263 739 Q 1488 397 1925 397 Q 2366 397 2591 739 Q 2816 1081 2816 1747 Q 2816 2416 2591 2756 Q 2366 3097 1925 3097 z M 1925 3584 Q 2653 3584 3039 3112 Q 3425 2641 3425 1747 Q 3425 850 3040 379 Q 2656 -91 1925 -91 Q 1197 -91 812 379 Q 428 850 428 1747 Q 428 2641 812 3112 Q 1197 3584 1925 3584 z "
       transform="scale(0.015625)" /><path
       id="Menlo-Regular-64"
       d="M 2681 3053 L 2681 4863 L 3256 4863 L 3256 0 L 2681 0 L 2681 441 Q 2538 181 2298 45 Q 2059 -91 1747 -91 Q 1113 -91 748 401 Q 384 894 384 1759 Q 384 2613 750 3098 Q 1116 3584 1747 3584 Q 2063 3584 2303 3448 Q 2544 3313 2681 3053 z M 991 1747 Q 991 1078 1203 737 Q 1416 397 1831 397 Q 2247 397 2464 740 Q 2681 1084 2681 1747 Q 2681 2413 2464 2755 Q 2247 3097 1831 3097 Q 1416 3097 1203 2756 Q 991 2416 991 1747 z "
       transform="scale(0.015625)" /><path
       id="Menlo-Regular-3d"
       d="M 275 1563 L 3578 1563 L 3578 1034 L 275 1034 L 275 1563 z M 275 3034 L 3578 3034 L 3578 2506 L 275 2506 L 275 3034 z "
       transform="scale(0.015625)" /><path
       id="Menlo-Regular-27"
       d="M 2319 4869 L 2319 2922 L 1619 2922 L 1619 4869 L 2319 4869 z "
       transform="scale(0.015625)" /><path
       id="Menlo-Regular-62"
       d="M 2869 1747 Q 2869 2416 2656 2756 Q 2444 3097 2028 3097 Q 1609 3097 1393 2755 Q 1178 2413 1178 1747 Q 1178 1084 1393 740 Q 1609 397 2028 397 Q 2444 397 2656 737 Q 2869 1078 2869 1747 z M 1178 3053 Q 1316 3309 1558 3446 Q 1800 3584 2119 3584 Q 2750 3584 3112 3098 Q 3475 2613 3475 1759 Q 3475 894 3111 401 Q 2747 -91 2113 -91 Q 1800 -91 1561 45 Q 1322 181 1178 441 L 1178 0 L 603 0 L 603 4863 L 1178 4863 L 1178 3053 z "
       transform="scale(0.015625)" /><path
       id="Menlo-Regular-6c"
       d="M 2247 1266 Q 2247 878 2389 681 Q 2531 484 2809 484 L 3481 484 L 3481 0 L 2753 0 Q 2238 0 1955 329 Q 1672 659 1672 1266 L 1672 4431 L 750 4431 L 750 4881 L 2247 4881 L 2247 1266 z "
       transform="scale(0.015625)" /><path
       id="Menlo-Regular-63"
       d="M 3316 178 Q 3084 44 2839 -23 Q 2594 -91 2338 -91 Q 1525 -91 1067 396 Q 609 884 609 1747 Q 609 2609 1067 3096 Q 1525 3584 2338 3584 Q 2591 3584 2831 3518 Q 3072 3453 3316 3316 L 3316 2713 Q 3088 2916 2858 3006 Q 2628 3097 2338 3097 Q 1797 3097 1506 2747 Q 1216 2397 1216 1747 Q 1216 1100 1508 748 Q 1800 397 2338 397 Q 2638 397 2875 489 Q 3113 581 3316 775 L 3316 178 z "
       transform="scale(0.015625)" /><path
       id="Menlo-Regular-6b"
       d="M 738 4863 L 1331 4863 L 1331 2047 L 2841 3500 L 3541 3500 L 2163 2181 L 3756 0 L 3053 0 L 1759 1806 L 1331 1403 L 1331 0 L 738 0 L 738 4863 z "
       transform="scale(0.015625)" /><path
       id="Menlo-Regular-77"
       d="M 0 3500 L 569 3500 L 1178 672 L 1678 2478 L 2169 2478 L 2675 672 L 3284 3500 L 3853 3500 L 3034 0 L 2484 0 L 1925 1919 L 1369 0 L 819 0 L 0 3500 z "
       transform="scale(0.015625)" /><path
       id="Menlo-Regular-69"
       d="M 988 3488 L 2459 3488 L 2459 447 L 3600 447 L 3600 0 L 744 0 L 744 447 L 1884 447 L 1884 3041 L 988 3041 L 988 3488 z M 1884 4847 L 2459 4847 L 2459 4122 L 1884 4122 L 1884 4847 z "
       transform="scale(0.015625)" /><path
       id="Menlo-Regular-73"
       d="M 3041 3378 L 3041 2816 Q 2794 2959 2544 3031 Q 2294 3103 2034 3103 Q 1644 3103 1451 2976 Q 1259 2850 1259 2591 Q 1259 2356 1403 2240 Q 1547 2125 2119 2016 L 2350 1972 Q 2778 1891 2998 1647 Q 3219 1403 3219 1013 Q 3219 494 2850 201 Q 2481 -91 1825 -91 Q 1566 -91 1281 -36 Q 997 19 666 128 L 666 722 Q 988 556 1281 473 Q 1575 391 1838 391 Q 2219 391 2428 545 Q 2638 700 2638 978 Q 2638 1378 1872 1531 L 1847 1538 L 1631 1581 Q 1134 1678 906 1908 Q 678 2138 678 2534 Q 678 3038 1018 3311 Q 1359 3584 1991 3584 Q 2272 3584 2531 3532 Q 2791 3481 3041 3378 z "
       transform="scale(0.015625)" /><clipPath
       id="pd03e4f10a8-2"><rect
         x="7.2"
         y="21.97649"
         width="478.057116"
         height="18.22327"
         id="rect37286" /></clipPath><clipPath
       id="p23d952a73e-9"><rect
         x="7.2"
         y="57.97649"
         width="478.057116"
         height="18.22327"
         id="rect37289" /></clipPath><clipPath
       id="p43df9c6105-7"><rect
         x="7.2"
         y="93.97649"
         width="478.057116"
         height="18.22327"
         id="rect37292" /></clipPath><style
       type="text/css"
       id="style38538">*{stroke-linejoin: round; stroke-linecap: butt}</style><path
       id="HelveticaNeue-42-8"
       d="M 1107 2605  L 1107 4058  L 2323 4058  Q 2522 4058 2698 4035  Q 2874 4013 3008 3936  Q 3142 3859 3219 3718  Q 3296 3578 3296 3334  Q 3296 2970 3069 2787  Q 2842 2605 2323 2605  L 1107 2605  z M 499 4570  L 499 0  L 2707 0  Q 3046 0 3305 112  Q 3565 224 3741 406  Q 3917 589 4006 825  Q 4096 1062 4096 1312  Q 4096 1734 3872 2028  Q 3648 2323 3226 2413  L 3226 2426  Q 3552 2554 3728 2819  Q 3904 3085 3904 3450  Q 3904 3795 3747 4032  Q 3590 4269 3366 4403  Q 3264 4467 3120 4499  Q 2976 4531 2809 4547  Q 2643 4563 2473 4566  Q 2304 4570 2157 4570  L 499 4570  z M 1107 512  L 1107 2093  L 2496 2093  Q 2688 2093 2867 2057  Q 3046 2022 3184 1936  Q 3322 1850 3405 1702  Q 3488 1555 3488 1331  Q 3488 947 3261 729  Q 3034 512 2630 512  L 1107 512  z "
       transform="scale(0.015625)" /><path
       id="HelveticaNeue-65-5"
       d="M 2707 1971  L 806 1971  Q 819 2163 889 2332  Q 960 2502 1081 2630  Q 1203 2758 1372 2832  Q 1542 2906 1754 2906  Q 1958 2906 2128 2832  Q 2298 2758 2422 2633  Q 2547 2509 2620 2336  Q 2694 2163 2707 1971  z M 3232 1050  L 2694 1050  Q 2624 723 2403 563  Q 2182 403 1837 403  Q 1568 403 1369 492  Q 1171 582 1043 732  Q 915 883 857 1078  Q 800 1274 806 1491  L 3283 1491  Q 3296 1792 3229 2125  Q 3162 2458 2986 2739  Q 2810 3021 2518 3203  Q 2227 3386 1786 3386  Q 1446 3386 1161 3258  Q 877 3130 669 2899  Q 461 2669 345 2355  Q 230 2042 230 1664  Q 243 1286 342 966  Q 442 646 640 416  Q 838 186 1129 58  Q 1421 -70 1818 -70  Q 2381 -70 2752 211  Q 3123 493 3232 1050  z "
       transform="scale(0.015625)" /><path
       id="HelveticaNeue-66-5"
       d="M 634 2829  L 634 0  L 1178 0  L 1178 2829  L 1818 2829  L 1818 3309  L 1178 3309  L 1178 3770  Q 1178 3987 1286 4064  Q 1395 4141 1594 4141  Q 1664 4141 1747 4131  Q 1830 4122 1901 4096  L 1901 4570  Q 1824 4595 1725 4608  Q 1626 4621 1549 4621  Q 1101 4621 867 4413  Q 634 4205 634 3802  L 634 3309  L 77 3309  L 77 2829  L 634 2829  z "
       transform="scale(0.015625)" /><path
       id="HelveticaNeue-6f-5"
       d="M 806 1651  Q 806 1952 886 2185  Q 966 2419 1107 2579  Q 1248 2739 1437 2822  Q 1626 2906 1837 2906  Q 2048 2906 2237 2822  Q 2426 2739 2566 2579  Q 2707 2419 2787 2185  Q 2867 1952 2867 1651  Q 2867 1350 2787 1116  Q 2707 883 2566 726  Q 2426 570 2237 486  Q 2048 403 1837 403  Q 1626 403 1437 486  Q 1248 570 1107 726  Q 966 883 886 1116  Q 806 1350 806 1651  z M 230 1651  Q 230 1286 332 972  Q 435 659 640 425  Q 845 192 1145 61  Q 1446 -70 1837 -70  Q 2234 -70 2531 61  Q 2829 192 3033 425  Q 3238 659 3340 972  Q 3443 1286 3443 1651  Q 3443 2016 3340 2333  Q 3238 2650 3033 2883  Q 2829 3117 2531 3251  Q 2234 3386 1837 3386  Q 1446 3386 1145 3251  Q 845 3117 640 2883  Q 435 2650 332 2333  Q 230 2016 230 1651  z "
       transform="scale(0.015625)" /><path
       id="HelveticaNeue-72-4"
       d="M 390 3309  L 390 0  L 934 0  L 934 1472  Q 934 1792 998 2038  Q 1062 2285 1203 2457  Q 1344 2630 1574 2720  Q 1805 2810 2131 2810  L 2131 3386  Q 1690 3398 1402 3206  Q 1114 3014 915 2611  L 902 2611  L 902 3309  L 390 3309  z "
       transform="scale(0.015625)" /><path
       id="HelveticaNeue-20-2"
       transform="scale(0.015625)" /><path
       id="HelveticaNeue-63-1"
       d="M 2656 2246  L 3219 2246  Q 3187 2541 3065 2755  Q 2944 2970 2755 3110  Q 2566 3251 2320 3318  Q 2074 3386 1792 3386  Q 1402 3386 1107 3248  Q 813 3110 617 2870  Q 422 2630 326 2307  Q 230 1984 230 1613  Q 230 1242 329 931  Q 429 621 624 397  Q 819 173 1110 51  Q 1402 -70 1779 -70  Q 2413 -70 2781 262  Q 3149 595 3238 1210  L 2682 1210  Q 2630 826 2403 614  Q 2176 403 1773 403  Q 1517 403 1331 505  Q 1146 608 1030 777  Q 915 947 860 1164  Q 806 1382 806 1613  Q 806 1862 857 2096  Q 909 2330 1027 2509  Q 1146 2688 1344 2797  Q 1542 2906 1837 2906  Q 2182 2906 2387 2733  Q 2592 2560 2656 2246  z "
       transform="scale(0.015625)" /><path
       id="HelveticaNeue-68-9"
       d="M 410 4570  L 410 0  L 954 0  L 954 1869  Q 954 2093 1014 2281  Q 1075 2470 1196 2611  Q 1318 2752 1500 2829  Q 1683 2906 1933 2906  Q 2246 2906 2425 2726  Q 2605 2547 2605 2240  L 2605 0  L 3149 0  L 3149 2176  Q 3149 2445 3094 2665  Q 3040 2886 2905 3046  Q 2771 3206 2553 3296  Q 2336 3386 2010 3386  Q 1862 3386 1705 3354  Q 1549 3322 1405 3254  Q 1261 3187 1145 3081  Q 1030 2976 966 2822  L 954 2822  L 954 4570  L 410 4570  z "
       transform="scale(0.015625)" /><path
       id="HelveticaNeue-75-2"
       d="M 3149 0  L 3149 3309  L 2605 3309  L 2605 1440  Q 2605 1216 2544 1027  Q 2483 838 2361 697  Q 2240 557 2057 480  Q 1875 403 1626 403  Q 1312 403 1133 582  Q 954 762 954 1069  L 954 3309  L 410 3309  L 410 1133  Q 410 864 464 643  Q 518 422 652 262  Q 787 102 1004 16  Q 1222 -70 1549 -70  Q 1914 -70 2182 74  Q 2451 218 2624 525  L 2637 525  L 2637 0  L 3149 0  z "
       transform="scale(0.015625)" /><path
       id="HelveticaNeue-6e-4"
       d="M 410 3309  L 410 0  L 954 0  L 954 1869  Q 954 2093 1014 2281  Q 1075 2470 1196 2611  Q 1318 2752 1500 2829  Q 1683 2906 1933 2906  Q 2246 2906 2425 2726  Q 2605 2547 2605 2240  L 2605 0  L 3149 0  L 3149 2176  Q 3149 2445 3094 2665  Q 3040 2886 2905 3046  Q 2771 3206 2553 3296  Q 2336 3386 2010 3386  Q 1274 3386 934 2784  L 922 2784  L 922 3309  L 410 3309  z "
       transform="scale(0.015625)" /><path
       id="HelveticaNeue-6b-5"
       d="M 442 4570  L 442 0  L 986 0  L 986 1254  L 1498 1728  L 2630 0  L 3322 0  L 1914 2106  L 3226 3309  L 2496 3309  L 986 1862  L 986 4570  L 442 4570  z "
       transform="scale(0.015625)" /><path
       id="HelveticaNeue-69-8"
       d="M 986 3904  L 986 4570  L 442 4570  L 442 3904  L 986 3904  z M 442 3309  L 442 0  L 986 0  L 986 3309  L 442 3309  z "
       transform="scale(0.015625)" /><path
       id="HelveticaNeue-67-6"
       d="M 3264 282  L 3264 3309  L 2752 3309  L 2752 2835  L 2746 2835  Q 2598 3110 2336 3248  Q 2074 3386 1760 3386  Q 1331 3386 1036 3222  Q 742 3059 563 2806  Q 384 2554 307 2243  Q 230 1933 230 1638  Q 230 1299 323 995  Q 416 691 601 464  Q 787 237 1062 102  Q 1338 -32 1709 -32  Q 2029 -32 2313 112  Q 2598 256 2739 563  L 2752 563  L 2752 346  Q 2752 70 2697 -160  Q 2643 -390 2521 -553  Q 2400 -717 2214 -809  Q 2029 -902 1760 -902  Q 1626 -902 1478 -873  Q 1331 -845 1206 -781  Q 1082 -717 995 -614  Q 909 -512 902 -365  L 358 -365  Q 371 -634 499 -819  Q 627 -1005 822 -1120  Q 1018 -1235 1258 -1286  Q 1498 -1338 1728 -1338  Q 2522 -1338 2893 -934  Q 3264 -531 3264 282  z M 1741 442  Q 1472 442 1293 554  Q 1114 666 1005 848  Q 896 1030 851 1254  Q 806 1478 806 1702  Q 806 1939 860 2156  Q 915 2374 1033 2540  Q 1152 2707 1337 2806  Q 1523 2906 1786 2906  Q 2042 2906 2221 2803  Q 2400 2701 2512 2531  Q 2624 2362 2675 2150  Q 2726 1939 2726 1722  Q 2726 1491 2672 1260  Q 2618 1030 2502 848  Q 2387 666 2198 554  Q 2010 442 1741 442  z "
       transform="scale(0.015625)" /><path
       id="HelveticaNeue-41-2"
       d="M 1286 1888  L 2061 4019  L 2074 4019  L 2835 1888  L 1286 1888  z M 1741 4570  L -38 0  L 582 0  L 1094 1376  L 3027 1376  L 3526 0  L 4198 0  L 2413 4570  L 1741 4570  z "
       transform="scale(0.015625)" /><path
       id="HelveticaNeue-74-5"
       d="M 1165 3309  L 1165 4301  L 621 4301  L 621 3309  L 58 3309  L 58 2829  L 621 2829  L 621 723  Q 621 493 665 352  Q 710 211 803 134  Q 896 58 1046 29  Q 1197 0 1408 0  L 1824 0  L 1824 480  L 1574 480  Q 1446 480 1366 489  Q 1286 499 1241 531  Q 1197 563 1181 620  Q 1165 678 1165 774  L 1165 2829  L 1824 2829  L 1824 3309  L 1165 3309  z "
       transform="scale(0.015625)" /><path
       id="HelveticaNeue-64-1"
       d="M 806 1626  Q 806 1869 857 2099  Q 909 2330 1024 2509  Q 1139 2688 1331 2797  Q 1523 2906 1798 2906  Q 2080 2906 2278 2800  Q 2477 2694 2601 2521  Q 2726 2349 2784 2121  Q 2842 1894 2842 1651  Q 2842 1421 2787 1197  Q 2733 973 2611 797  Q 2490 621 2298 512  Q 2106 403 1830 403  Q 1568 403 1373 505  Q 1178 608 1053 781  Q 928 954 867 1174  Q 806 1395 806 1626  z M 3366 0  L 3366 4570  L 2822 4570  L 2822 2867  L 2810 2867  Q 2720 3014 2589 3113  Q 2458 3213 2310 3273  Q 2163 3334 2016 3360  Q 1869 3386 1741 3386  Q 1363 3386 1078 3248  Q 794 3110 605 2876  Q 416 2643 323 2329  Q 230 2016 230 1664  Q 230 1312 326 998  Q 422 685 611 448  Q 800 211 1085 70  Q 1370 -70 1754 -70  Q 2099 -70 2387 51  Q 2675 173 2810 448  L 2822 448  L 2822 0  L 3366 0  z "
       transform="scale(0.015625)" /><path
       id="Menlo-Regular-6d-3"
       d="M 2113 3144  Q 2219 3369 2383 3476  Q 2547 3584 2778 3584  Q 3200 3584 3373 3257  Q 3547 2931 3547 2028  L 3547 0  L 3022 0  L 3022 2003  Q 3022 2744 2939 2923  Q 2856 3103 2638 3103  Q 2388 3103 2295 2911  Q 2203 2719 2203 2003  L 2203 0  L 1678 0  L 1678 2003  Q 1678 2753 1589 2928  Q 1500 3103 1269 3103  Q 1041 3103 952 2911  Q 863 2719 863 2003  L 863 0  L 341 0  L 341 3500  L 863 3500  L 863 3200  Q 966 3388 1120 3486  Q 1275 3584 1472 3584  Q 1709 3584 1867 3475  Q 2025 3366 2113 3144  z "
       transform="scale(0.015625)" /><path
       id="Menlo-Regular-65-9"
       d="M 3500 2038  L 3500 1756  L 1009 1756  L 1009 1738  Q 984 1022 1282 709  Q 1581 397 2125 397  Q 2400 397 2700 484  Q 3000 572 3341 750  L 3341 178  Q 3013 44 2708 -23  Q 2403 -91 2119 -91  Q 1303 -91 843 398  Q 384 888 384 1747  Q 384 2584 834 3084  Q 1284 3584 2034 3584  Q 2703 3584 3089 3131  Q 3475 2678 3500 2038  z M 2925 2206  Q 2888 2569 2661 2833  Q 2434 3097 2009 3097  Q 1594 3097 1325 2822  Q 1056 2547 1031 2203  L 2925 2206  z "
       transform="scale(0.015625)" /><path
       id="Menlo-Regular-74-7"
       d="M 1919 4494  L 1919 3500  L 3225 3500  L 3225 3053  L 1919 3053  L 1919 1153  Q 1919 766 2066 612  Q 2213 459 2578 459  L 3225 459  L 3225 0  L 2522 0  Q 1875 0 1609 259  Q 1344 519 1344 1153  L 1344 3053  L 409 3053  L 409 3500  L 1344 3500  L 1344 4494  L 1919 4494  z "
       transform="scale(0.015625)" /><path
       id="Menlo-Regular-68-3"
       d="M 3284 2169  L 3284 0  L 2706 0  L 2706 2169  Q 2706 2641 2540 2862  Q 2375 3084 2022 3084  Q 1619 3084 1401 2798  Q 1184 2513 1184 1978  L 1184 0  L 609 0  L 609 4863  L 1184 4863  L 1184 2975  Q 1338 3275 1600 3429  Q 1863 3584 2222 3584  Q 2756 3584 3020 3232  Q 3284 2881 3284 2169  z "
       transform="scale(0.015625)" /><path
       id="Menlo-Regular-6f-7"
       d="M 1925 3097  Q 1488 3097 1263 2756  Q 1038 2416 1038 1747  Q 1038 1081 1263 739  Q 1488 397 1925 397  Q 2366 397 2591 739  Q 2816 1081 2816 1747  Q 2816 2416 2591 2756  Q 2366 3097 1925 3097  z M 1925 3584  Q 2653 3584 3039 3112  Q 3425 2641 3425 1747  Q 3425 850 3040 379  Q 2656 -91 1925 -91  Q 1197 -91 812 379  Q 428 850 428 1747  Q 428 2641 812 3112  Q 1197 3584 1925 3584  z "
       transform="scale(0.015625)" /><path
       id="Menlo-Regular-64-5"
       d="M 2681 3053  L 2681 4863  L 3256 4863  L 3256 0  L 2681 0  L 2681 441  Q 2538 181 2298 45  Q 2059 -91 1747 -91  Q 1113 -91 748 401  Q 384 894 384 1759  Q 384 2613 750 3098  Q 1116 3584 1747 3584  Q 2063 3584 2303 3448  Q 2544 3313 2681 3053  z M 991 1747  Q 991 1078 1203 737  Q 1416 397 1831 397  Q 2247 397 2464 740  Q 2681 1084 2681 1747  Q 2681 2413 2464 2755  Q 2247 3097 1831 3097  Q 1416 3097 1203 2756  Q 991 2416 991 1747  z "
       transform="scale(0.015625)" /><path
       id="Menlo-Regular-3d-0"
       d="M 275 1563  L 3578 1563  L 3578 1034  L 275 1034  L 275 1563  z M 275 3034  L 3578 3034  L 3578 2506  L 275 2506  L 275 3034  z "
       transform="scale(0.015625)" /><path
       id="Menlo-Regular-27-2"
       d="M 2319 4869  L 2319 2922  L 1619 2922  L 1619 4869  L 2319 4869  z "
       transform="scale(0.015625)" /><path
       id="Menlo-Regular-62-1"
       d="M 2869 1747  Q 2869 2416 2656 2756  Q 2444 3097 2028 3097  Q 1609 3097 1393 2755  Q 1178 2413 1178 1747  Q 1178 1084 1393 740  Q 1609 397 2028 397  Q 2444 397 2656 737  Q 2869 1078 2869 1747  z M 1178 3053  Q 1316 3309 1558 3446  Q 1800 3584 2119 3584  Q 2750 3584 3112 3098  Q 3475 2613 3475 1759  Q 3475 894 3111 401  Q 2747 -91 2113 -91  Q 1800 -91 1561 45  Q 1322 181 1178 441  L 1178 0  L 603 0  L 603 4863  L 1178 4863  L 1178 3053  z "
       transform="scale(0.015625)" /><path
       id="Menlo-Regular-6c-8"
       d="M 2247 1266  Q 2247 878 2389 681  Q 2531 484 2809 484  L 3481 484  L 3481 0  L 2753 0  Q 2238 0 1955 329  Q 1672 659 1672 1266  L 1672 4431  L 750 4431  L 750 4881  L 2247 4881  L 2247 1266  z "
       transform="scale(0.015625)" /><path
       id="Menlo-Regular-63-7"
       d="M 3316 178  Q 3084 44 2839 -23  Q 2594 -91 2338 -91  Q 1525 -91 1067 396  Q 609 884 609 1747  Q 609 2609 1067 3096  Q 1525 3584 2338 3584  Q 2591 3584 2831 3518  Q 3072 3453 3316 3316  L 3316 2713  Q 3088 2916 2858 3006  Q 2628 3097 2338 3097  Q 1797 3097 1506 2747  Q 1216 2397 1216 1747  Q 1216 1100 1508 748  Q 1800 397 2338 397  Q 2638 397 2875 489  Q 3113 581 3316 775  L 3316 178  z "
       transform="scale(0.015625)" /><path
       id="Menlo-Regular-6b-1"
       d="M 738 4863  L 1331 4863  L 1331 2047  L 2841 3500  L 3541 3500  L 2163 2181  L 3756 0  L 3053 0  L 1759 1806  L 1331 1403  L 1331 0  L 738 0  L 738 4863  z "
       transform="scale(0.015625)" /><path
       id="Menlo-Regular-77-5"
       d="M 0 3500  L 569 3500  L 1178 672  L 1678 2478  L 2169 2478  L 2675 672  L 3284 3500  L 3853 3500  L 3034 0  L 2484 0  L 1925 1919  L 1369 0  L 819 0  L 0 3500  z "
       transform="scale(0.015625)" /><path
       id="Menlo-Regular-69-5"
       d="M 988 3488  L 2459 3488  L 2459 447  L 3600 447  L 3600 0  L 744 0  L 744 447  L 1884 447  L 1884 3041  L 988 3041  L 988 3488  z M 1884 4847  L 2459 4847  L 2459 4122  L 1884 4122  L 1884 4847  z "
       transform="scale(0.015625)" /><path
       id="Menlo-Regular-73-8"
       d="M 3041 3378  L 3041 2816  Q 2794 2959 2544 3031  Q 2294 3103 2034 3103  Q 1644 3103 1451 2976  Q 1259 2850 1259 2591  Q 1259 2356 1403 2240  Q 1547 2125 2119 2016  L 2350 1972  Q 2778 1891 2998 1647  Q 3219 1403 3219 1013  Q 3219 494 2850 201  Q 2481 -91 1825 -91  Q 1566 -91 1281 -36  Q 997 19 666 128  L 666 722  Q 988 556 1281 473  Q 1575 391 1838 391  Q 2219 391 2428 545  Q 2638 700 2638 978  Q 2638 1378 1872 1531  L 1847 1538  L 1631 1581  Q 1134 1678 906 1908  Q 678 2138 678 2534  Q 678 3038 1018 3311  Q 1359 3584 1991 3584  Q 2272 3584 2531 3532  Q 2791 3481 3041 3378  z "
       transform="scale(0.015625)" /><clipPath
       id="p8ac299cc76"><rect
         x="7.2"
         y="21.97649"
         width="478.057116"
         height="18.22327"
         id="rect38988" /></clipPath><clipPath
       id="pbcd27ea80b"><rect
         x="7.2"
         y="57.97649"
         width="478.057116"
         height="18.22327"
         id="rect38991" /></clipPath><clipPath
       id="pb7de37a75f"><rect
         x="7.2"
         y="93.97649"
         width="478.057116"
         height="18.22327"
         id="rect38994" /></clipPath><marker
       style="overflow:visible"
       id="Arrow5-5"
       refX="0"
       refY="0"
       orient="auto-start-reverse"
       inkscape:stockid="Arrow5"
       markerWidth="5.166595"
       markerHeight="5.6665726"
       viewBox="0 0 5.166595 5.6665725"
       inkscape:isstock="true"
       inkscape:collect="always"
       preserveAspectRatio="xMidYMid"><path
         transform="scale(0.5)"
         style="fill:context-stroke;fill-rule:evenodd;stroke:context-stroke;stroke-width:1pt"
         d="m 6,0 c -3,1 -7,3 -9,5 0,0 0,-4 2,-5 -2,-1 -2,-5 -2,-5 2,2 6,4 9,5 z"
         id="path8893-6" /></marker><marker
       style="overflow:visible"
       id="Arrow5-9"
       refX="0"
       refY="0"
       orient="auto-start-reverse"
       inkscape:stockid="Arrow5"
       markerWidth="5.166595"
       markerHeight="5.6665726"
       viewBox="0 0 5.166595 5.6665725"
       inkscape:isstock="true"
       inkscape:collect="always"
       preserveAspectRatio="xMidYMid"><path
         transform="scale(0.5)"
         style="fill:context-stroke;fill-rule:evenodd;stroke:context-stroke;stroke-width:1pt"
         d="m 6,0 c -3,1 -7,3 -9,5 0,0 0,-4 2,-5 -2,-1 -2,-5 -2,-5 2,2 6,4 9,5 z"
         id="path8893-4" /></marker><marker
       style="overflow:visible"
       id="Arrow5-6"
       refX="0"
       refY="0"
       orient="auto-start-reverse"
       inkscape:stockid="Arrow5"
       markerWidth="5.166595"
       markerHeight="5.6665726"
       viewBox="0 0 5.166595 5.6665725"
       inkscape:isstock="true"
       inkscape:collect="always"
       preserveAspectRatio="xMidYMid"><path
         transform="scale(0.5)"
         style="fill:context-stroke;fill-rule:evenodd;stroke:context-stroke;stroke-width:1pt"
         d="m 6,0 c -3,1 -7,3 -9,5 0,0 0,-4 2,-5 -2,-1 -2,-5 -2,-5 2,2 6,4 9,5 z"
         id="path8893-1" /></marker><marker
       style="overflow:visible"
       id="Arrow5-04"
       refX="0"
       refY="0"
       orient="auto-start-reverse"
       inkscape:stockid="Arrow5"
       markerWidth="5.166595"
       markerHeight="5.6665726"
       viewBox="0 0 5.166595 5.6665725"
       inkscape:isstock="true"
       inkscape:collect="always"
       preserveAspectRatio="xMidYMid"><path
         transform="scale(0.5)"
         style="fill:context-stroke;fill-rule:evenodd;stroke:context-stroke;stroke-width:1pt"
         d="m 6,0 c -3,1 -7,3 -9,5 0,0 0,-4 2,-5 -2,-1 -2,-5 -2,-5 2,2 6,4 9,5 z"
         id="path8893-45" /></marker></defs><defs
     id="defs1629"><clipPath
       id="pd03e4f10a8"><rect
         x="7.2"
         y="21.97649"
         width="478.057116"
         height="18.22327"
         id="rect1620" /></clipPath><clipPath
       id="p23d952a73e"><rect
         x="7.2"
         y="57.97649"
         width="478.057116"
         height="18.22327"
         id="rect1623" /></clipPath><clipPath
       id="p43df9c6105"><rect
         x="7.2"
         y="93.97649"
         width="478.057116"
         height="18.22327"
         id="rect1626" /></clipPath></defs><g
     id="figure_1"
     transform="translate(-0.29773261,0.4430103)"><g
       id="patch_1"><path
         d="M 0,119.39976 H 492.45712 V 0 H 0 Z"
         style="fill:none"
         id="path38542" /></g><g
       id="axes_1"><g
         id="patch_2"><path
           d="M 7.2,31.088125 H 19.348847 V 18.939278 H 7.2 Z"
           clip-path="url(#p8ac299cc76)"
           style="fill:#1f77b4;stroke:#ffffff;stroke-linejoin:miter"
           id="path38545" /></g><g
         id="patch_3"><path
           d="M 19.348847,31.088125 H 31.497693 V 18.939278 H 19.348847 Z"
           clip-path="url(#p8ac299cc76)"
           style="fill:#1f77b4;stroke:#ffffff;stroke-linejoin:miter"
           id="path38548" /></g><g
         id="patch_4"><path
           d="M 31.497693,31.088125 H 43.64654 V 18.939278 H 31.497693 Z"
           clip-path="url(#p8ac299cc76)"
           style="fill:#1f77b4;stroke:#ffffff;stroke-linejoin:miter"
           id="path38551" /></g><g
         id="patch_5"><path
           d="M 43.64654,31.088125 H 55.795387 V 18.939278 H 43.64654 Z"
           clip-path="url(#p8ac299cc76)"
           style="fill:#1f77b4;stroke:#ffffff;stroke-linejoin:miter"
           id="path38554" /></g><g
         id="patch_6"><path
           d="M 55.795387,31.088125 H 67.944233 V 18.939278 H 55.795387 Z"
           clip-path="url(#p8ac299cc76)"
           style="fill:#aec7e8;stroke:#ffffff;stroke-linejoin:miter"
           id="path38557" /></g><g
         id="patch_7"><path
           d="M 67.944233,31.088125 H 80.09308 V 18.939278 H 67.944233 Z"
           clip-path="url(#p8ac299cc76)"
           style="fill:#aec7e8;stroke:#ffffff;stroke-linejoin:miter"
           id="path38560" /></g><g
         id="patch_8"><path
           d="M 80.09308,31.088125 H 92.241927 V 18.939278 H 80.09308 Z"
           clip-path="url(#p8ac299cc76)"
           style="fill:#aec7e8;stroke:#ffffff;stroke-linejoin:miter"
           id="path38563" /></g><g
         id="patch_9"><path
           d="M 92.241927,31.088125 H 104.39077 V 18.939278 H 92.241927 Z"
           clip-path="url(#p8ac299cc76)"
           style="fill:#aec7e8;stroke:#ffffff;stroke-linejoin:miter"
           id="path38566" /></g><g
         id="patch_10"><path
           d="m 104.39077,31.088125 h 12.14885 V 18.939278 h -12.14885 z"
           clip-path="url(#p8ac299cc76)"
           style="fill:#ff7f0e;stroke:#ffffff;stroke-linejoin:miter"
           id="path38569" /></g><g
         id="patch_11"><path
           d="m 116.53962,31.088125 h 12.14885 V 18.939278 h -12.14885 z"
           clip-path="url(#p8ac299cc76)"
           style="fill:#ffffff;stroke:#ffffff;stroke-linejoin:miter"
           id="path38572" /></g><g
         id="patch_12"><path
           d="m 132.94056,31.088125 h 12.14885 V 18.939278 h -12.14885 z"
           clip-path="url(#p8ac299cc76)"
           style="fill:#ff7f0e;stroke:#ffffff;stroke-linejoin:miter"
           id="path38575" /></g><g
         id="patch_13"><path
           d="m 145.08941,31.088125 h 12.14885 V 18.939278 h -12.14885 z"
           clip-path="url(#p8ac299cc76)"
           style="fill:#ff7f0e;stroke:#ffffff;stroke-linejoin:miter"
           id="path38578" /></g><g
         id="patch_14"><path
           d="M 157.23826,31.088125 H 169.3871 V 18.939278 h -12.14884 z"
           clip-path="url(#p8ac299cc76)"
           style="fill:#ff7f0e;stroke:#ffffff;stroke-linejoin:miter"
           id="path38581" /></g><g
         id="patch_15"><path
           d="m 169.3871,31.088125 h 12.14885 V 18.939278 H 169.3871 Z"
           clip-path="url(#p8ac299cc76)"
           style="fill:#ffbb78;stroke:#ffffff;stroke-linejoin:miter"
           id="path38584" /></g><g
         id="patch_16"><path
           d="M 181.53595,31.088125 H 193.6848 V 18.939278 h -12.14885 z"
           clip-path="url(#p8ac299cc76)"
           style="fill:#ffbb78;stroke:#ffffff;stroke-linejoin:miter"
           id="path38587" /></g><g
         id="patch_17"><path
           d="m 193.6848,31.088125 h 12.14884 V 18.939278 H 193.6848 Z"
           clip-path="url(#p8ac299cc76)"
           style="fill:#ffbb78;stroke:#ffffff;stroke-linejoin:miter"
           id="path38590" /></g><g
         id="patch_18"><path
           d="m 205.83364,31.088125 h 12.14885 V 18.939278 h -12.14885 z"
           clip-path="url(#p8ac299cc76)"
           style="fill:#ffbb78;stroke:#ffffff;stroke-linejoin:miter"
           id="path38593" /></g><g
         id="patch_19"><path
           d="m 217.98249,31.088125 h 12.14885 V 18.939278 h -12.14885 z"
           clip-path="url(#p8ac299cc76)"
           style="fill:#2ca02c;stroke:#ffffff;stroke-linejoin:miter"
           id="path38596" /></g><g
         id="patch_20"><path
           d="m 230.13134,31.088125 h 12.14884 V 18.939278 h -12.14884 z"
           clip-path="url(#p8ac299cc76)"
           style="fill:#2ca02c;stroke:#ffffff;stroke-linejoin:miter"
           id="path38599" /></g><g
         id="patch_21"><path
           d="m 242.28018,31.088125 h 12.14885 V 18.939278 h -12.14885 z"
           clip-path="url(#p8ac299cc76)"
           style="fill:#ffffff;stroke:#ffffff;stroke-linejoin:miter"
           id="path38602" /></g><g
         id="patch_22"><path
           d="m 258.68113,31.088125 h 12.14884 V 18.939278 h -12.14884 z"
           clip-path="url(#p8ac299cc76)"
           style="fill:#2ca02c;stroke:#ffffff;stroke-linejoin:miter"
           id="path38605" /></g><g
         id="patch_23"><path
           d="m 270.82997,31.088125 h 12.14885 V 18.939278 h -12.14885 z"
           clip-path="url(#p8ac299cc76)"
           style="fill:#2ca02c;stroke:#ffffff;stroke-linejoin:miter"
           id="path38608" /></g><g
         id="patch_24"><path
           d="m 282.97882,31.088125 h 12.14885 V 18.939278 h -12.14885 z"
           clip-path="url(#p8ac299cc76)"
           style="fill:#98df8a;stroke:#ffffff;stroke-linejoin:miter"
           id="path38611" /></g><g
         id="patch_25"><path
           d="m 295.12767,31.088125 h 12.14884 V 18.939278 h -12.14884 z"
           clip-path="url(#p8ac299cc76)"
           style="fill:#98df8a;stroke:#ffffff;stroke-linejoin:miter"
           id="path38614" /></g><g
         id="patch_26"><path
           d="m 307.27651,31.088125 h 12.14885 V 18.939278 h -12.14885 z"
           clip-path="url(#p8ac299cc76)"
           style="fill:#98df8a;stroke:#ffffff;stroke-linejoin:miter"
           id="path38617" /></g><g
         id="patch_27"><path
           d="m 319.42536,31.088125 h 12.14885 V 18.939278 h -12.14885 z"
           clip-path="url(#p8ac299cc76)"
           style="fill:#98df8a;stroke:#ffffff;stroke-linejoin:miter"
           id="path38620" /></g><g
         id="patch_28"><path
           d="m 331.57421,31.088125 h 12.14884 V 18.939278 h -12.14884 z"
           clip-path="url(#p8ac299cc76)"
           style="fill:#d62728;stroke:#ffffff;stroke-linejoin:miter"
           id="path38623" /></g><g
         id="patch_29"><path
           d="M 343.72305,31.088125 H 355.8719 V 18.939278 h -12.14885 z"
           clip-path="url(#p8ac299cc76)"
           style="fill:#d62728;stroke:#ffffff;stroke-linejoin:miter"
           id="path38626" /></g><g
         id="patch_30"><path
           d="m 355.8719,31.088125 h 12.14885 V 18.939278 H 355.8719 Z"
           clip-path="url(#p8ac299cc76)"
           style="fill:#d62728;stroke:#ffffff;stroke-linejoin:miter"
           id="path38629" /></g><g
         id="patch_31"><path
           d="m 368.02075,31.088125 h 12.14884 V 18.939278 h -12.14884 z"
           clip-path="url(#p8ac299cc76)"
           style="fill:#ffffff;stroke:#ffffff;stroke-linejoin:miter"
           id="path38632" /></g><g
         id="patch_32"><path
           d="m 384.42169,31.088125 h 12.14885 V 18.939278 h -12.14885 z"
           clip-path="url(#p8ac299cc76)"
           style="fill:#d62728;stroke:#ffffff;stroke-linejoin:miter"
           id="path38635" /></g><g
         id="patch_33"><path
           d="m 396.57054,31.088125 h 12.14884 V 18.939278 h -12.14884 z"
           clip-path="url(#p8ac299cc76)"
           style="fill:#d62728;stroke:#ffffff;stroke-linejoin:miter"
           id="path38638" /></g><g
         id="patch_34"><path
           d="m 408.71938,31.088125 h 12.14885 V 18.939278 h -12.14885 z"
           clip-path="url(#p8ac299cc76)"
           style="fill:#ff9896;stroke:#ffffff;stroke-linejoin:miter"
           id="path38641" /></g><g
         id="patch_35"><path
           d="m 420.86823,31.088125 h 12.14885 V 18.939278 h -12.14885 z"
           clip-path="url(#p8ac299cc76)"
           style="fill:#ff9896;stroke:#ffffff;stroke-linejoin:miter"
           id="path38644" /></g><g
         id="patch_36"><path
           d="m 433.01708,31.088125 h 12.14884 V 18.939278 h -12.14884 z"
           clip-path="url(#p8ac299cc76)"
           style="fill:#ff9896;stroke:#ffffff;stroke-linejoin:miter"
           id="path38647" /></g><g
         id="patch_37"><path
           d="m 445.16592,31.088125 h 12.14885 V 18.939278 h -12.14885 z"
           clip-path="url(#p8ac299cc76)"
           style="fill:#ff9896;stroke:#ffffff;stroke-linejoin:miter"
           id="path38650" /></g><g
         id="patch_38"><path
           d="m 457.31477,31.088125 h 12.14885 V 18.939278 h -12.14885 z"
           clip-path="url(#p8ac299cc76)"
           style="fill:#ffffff;stroke:#ffffff;stroke-linejoin:miter"
           id="path38653" /></g><g
         id="text_1"><!-- Before rechunking --><g
           transform="matrix(0.08,0,0,-0.08,7.2,15.97649)"
           id="g38705"><defs
             id="defs38669"><path
               id="path39117"
               d="m 1107,2605 v 1453 h 1216 q 199,0 375,-23 176,-22 310,-99 134,-77 211,-218 77,-140 77,-384 0,-364 -227,-547 -227,-182 -746,-182 z M 499,4570 V 0 h 2208 q 339,0 598,112 260,112 436,294 176,183 265,419 90,237 90,487 0,422 -224,716 -224,295 -646,385 v 13 q 326,128 502,393 176,266 176,631 0,345 -157,582 -157,237 -381,371 -102,64 -246,96 -144,32 -311,48 -166,16 -336,19 -169,4 -316,4 z M 1107,512 v 1581 h 1389 q 192,0 371,-36 179,-35 317,-121 138,-86 221,-234 83,-147 83,-371 0,-384 -227,-602 -227,-217 -631,-217 z"
               transform="scale(0.015625)" /><path
               id="path39119"
               d="M 2707,1971 H 806 q 13,192 83,361 71,170 192,298 122,128 291,202 170,74 382,74 204,0 374,-74 170,-74 294,-199 125,-124 198,-297 74,-173 87,-365 z m 525,-921 H 2694 Q 2624,723 2403,563 2182,403 1837,403 q -269,0 -468,89 -198,90 -326,240 -128,151 -186,346 -57,196 -51,413 h 2477 q 13,301 -54,634 -67,333 -243,614 -176,282 -468,464 -291,183 -732,183 -340,0 -625,-128 Q 877,3130 669,2899 461,2669 345,2355 230,2042 230,1664 243,1286 342,966 442,646 640,416 838,186 1129,58 q 292,-128 689,-128 563,0 934,281 371,282 480,839 z"
               transform="scale(0.015625)" /><path
               id="path39121"
               d="M 634,2829 V 0 h 544 v 2829 h 640 v 480 h -640 v 461 q 0,217 108,294 109,77 308,77 70,0 153,-10 83,-9 154,-35 v 474 q -77,25 -176,38 -99,13 -176,13 -448,0 -682,-208 Q 634,4205 634,3802 V 3309 H 77 v -480 z"
               transform="scale(0.015625)" /><path
               id="path39123"
               d="m 806,1651 q 0,301 80,534 80,234 221,394 141,160 330,243 189,84 400,84 211,0 400,-84 189,-83 329,-243 141,-160 221,-394 80,-233 80,-534 0,-301 -80,-535 -80,-233 -221,-390 -140,-156 -329,-240 -189,-83 -400,-83 -211,0 -400,83 -189,84 -330,240 -141,157 -221,390 -80,234 -80,535 z m -576,0 Q 230,1286 332,972 435,659 640,425 845,192 1145,61 q 301,-131 692,-131 397,0 694,131 298,131 502,364 205,234 307,547 103,314 103,679 0,365 -103,682 -102,317 -307,550 -204,234 -502,368 -297,135 -694,135 -391,0 -692,-135 Q 845,3117 640,2883 435,2650 332,2333 230,2016 230,1651 Z"
               transform="scale(0.015625)" /><path
               id="path39125"
               d="M 390,3309 V 0 h 544 v 1472 q 0,320 64,566 64,247 205,419 141,173 371,263 231,90 557,90 v 576 q -441,12 -729,-180 -288,-192 -487,-595 h -13 v 698 z"
               transform="scale(0.015625)" /><path
               id="path39127"
               transform="scale(0.015625)"
               d="" /><path
               id="path39129"
               d="m 2656,2246 h 563 q -32,295 -154,509 -121,215 -310,355 -189,141 -435,208 -246,68 -528,68 -390,0 -685,-138 Q 813,3110 617,2870 422,2630 326,2307 230,1984 230,1613 230,1242 329,931 429,621 624,397 819,173 1110,51 q 292,-121 669,-121 634,0 1002,332 368,333 457,948 H 2682 Q 2630,826 2403,614 2176,403 1773,403 q -256,0 -442,102 -185,103 -301,272 -115,170 -170,387 -54,218 -54,449 0,249 51,483 52,234 170,413 119,179 317,288 198,109 493,109 345,0 550,-173 205,-173 269,-487 z"
               transform="scale(0.015625)" /><path
               id="path39131"
               d="M 410,4570 V 0 h 544 v 1869 q 0,224 60,412 61,189 182,330 122,141 304,218 183,77 433,77 313,0 492,-180 180,-179 180,-486 V 0 h 544 v 2176 q 0,269 -55,489 -54,221 -189,381 -134,160 -352,250 -217,90 -543,90 -148,0 -305,-32 -156,-32 -300,-100 -144,-67 -260,-173 -115,-105 -179,-259 h -12 v 1748 z"
               transform="scale(0.015625)" /><path
               id="path39133"
               d="M 3149,0 V 3309 H 2605 V 1440 q 0,-224 -61,-413 Q 2483,838 2361,697 2240,557 2057,480 1875,403 1626,403 1312,403 1133,582 954,762 954,1069 V 3309 H 410 V 1133 q 0,-269 54,-490 54,-221 188,-381 135,-160 352,-246 218,-86 545,-86 365,0 633,144 269,144 442,451 h 13 V 0 Z"
               transform="scale(0.015625)" /><path
               id="path39135"
               d="M 410,3309 V 0 h 544 v 1869 q 0,224 60,412 61,189 182,330 122,141 304,218 183,77 433,77 313,0 492,-180 180,-179 180,-486 V 0 h 544 v 2176 q 0,269 -55,489 -54,221 -189,381 -134,160 -352,250 -217,90 -543,90 -736,0 -1076,-602 h -12 v 525 z"
               transform="scale(0.015625)" /><path
               id="path39137"
               d="M 442,4570 V 0 H 986 V 1254 L 1498,1728 2630,0 h 692 L 1914,2106 3226,3309 H 2496 L 986,1862 v 2708 z"
               transform="scale(0.015625)" /><path
               id="path39139"
               d="m 986,3904 v 666 H 442 V 3904 Z M 442,3309 V 0 h 544 v 3309 z"
               transform="scale(0.015625)" /><path
               id="path39141"
               d="m 3264,282 v 3027 h -512 v -474 h -6 q -148,275 -410,413 -262,138 -576,138 -429,0 -724,-164 -294,-163 -473,-416 -179,-252 -256,-563 -77,-310 -77,-605 0,-339 93,-643 93,-304 278,-531 186,-227 461,-362 276,-134 647,-134 320,0 604,144 285,144 426,451 h 13 V 346 q 0,-276 -55,-506 -54,-230 -176,-393 -121,-164 -307,-256 -185,-93 -454,-93 -134,0 -282,29 -147,28 -272,92 -124,64 -211,167 -86,102 -93,249 H 358 q 13,-269 141,-454 128,-186 323,-301 196,-115 436,-166 240,-52 470,-52 794,0 1165,404 371,403 371,1216 z M 1741,442 q -269,0 -448,112 -179,112 -288,294 -109,182 -154,406 -45,224 -45,448 0,237 54,454 55,218 173,384 119,167 304,266 186,100 449,100 256,0 435,-103 179,-102 291,-272 112,-169 163,-381 51,-211 51,-428 0,-231 -54,-462 Q 2618,1030 2502,848 2387,666 2198,554 2010,442 1741,442 Z"
               transform="scale(0.015625)" /></defs><use
             xlink:href="#HelveticaNeue-42-8"
             id="use38671" /><use
             xlink:href="#HelveticaNeue-65-5"
             x="68.499985"
             id="use38673" /><use
             xlink:href="#HelveticaNeue-66-5"
             x="122.19998"
             id="use38675" /><use
             xlink:href="#HelveticaNeue-6f-5"
             x="151.79997"
             id="use38677" /><use
             xlink:href="#HelveticaNeue-72-4"
             x="209.19997"
             id="use38679" /><use
             xlink:href="#HelveticaNeue-65-5"
             x="240.74995"
             id="use38681" /><use
             xlink:href="#HelveticaNeue-20-2"
             x="294.44995"
             id="use38683" /><use
             xlink:href="#HelveticaNeue-72-4"
             x="322.24994"
             id="use38685" /><use
             xlink:href="#HelveticaNeue-65-5"
             x="353.79993"
             id="use38687" /><use
             xlink:href="#HelveticaNeue-63-1"
             x="407.49994"
             id="use38689" /><use
             xlink:href="#HelveticaNeue-68-9"
             x="461.19992"
             id="use38691" /><use
             xlink:href="#HelveticaNeue-75-2"
             x="516.79993"
             id="use38693" /><use
             xlink:href="#HelveticaNeue-6e-4"
             x="572.3999"
             id="use38695" /><use
             xlink:href="#HelveticaNeue-6b-5"
             x="627.99988"
             id="use38697" /><use
             xlink:href="#HelveticaNeue-69-8"
             x="679.8999"
             id="use38699" /><use
             xlink:href="#HelveticaNeue-6e-4"
             x="702.09985"
             id="use38701" /><use
             xlink:href="#HelveticaNeue-67-6"
             x="757.69989"
             id="use38703" /></g></g></g><g
       id="axes_2"><g
         id="patch_39"><path
           d="M 7.2,67.088125 H 19.348847 V 54.939278 H 7.2 Z"
           clip-path="url(#pbcd27ea80b)"
           style="fill:#1f77b4;stroke:#ffffff;stroke-linejoin:miter"
           id="path38709" /></g><g
         id="patch_40"><path
           d="M 19.348847,67.088125 H 31.497693 V 54.939278 H 19.348847 Z"
           clip-path="url(#pbcd27ea80b)"
           style="fill:#1f77b4;stroke:#ffffff;stroke-linejoin:miter"
           id="path38712" /></g><g
         id="patch_41"><path
           d="M 31.497693,67.088125 H 43.64654 V 54.939278 H 31.497693 Z"
           clip-path="url(#pbcd27ea80b)"
           style="fill:#1f77b4;stroke:#ffffff;stroke-linejoin:miter"
           id="path38715" /></g><g
         id="patch_42"><path
           d="M 43.64654,67.088125 H 55.795387 V 54.939278 H 43.64654 Z"
           clip-path="url(#pbcd27ea80b)"
           style="fill:#1f77b4;stroke:#ffffff;stroke-linejoin:miter"
           id="path38718" /></g><g
         id="patch_43"><path
           d="M 55.795387,67.088125 H 67.944233 V 54.939278 H 55.795387 Z"
           clip-path="url(#pbcd27ea80b)"
           style="fill:#aec7e8;stroke:#ffffff;stroke-linejoin:miter"
           id="path38721" /></g><g
         id="patch_44"><path
           d="M 67.944233,67.088125 H 80.09308 V 54.939278 H 67.944233 Z"
           clip-path="url(#pbcd27ea80b)"
           style="fill:#aec7e8;stroke:#ffffff;stroke-linejoin:miter"
           id="path38724" /></g><g
         id="patch_45"><path
           d="M 80.09308,67.088125 H 92.241927 V 54.939278 H 80.09308 Z"
           clip-path="url(#pbcd27ea80b)"
           style="fill:#aec7e8;stroke:#ffffff;stroke-linejoin:miter"
           id="path38727" /></g><g
         id="patch_46"><path
           d="M 92.241927,67.088125 H 104.39077 V 54.939278 H 92.241927 Z"
           clip-path="url(#pbcd27ea80b)"
           style="fill:#aec7e8;stroke:#ffffff;stroke-linejoin:miter"
           id="path38730" /></g><g
         id="patch_47"><path
           d="m 104.39077,67.088125 h 12.14885 V 54.939278 h -12.14885 z"
           clip-path="url(#pbcd27ea80b)"
           style="fill:#ffffff;stroke:#ffffff;stroke-linejoin:miter"
           id="path38733" /></g><g
         id="patch_48"><path
           d="m 118.96939,67.088125 h 12.14885 V 54.939278 h -12.14885 z"
           clip-path="url(#pbcd27ea80b)"
           style="fill:#ff7f0e;stroke:#ffffff;stroke-linejoin:miter"
           id="path38736" /></g><g
         id="patch_49"><path
           d="m 131.11824,67.088125 h 12.14884 V 54.939278 h -12.14884 z"
           clip-path="url(#pbcd27ea80b)"
           style="fill:#ff7f0e;stroke:#ffffff;stroke-linejoin:miter"
           id="path38739" /></g><g
         id="patch_50"><path
           d="m 143.26708,67.088125 h 12.14885 V 54.939278 h -12.14885 z"
           clip-path="url(#pbcd27ea80b)"
           style="fill:#ff7f0e;stroke:#ffffff;stroke-linejoin:miter"
           id="path38742" /></g><g
         id="patch_51"><path
           d="m 155.41593,67.088125 h 12.14885 V 54.939278 h -12.14885 z"
           clip-path="url(#pbcd27ea80b)"
           style="fill:#ff7f0e;stroke:#ffffff;stroke-linejoin:miter"
           id="path38745" /></g><g
         id="patch_52"><path
           d="m 167.56478,67.088125 h 12.14884 V 54.939278 h -12.14884 z"
           clip-path="url(#pbcd27ea80b)"
           style="fill:#ffbb78;stroke:#ffffff;stroke-linejoin:miter"
           id="path38748" /></g><g
         id="patch_53"><path
           d="m 179.71362,67.088125 h 12.14885 V 54.939278 h -12.14885 z"
           clip-path="url(#pbcd27ea80b)"
           style="fill:#ffbb78;stroke:#ffffff;stroke-linejoin:miter"
           id="path38751" /></g><g
         id="patch_54"><path
           d="m 191.86247,67.088125 h 12.14885 V 54.939278 h -12.14885 z"
           clip-path="url(#pbcd27ea80b)"
           style="fill:#ffbb78;stroke:#ffffff;stroke-linejoin:miter"
           id="path38754" /></g><g
         id="patch_55"><path
           d="m 204.01132,67.088125 h 12.14884 V 54.939278 h -12.14884 z"
           clip-path="url(#pbcd27ea80b)"
           style="fill:#ffbb78;stroke:#ffffff;stroke-linejoin:miter"
           id="path38757" /></g><g
         id="patch_56"><path
           d="m 216.16016,67.088125 h 12.14885 V 54.939278 h -12.14885 z"
           clip-path="url(#pbcd27ea80b)"
           style="fill:#ffffff;stroke:#ffffff;stroke-linejoin:miter"
           id="path38760" /></g><g
         id="patch_57"><path
           d="m 230.73878,67.088125 h 12.14885 V 54.939278 h -12.14885 z"
           clip-path="url(#pbcd27ea80b)"
           style="fill:#2ca02c;stroke:#ffffff;stroke-linejoin:miter"
           id="path38763" /></g><g
         id="patch_58"><path
           d="m 242.88763,67.088125 h 12.14884 V 54.939278 h -12.14884 z"
           clip-path="url(#pbcd27ea80b)"
           style="fill:#2ca02c;stroke:#ffffff;stroke-linejoin:miter"
           id="path38766" /></g><g
         id="patch_59"><path
           d="m 255.03647,67.088125 h 12.14885 V 54.939278 h -12.14885 z"
           clip-path="url(#pbcd27ea80b)"
           style="fill:#2ca02c;stroke:#ffffff;stroke-linejoin:miter"
           id="path38769" /></g><g
         id="patch_60"><path
           d="m 267.18532,67.088125 h 12.14884 V 54.939278 h -12.14884 z"
           clip-path="url(#pbcd27ea80b)"
           style="fill:#2ca02c;stroke:#ffffff;stroke-linejoin:miter"
           id="path38772" /></g><g
         id="patch_61"><path
           d="m 279.33416,67.088125 h 12.14885 V 54.939278 h -12.14885 z"
           clip-path="url(#pbcd27ea80b)"
           style="fill:#98df8a;stroke:#ffffff;stroke-linejoin:miter"
           id="path38775" /></g><g
         id="patch_62"><path
           d="m 291.48301,67.088125 h 12.14885 V 54.939278 h -12.14885 z"
           clip-path="url(#pbcd27ea80b)"
           style="fill:#98df8a;stroke:#ffffff;stroke-linejoin:miter"
           id="path38778" /></g><g
         id="patch_63"><path
           d="M 303.63186,67.088125 H 315.7807 V 54.939278 h -12.14884 z"
           clip-path="url(#pbcd27ea80b)"
           style="fill:#98df8a;stroke:#ffffff;stroke-linejoin:miter"
           id="path38781" /></g><g
         id="patch_64"><path
           d="m 315.7807,67.088125 h 12.14885 V 54.939278 H 315.7807 Z"
           clip-path="url(#pbcd27ea80b)"
           style="fill:#98df8a;stroke:#ffffff;stroke-linejoin:miter"
           id="path38784" /></g><g
         id="patch_65"><path
           d="M 327.92955,67.088125 H 340.0784 V 54.939278 h -12.14885 z"
           clip-path="url(#pbcd27ea80b)"
           style="fill:#d62728;stroke:#ffffff;stroke-linejoin:miter"
           id="path38787" /></g><g
         id="patch_66"><path
           d="m 340.0784,67.088125 h 12.14884 V 54.939278 H 340.0784 Z"
           clip-path="url(#pbcd27ea80b)"
           style="fill:#d62728;stroke:#ffffff;stroke-linejoin:miter"
           id="path38790" /></g><g
         id="patch_67"><path
           d="m 352.22724,67.088125 h 12.14885 V 54.939278 h -12.14885 z"
           clip-path="url(#pbcd27ea80b)"
           style="fill:#d62728;stroke:#ffffff;stroke-linejoin:miter"
           id="path38793" /></g><g
         id="patch_68"><path
           d="m 364.37609,67.088125 h 12.14885 V 54.939278 h -12.14885 z"
           clip-path="url(#pbcd27ea80b)"
           style="fill:#d62728;stroke:#ffffff;stroke-linejoin:miter"
           id="path38796" /></g><g
         id="patch_69"><path
           d="m 376.52494,67.088125 h 12.14884 V 54.939278 h -12.14884 z"
           clip-path="url(#pbcd27ea80b)"
           style="fill:#d62728;stroke:#ffffff;stroke-linejoin:miter"
           id="path38799" /></g><g
         id="patch_70"><path
           d="m 388.67378,67.088125 h 12.14885 V 54.939278 h -12.14885 z"
           clip-path="url(#pbcd27ea80b)"
           style="fill:#ffffff;stroke:#ffffff;stroke-linejoin:miter"
           id="path38802" /></g><g
         id="patch_71"><path
           d="m 412.36404,67.088125 h 12.14884 V 54.939278 h -12.14884 z"
           clip-path="url(#pbcd27ea80b)"
           style="fill:#ff9896;stroke:#ffffff;stroke-linejoin:miter"
           id="path38805" /></g><g
         id="patch_72"><path
           d="m 424.51288,67.088125 h 12.14885 V 54.939278 h -12.14885 z"
           clip-path="url(#pbcd27ea80b)"
           style="fill:#ff9896;stroke:#ffffff;stroke-linejoin:miter"
           id="path38808" /></g><g
         id="patch_73"><path
           d="m 436.66173,67.088125 h 12.14885 V 54.939278 h -12.14885 z"
           clip-path="url(#pbcd27ea80b)"
           style="fill:#ff9896;stroke:#ffffff;stroke-linejoin:miter"
           id="path38811" /></g><g
         id="patch_74"><path
           d="m 448.81058,67.088125 h 12.14884 V 54.939278 h -12.14884 z"
           clip-path="url(#pbcd27ea80b)"
           style="fill:#ff9896;stroke:#ffffff;stroke-linejoin:miter"
           id="path38814" /></g><g
         id="patch_75"><path
           d="m 460.95942,67.088125 h 12.14885 V 54.939278 h -12.14885 z"
           clip-path="url(#pbcd27ea80b)"
           style="fill:#ffffff;stroke:#ffffff;stroke-linejoin:miter"
           id="path38817" /></g><g
         id="text_2"><!-- After rechunking --><g
           transform="matrix(0.08,0,0,-0.08,7.2,51.97649)"
           id="g38856"><defs
             id="defs38822"><path
               id="path39238"
               d="m 1286,1888 775,2131 h 13 L 2835,1888 Z M 1741,4570 -38,0 h 620 l 512,1376 H 3027 L 3526,0 h 672 L 2413,4570 Z"
               transform="scale(0.015625)" /><path
               id="path39240"
               d="m 1165,3309 v 992 H 621 V 3309 H 58 V 2829 H 621 V 723 Q 621,493 665,352 710,211 803,134 896,58 1046,29 1197,0 1408,0 h 416 v 480 h -250 q -128,0 -208,9 -80,10 -125,42 -44,32 -60,89 -16,58 -16,154 v 2055 h 659 v 480 z"
               transform="scale(0.015625)" /></defs><use
             xlink:href="#HelveticaNeue-41-2"
             id="use38824" /><use
             xlink:href="#HelveticaNeue-66-5"
             x="64.799988"
             id="use38826" /><use
             xlink:href="#HelveticaNeue-74-5"
             x="94.399979"
             id="use38828" /><use
             xlink:href="#HelveticaNeue-65-5"
             x="125.89996"
             id="use38830" /><use
             xlink:href="#HelveticaNeue-72-4"
             x="179.59996"
             id="use38832" /><use
             xlink:href="#HelveticaNeue-20-2"
             x="212.89995"
             id="use38834" /><use
             xlink:href="#HelveticaNeue-72-4"
             x="240.69994"
             id="use38836" /><use
             xlink:href="#HelveticaNeue-65-5"
             x="272.24994"
             id="use38838" /><use
             xlink:href="#HelveticaNeue-63-1"
             x="325.94992"
             id="use38840" /><use
             xlink:href="#HelveticaNeue-68-9"
             x="379.64993"
             id="use38842" /><use
             xlink:href="#HelveticaNeue-75-2"
             x="435.24991"
             id="use38844" /><use
             xlink:href="#HelveticaNeue-6e-4"
             x="490.84988"
             id="use38846" /><use
             xlink:href="#HelveticaNeue-6b-5"
             x="546.44989"
             id="use38848" /><use
             xlink:href="#HelveticaNeue-69-8"
             x="598.34985"
             id="use38850" /><use
             xlink:href="#HelveticaNeue-6e-4"
             x="620.54987"
             id="use38852" /><use
             xlink:href="#HelveticaNeue-67-6"
             x="676.1499"
             id="use38854" /></g></g></g><g
       id="axes_3"><g
         id="patch_76"><path
           d="m 189.4327,103.08813 h 12.14885 V 90.939278 H 189.4327 Z"
           clip-path="url(#pb7de37a75f)"
           style="fill:#1f77b4;stroke:#ffffff;stroke-linejoin:miter"
           id="path38860" /></g><g
         id="patch_77"><path
           d="m 201.58155,103.08813 h 12.14884 V 90.939278 h -12.14884 z"
           clip-path="url(#pb7de37a75f)"
           style="fill:#aec7e8;stroke:#ffffff;stroke-linejoin:miter"
           id="path38863" /></g><g
         id="patch_78"><path
           d="m 213.73039,103.08813 h 12.14885 V 90.939278 h -12.14885 z"
           clip-path="url(#pb7de37a75f)"
           style="fill:#ffffff;stroke:#ffffff;stroke-linejoin:miter"
           id="path38866" /></g><g
         id="patch_79"><path
           d="m 217.37505,103.08813 h 12.14884 V 90.939278 h -12.14884 z"
           clip-path="url(#pb7de37a75f)"
           style="fill:#ff7f0e;stroke:#ffffff;stroke-linejoin:miter"
           id="path38869" /></g><g
         id="patch_80"><path
           d="m 229.52389,103.08813 h 12.14885 V 90.939278 h -12.14885 z"
           clip-path="url(#pb7de37a75f)"
           style="fill:#ffbb78;stroke:#ffffff;stroke-linejoin:miter"
           id="path38872" /></g><g
         id="patch_81"><path
           d="m 241.67274,103.08813 h 12.14885 V 90.939278 h -12.14885 z"
           clip-path="url(#pb7de37a75f)"
           style="fill:#ffffff;stroke:#ffffff;stroke-linejoin:miter"
           id="path38875" /></g><g
         id="patch_82"><path
           d="m 245.31739,103.08813 h 12.14885 V 90.939278 h -12.14885 z"
           clip-path="url(#pb7de37a75f)"
           style="fill:#2ca02c;stroke:#ffffff;stroke-linejoin:miter"
           id="path38878" /></g><g
         id="patch_83"><path
           d="m 257.46624,103.08813 h 12.14885 V 90.939278 h -12.14885 z"
           clip-path="url(#pb7de37a75f)"
           style="fill:#98df8a;stroke:#ffffff;stroke-linejoin:miter"
           id="path38881" /></g><g
         id="patch_84"><path
           d="m 269.61509,103.08813 h 12.14884 V 90.939278 h -12.14884 z"
           clip-path="url(#pb7de37a75f)"
           style="fill:#d62728;stroke:#ffffff;stroke-linejoin:miter"
           id="path38884" /></g><g
         id="patch_85"><path
           d="m 281.76393,103.08813 h 12.14885 V 90.939278 h -12.14885 z"
           clip-path="url(#pb7de37a75f)"
           style="fill:#ffffff;stroke:#ffffff;stroke-linejoin:miter"
           id="path38887" /></g><g
         id="patch_86"><path
           d="m 287.23092,103.08813 h 12.14884 V 90.939278 h -12.14884 z"
           clip-path="url(#pb7de37a75f)"
           style="fill:#ff9896;stroke:#ffffff;stroke-linejoin:miter"
           id="path38890" /></g><g
         id="patch_87"><path
           d="m 299.37976,103.08813 h 12.14885 V 90.939278 h -12.14885 z"
           clip-path="url(#pb7de37a75f)"
           style="fill:#ffffff;stroke:#ffffff;stroke-linejoin:miter"
           id="path38893" /></g><g
         id="text_3"><!-- After reducing --><g
           transform="matrix(0.08,0,0,-0.08,7.2,87.97649)"
           id="g38927"><defs
             id="defs38897"><path
               id="path39286"
               d="m 806,1626 q 0,243 51,473 52,231 167,410 115,179 307,288 192,109 467,109 282,0 480,-106 199,-106 323,-279 125,-172 183,-400 58,-227 58,-470 0,-230 -55,-454 Q 2733,973 2611,797 2490,621 2298,512 2106,403 1830,403 q -262,0 -457,102 -195,103 -320,276 -125,173 -186,393 -61,221 -61,452 z M 3366,0 V 4570 H 2822 V 2867 h -12 q -90,147 -221,246 -131,100 -279,160 -147,61 -294,87 -147,26 -275,26 -378,0 -663,-138 Q 794,3110 605,2876 416,2643 323,2329 230,2016 230,1664 230,1312 326,998 422,685 611,448 800,211 1085,70 q 285,-140 669,-140 345,0 633,121 288,122 423,397 h 12 V 0 Z"
               transform="scale(0.015625)" /></defs><use
             xlink:href="#HelveticaNeue-41-2"
             id="use38899" /><use
             xlink:href="#HelveticaNeue-66-5"
             x="64.799988"
             id="use38901" /><use
             xlink:href="#HelveticaNeue-74-5"
             x="94.399979"
             id="use38903" /><use
             xlink:href="#HelveticaNeue-65-5"
             x="125.89996"
             id="use38905" /><use
             xlink:href="#HelveticaNeue-72-4"
             x="179.59996"
             id="use38907" /><use
             xlink:href="#HelveticaNeue-20-2"
             x="212.89995"
             id="use38909" /><use
             xlink:href="#HelveticaNeue-72-4"
             x="240.69994"
             id="use38911" /><use
             xlink:href="#HelveticaNeue-65-5"
             x="272.24994"
             id="use38913" /><use
             xlink:href="#HelveticaNeue-64-1"
             x="325.94992"
             id="use38915" /><use
             xlink:href="#HelveticaNeue-75-2"
             x="385.24991"
             id="use38917" /><use
             xlink:href="#HelveticaNeue-63-1"
             x="440.84988"
             id="use38919" /><use
             xlink:href="#HelveticaNeue-69-8"
             x="494.5499"
             id="use38921" /><use
             xlink:href="#HelveticaNeue-6e-4"
             x="516.74988"
             id="use38923" /><use
             xlink:href="#HelveticaNeue-67-6"
             x="572.34985"
             id="use38925" /></g></g></g><g
       id="text_4"><!-- method='blockwise' --><g
         transform="matrix(0.09,0,0,-0.09,197.46403,14.063906)"
         id="g38984"><defs
           id="defs38946"><path
             id="path39306"
             d="m 2113,3144 q 106,225 270,332 164,108 395,108 422,0 595,-327 174,-326 174,-1229 V 0 h -525 v 2003 q 0,741 -83,920 -83,180 -301,180 -250,0 -343,-192 -92,-192 -92,-908 V 0 h -525 v 2003 q 0,750 -89,925 -89,175 -320,175 -228,0 -317,-192 -89,-192 -89,-908 V 0 H 341 v 3500 h 522 v -300 q 103,188 257,286 155,98 352,98 237,0 395,-109 158,-109 246,-331 z"
             transform="scale(0.015625)" /><path
             id="path39308"
             d="M 3500,2038 V 1756 H 1009 v -18 q -25,-716 273,-1029 299,-312 843,-312 275,0 575,87 300,88 641,266 V 178 Q 3013,44 2708,-23 2403,-91 2119,-91 1303,-91 843,398 384,888 384,1747 q 0,837 450,1337 450,500 1200,500 669,0 1055,-453 386,-453 411,-1093 z m -575,168 q -37,363 -264,627 -227,264 -652,264 -415,0 -684,-275 -269,-275 -294,-619 z"
             transform="scale(0.015625)" /><path
             id="path39310"
             d="M 1919,4494 V 3500 H 3225 V 3053 H 1919 V 1153 q 0,-387 147,-541 147,-153 512,-153 h 647 V 0 h -703 q -647,0 -913,259 -265,260 -265,894 V 3053 H 409 v 447 h 935 v 994 z"
             transform="scale(0.015625)" /><path
             id="path39312"
             d="M 3284,2169 V 0 h -578 v 2169 q 0,472 -166,693 -165,222 -518,222 -403,0 -621,-286 -217,-285 -217,-820 V 0 H 609 v 4863 h 575 V 2975 q 154,300 416,454 263,155 622,155 534,0 798,-352 264,-351 264,-1063 z"
             transform="scale(0.015625)" /><path
             id="path39314"
             d="m 1925,3097 q -437,0 -662,-341 -225,-340 -225,-1009 0,-666 225,-1008 225,-342 662,-342 441,0 666,342 225,342 225,1008 0,669 -225,1009 -225,341 -666,341 z m 0,487 q 728,0 1114,-472 386,-471 386,-1365 Q 3425,850 3040,379 2656,-91 1925,-91 1197,-91 812,379 428,850 428,1747 q 0,894 384,1365 385,472 1113,472 z"
             transform="scale(0.015625)" /><path
             id="path39316"
             d="m 2681,3053 v 1810 h 575 V 0 H 2681 V 441 Q 2538,181 2298,45 2059,-91 1747,-91 1113,-91 748,401 384,894 384,1759 q 0,854 366,1339 366,486 997,486 316,0 556,-136 241,-135 378,-395 z M 991,1747 q 0,-669 212,-1010 213,-340 628,-340 416,0 633,343 217,344 217,1007 0,666 -217,1008 -217,342 -633,342 -415,0 -628,-341 Q 991,2416 991,1747 Z"
             transform="scale(0.015625)" /><path
             id="path39318"
             d="M 275,1563 H 3578 V 1034 H 275 Z m 0,1471 H 3578 V 2506 H 275 Z"
             transform="scale(0.015625)" /><path
             id="path39320"
             d="M 2319,4869 V 2922 h -700 v 1947 z"
             transform="scale(0.015625)" /><path
             id="path39322"
             d="m 2869,1747 q 0,669 -213,1009 -212,341 -628,341 -419,0 -635,-342 -215,-342 -215,-1008 0,-663 215,-1007 216,-343 635,-343 416,0 628,340 213,341 213,1010 z M 1178,3053 q 138,256 380,393 242,138 561,138 631,0 993,-486 363,-485 363,-1339 0,-865 -364,-1358 -364,-492 -998,-492 -313,0 -552,136 -239,136 -383,396 V 0 H 603 v 4863 h 575 z"
             transform="scale(0.015625)" /><path
             id="path39324"
             d="m 2247,1266 q 0,-388 142,-585 142,-197 420,-197 h 672 V 0 h -728 q -515,0 -798,329 -283,330 -283,937 V 4431 H 750 v 450 h 1497 z"
             transform="scale(0.015625)" /><path
             id="path39326"
             d="M 3316,178 Q 3084,44 2839,-23 2594,-91 2338,-91 1525,-91 1067,396 609,884 609,1747 q 0,862 458,1349 458,488 1271,488 253,0 493,-66 241,-65 485,-202 v -603 q -228,203 -458,293 -230,91 -520,91 -541,0 -832,-350 -290,-350 -290,-1000 0,-647 292,-999 292,-351 830,-351 300,0 537,92 238,92 441,286 z"
             transform="scale(0.015625)" /><path
             id="path39328"
             d="m 738,4863 h 593 V 2047 l 1510,1453 h 700 L 2163,2181 3756,0 H 3053 L 1759,1806 1331,1403 V 0 H 738 Z"
             transform="scale(0.015625)" /><path
             id="path39330"
             d="m 0,3500 h 569 l 609,-2828 500,1806 h 491 l 506,-1806 609,2828 h 569 L 3034,0 H 2484 L 1925,1919 1369,0 H 819 Z"
             transform="scale(0.015625)" /><path
             id="path39332"
             d="M 988,3488 H 2459 V 447 H 3600 V 0 H 744 V 447 H 1884 V 3041 H 988 Z m 896,1359 h 575 v -725 h -575 z"
             transform="scale(0.015625)" /><path
             id="path39334"
             d="m 3041,3378 v -562 q -247,143 -497,215 -250,72 -510,72 -390,0 -583,-127 -192,-126 -192,-385 0,-235 144,-351 144,-115 716,-224 l 231,-44 q 428,-81 648,-325 221,-244 221,-634 0,-519 -369,-812 -369,-292 -1025,-292 -259,0 -544,55 -284,55 -615,164 v 594 q 322,-166 615,-249 294,-82 557,-82 381,0 590,154 210,155 210,433 0,400 -766,553 l -25,7 -216,43 q -497,97 -725,327 -228,230 -228,626 0,504 340,777 341,273 973,273 281,0 540,-52 260,-51 510,-154 z"
             transform="scale(0.015625)" /></defs><use
           xlink:href="#Menlo-Regular-6d-3"
           id="use38948" /><use
           xlink:href="#Menlo-Regular-65-9"
           x="60.205078"
           id="use38950" /><use
           xlink:href="#Menlo-Regular-74-7"
           x="120.41016"
           id="use38952" /><use
           xlink:href="#Menlo-Regular-68-3"
           x="180.61523"
           id="use38954" /><use
           xlink:href="#Menlo-Regular-6f-7"
           x="240.82031"
           id="use38956" /><use
           xlink:href="#Menlo-Regular-64-5"
           x="301.02539"
           id="use38958" /><use
           xlink:href="#Menlo-Regular-3d-0"
           x="361.23047"
           id="use38960" /><use
           xlink:href="#Menlo-Regular-27-2"
           x="421.43555"
           id="use38962" /><use
           xlink:href="#Menlo-Regular-62-1"
           x="481.64062"
           id="use38964" /><use
           xlink:href="#Menlo-Regular-6c-8"
           x="541.8457"
           id="use38966" /><use
           xlink:href="#Menlo-Regular-6f-7"
           x="602.05078"
           id="use38968" /><use
           xlink:href="#Menlo-Regular-63-7"
           x="662.25586"
           id="use38970" /><use
           xlink:href="#Menlo-Regular-6b-1"
           x="722.46094"
           id="use38972" /><use
           xlink:href="#Menlo-Regular-77-5"
           x="782.66602"
           id="use38974" /><use
           xlink:href="#Menlo-Regular-69-5"
           x="842.87109"
           id="use38976" /><use
           xlink:href="#Menlo-Regular-73-8"
           x="903.07617"
           id="use38978" /><use
           xlink:href="#Menlo-Regular-65-9"
           x="963.28125"
           id="use38980" /><use
           xlink:href="#Menlo-Regular-27-2"
           x="1023.4863"
           id="use38982" /></g></g></g><g
     inkscape:groupmode="layer"
     id="layer1"
     inkscape:label="Layer 1"><path
       style="fill:#d4d8e1;stroke-width:1.5;stroke-dasharray:none"
       d="m 107.78082,33.346553 c 15.48233,20.841595 15.48233,20.841595 15.48233,20.841595"
       id="path1739" /><path
       style="fill:#d4d8e1;stroke-width:1.5;stroke-dasharray:none"
       d="M 112.54462,82.770907 C 177.4513,94.68039 177.4513,94.68039 177.4513,94.68039"
       id="path2296" /><path
       style="fill:none;stroke:#000000;stroke-width:0.703271;stroke-dasharray:none;stroke-opacity:1;marker-end:url(#Arrow5)"
       d="m 111.41501,32.037432 c 10.80378,20.951256 10.80378,20.951256 10.80378,20.951256"
       id="path2300"
       inkscape:transform-center-x="5.3998619"
       inkscape:transform-center-y="5.3284933" /><path
       style="fill:none;stroke:#000000;stroke-width:0.703271;stroke-linecap:butt;stroke-linejoin:round;stroke-dasharray:none;stroke-opacity:1;marker-end:url(#Arrow5-5)"
       d="m 104.26031,68.343708 79.28331,25.715056"
       id="path2300-7"
       inkscape:transform-center-x="5.3998619"
       inkscape:transform-center-y="5.3284933"
       sodipodi:nodetypes="cc" /><path
       style="fill:none;stroke:#000000;stroke-width:0.703271;stroke-linecap:butt;stroke-linejoin:round;stroke-dasharray:none;stroke-opacity:1;marker-end:url(#Arrow5-9)"
       d="m 177.50363,70.725605 50.70055,21.546734"
       id="path2300-1"
       inkscape:transform-center-x="5.3998619"
       inkscape:transform-center-y="5.3284933"
       sodipodi:nodetypes="cc" /><path
       style="fill:none;stroke:#000000;stroke-width:0.703271;stroke-linecap:butt;stroke-linejoin:round;stroke-dasharray:none;stroke-opacity:1;marker-end:url(#Arrow5-6)"
       d="M 303.14867,71.32108 263.93263,91.081384"
       id="path2300-2"
       inkscape:transform-center-x="5.3998619"
       inkscape:transform-center-y="5.3284933"
       sodipodi:nodetypes="cc" /><path
       style="fill:none;stroke:#000000;stroke-width:0.703271;stroke-linecap:butt;stroke-linejoin:round;stroke-dasharray:none;stroke-opacity:1;marker-end:url(#Arrow5-04)"
       d="M 409.14307,65.961813 303.82939,97.631603"
       id="path2300-97"
       inkscape:transform-center-x="5.3998619"
       inkscape:transform-center-y="5.3284933"
       sodipodi:nodetypes="cc" /><path
       style="fill:none;stroke:#000000;stroke-width:0.703271;stroke-linecap:butt;stroke-linejoin:round;stroke-dasharray:none;stroke-opacity:1;marker-end:url(#Arrow5-0)"
       d="M 230.50082,32.615259 C 241.3046,53.566515 241.3046,53.566515 241.3046,53.566515"
       id="path2300-4"
       inkscape:transform-center-x="5.3998619"
       inkscape:transform-center-y="5.3284933" /><path
       style="fill:none;stroke:#000000;stroke-width:0.703271;stroke-linecap:butt;stroke-linejoin:round;stroke-dasharray:none;stroke-opacity:1;marker-end:url(#Arrow5-8)"
       d="M 396.20906,31.42431 377.06864,54.757463"
       id="path2300-9"
       inkscape:transform-center-x="-5.3998583"
       inkscape:transform-center-y="5.3284933"
       sodipodi:nodetypes="cc" /></g></svg>
