<?xml version="1.0" encoding="utf-8" standalone="no"?>
<!DOCTYPE svg PUBLIC "-//W3C//DTD SVG 1.1//EN"
  "http://www.w3.org/Graphics/SVG/1.1/DTD/svg11.dtd">
<svg xmlns:xlink="http://www.w3.org/1999/xlink" width="492.457116pt" height="119.39976pt" viewBox="0 0 492.457116 119.39976" xmlns="http://www.w3.org/2000/svg" version="1.1">
 <metadata>
  <rdf:RDF xmlns:dc="http://purl.org/dc/elements/1.1/" xmlns:cc="http://creativecommons.org/ns#" xmlns:rdf="http://www.w3.org/1999/02/22-rdf-syntax-ns#">
   <cc:Work>
    <dc:type rdf:resource="http://purl.org/dc/dcmitype/StillImage"/>
    <dc:date>2022-11-15T16:33:54.164631</dc:date>
    <dc:format>image/svg+xml</dc:format>
    <dc:creator>
     <cc:Agent>
      <dc:title>Matplotlib v3.6.0, https://matplotlib.org/</dc:title>
     </cc:Agent>
    </dc:creator>
   </cc:Work>
  </rdf:RDF>
 </metadata>
 <defs>
  <style type="text/css">*{stroke-linejoin: round; stroke-linecap: butt}</style>
 </defs>
 <g id="figure_1">
  <g id="patch_1">
   <path d="M 0 119.39976
L 492.457116 119.39976
L 492.457116 0
L 0 0
L 0 119.39976
z
" style="fill: none"/>
  </g>
  <g id="axes_1">
   <g id="patch_2">
    <path d="M 7.2 31.088125
L 19.348847 31.088125
L 19.348847 18.939278
L 7.2 18.939278
z
" clip-path="url(#p8ac299cc76)" style="fill: #1f77b4; stroke: #ffffff; stroke-linejoin: miter"/>
   </g>
   <g id="patch_3">
    <path d="M 19.348847 31.088125
L 31.497693 31.088125
L 31.497693 18.939278
L 19.348847 18.939278
z
" clip-path="url(#p8ac299cc76)" style="fill: #1f77b4; stroke: #ffffff; stroke-linejoin: miter"/>
   </g>
   <g id="patch_4">
    <path d="M 31.497693 31.088125
L 43.64654 31.088125
L 43.64654 18.939278
L 31.497693 18.939278
z
" clip-path="url(#p8ac299cc76)" style="fill: #1f77b4; stroke: #ffffff; stroke-linejoin: miter"/>
   </g>
   <g id="patch_5">
    <path d="M 43.64654 31.088125
L 55.795387 31.088125
L 55.795387 18.939278
L 43.64654 18.939278
z
" clip-path="url(#p8ac299cc76)" style="fill: #1f77b4; stroke: #ffffff; stroke-linejoin: miter"/>
   </g>
   <g id="patch_6">
    <path d="M 55.795387 31.088125
L 67.944233 31.088125
L 67.944233 18.939278
L 55.795387 18.939278
z
" clip-path="url(#p8ac299cc76)" style="fill: #aec7e8; stroke: #ffffff; stroke-linejoin: miter"/>
   </g>
   <g id="patch_7">
    <path d="M 67.944233 31.088125
L 80.09308 31.088125
L 80.09308 18.939278
L 67.944233 18.939278
z
" clip-path="url(#p8ac299cc76)" style="fill: #aec7e8; stroke: #ffffff; stroke-linejoin: miter"/>
   </g>
   <g id="patch_8">
    <path d="M 80.09308 31.088125
L 92.241927 31.088125
L 92.241927 18.939278
L 80.09308 18.939278
z
" clip-path="url(#p8ac299cc76)" style="fill: #aec7e8; stroke: #ffffff; stroke-linejoin: miter"/>
   </g>
   <g id="patch_9">
    <path d="M 92.241927 31.088125
L 104.390773 31.088125
L 104.390773 18.939278
L 92.241927 18.939278
z
" clip-path="url(#p8ac299cc76)" style="fill: #aec7e8; stroke: #ffffff; stroke-linejoin: miter"/>
   </g>
   <g id="patch_10">
    <path d="M 104.390773 31.088125
L 116.53962 31.088125
L 116.53962 18.939278
L 104.390773 18.939278
z
" clip-path="url(#p8ac299cc76)" style="fill: #ff7f0e; stroke: #ffffff; stroke-linejoin: miter"/>
   </g>
   <g id="patch_11">
    <path d="M 116.53962 31.088125
L 128.688467 31.088125
L 128.688467 18.939278
L 116.53962 18.939278
z
" clip-path="url(#p8ac299cc76)" style="fill: #ffffff; stroke: #ffffff; stroke-linejoin: miter"/>
   </g>
   <g id="patch_12">
    <path d="M 132.940563 31.088125
L 145.08941 31.088125
L 145.08941 18.939278
L 132.940563 18.939278
z
" clip-path="url(#p8ac299cc76)" style="fill: #ff7f0e; stroke: #ffffff; stroke-linejoin: miter"/>
   </g>
   <g id="patch_13">
    <path d="M 145.08941 31.088125
L 157.238256 31.088125
L 157.238256 18.939278
L 145.08941 18.939278
z
" clip-path="url(#p8ac299cc76)" style="fill: #ff7f0e; stroke: #ffffff; stroke-linejoin: miter"/>
   </g>
   <g id="patch_14">
    <path d="M 157.238256 31.088125
L 169.387103 31.088125
L 169.387103 18.939278
L 157.238256 18.939278
z
" clip-path="url(#p8ac299cc76)" style="fill: #ff7f0e; stroke: #ffffff; stroke-linejoin: miter"/>
   </g>
   <g id="patch_15">
    <path d="M 169.387103 31.088125
L 181.53595 31.088125
L 181.53595 18.939278
L 169.387103 18.939278
z
" clip-path="url(#p8ac299cc76)" style="fill: #ffbb78; stroke: #ffffff; stroke-linejoin: miter"/>
   </g>
   <g id="patch_16">
    <path d="M 181.53595 31.088125
L 193.684796 31.088125
L 193.684796 18.939278
L 181.53595 18.939278
z
" clip-path="url(#p8ac299cc76)" style="fill: #ffbb78; stroke: #ffffff; stroke-linejoin: miter"/>
   </g>
   <g id="patch_17">
    <path d="M 193.684796 31.088125
L 205.833643 31.088125
L 205.833643 18.939278
L 193.684796 18.939278
z
" clip-path="url(#p8ac299cc76)" style="fill: #ffbb78; stroke: #ffffff; stroke-linejoin: miter"/>
   </g>
   <g id="patch_18">
    <path d="M 205.833643 31.088125
L 217.98249 31.088125
L 217.98249 18.939278
L 205.833643 18.939278
z
" clip-path="url(#p8ac299cc76)" style="fill: #ffbb78; stroke: #ffffff; stroke-linejoin: miter"/>
   </g>
   <g id="patch_19">
    <path d="M 217.98249 31.088125
L 230.131336 31.088125
L 230.131336 18.939278
L 217.98249 18.939278
z
" clip-path="url(#p8ac299cc76)" style="fill: #2ca02c; stroke: #ffffff; stroke-linejoin: miter"/>
   </g>
   <g id="patch_20">
    <path d="M 230.131336 31.088125
L 242.280183 31.088125
L 242.280183 18.939278
L 230.131336 18.939278
z
" clip-path="url(#p8ac299cc76)" style="fill: #2ca02c; stroke: #ffffff; stroke-linejoin: miter"/>
   </g>
   <g id="patch_21">
    <path d="M 242.280183 31.088125
L 254.42903 31.088125
L 254.42903 18.939278
L 242.280183 18.939278
z
" clip-path="url(#p8ac299cc76)" style="fill: #ffffff; stroke: #ffffff; stroke-linejoin: miter"/>
   </g>
   <g id="patch_22">
    <path d="M 258.681126 31.088125
L 270.829973 31.088125
L 270.829973 18.939278
L 258.681126 18.939278
z
" clip-path="url(#p8ac299cc76)" style="fill: #2ca02c; stroke: #ffffff; stroke-linejoin: miter"/>
   </g>
   <g id="patch_23">
    <path d="M 270.829973 31.088125
L 282.978819 31.088125
L 282.978819 18.939278
L 270.829973 18.939278
z
" clip-path="url(#p8ac299cc76)" style="fill: #2ca02c; stroke: #ffffff; stroke-linejoin: miter"/>
   </g>
   <g id="patch_24">
    <path d="M 282.978819 31.088125
L 295.127666 31.088125
L 295.127666 18.939278
L 282.978819 18.939278
z
" clip-path="url(#p8ac299cc76)" style="fill: #98df8a; stroke: #ffffff; stroke-linejoin: miter"/>
   </g>
   <g id="patch_25">
    <path d="M 295.127666 31.088125
L 307.276513 31.088125
L 307.276513 18.939278
L 295.127666 18.939278
z
" clip-path="url(#p8ac299cc76)" style="fill: #98df8a; stroke: #ffffff; stroke-linejoin: miter"/>
   </g>
   <g id="patch_26">
    <path d="M 307.276513 31.088125
L 319.425359 31.088125
L 319.425359 18.939278
L 307.276513 18.939278
z
" clip-path="url(#p8ac299cc76)" style="fill: #98df8a; stroke: #ffffff; stroke-linejoin: miter"/>
   </g>
   <g id="patch_27">
    <path d="M 319.425359 31.088125
L 331.574206 31.088125
L 331.574206 18.939278
L 319.425359 18.939278
z
" clip-path="url(#p8ac299cc76)" style="fill: #98df8a; stroke: #ffffff; stroke-linejoin: miter"/>
   </g>
   <g id="patch_28">
    <path d="M 331.574206 31.088125
L 343.723053 31.088125
L 343.723053 18.939278
L 331.574206 18.939278
z
" clip-path="url(#p8ac299cc76)" style="fill: #d62728; stroke: #ffffff; stroke-linejoin: miter"/>
   </g>
   <g id="patch_29">
    <path d="M 343.723053 31.088125
L 355.871899 31.088125
L 355.871899 18.939278
L 343.723053 18.939278
z
" clip-path="url(#p8ac299cc76)" style="fill: #d62728; stroke: #ffffff; stroke-linejoin: miter"/>
   </g>
   <g id="patch_30">
    <path d="M 355.871899 31.088125
L 368.020746 31.088125
L 368.020746 18.939278
L 355.871899 18.939278
z
" clip-path="url(#p8ac299cc76)" style="fill: #d62728; stroke: #ffffff; stroke-linejoin: miter"/>
   </g>
   <g id="patch_31">
    <path d="M 368.020746 31.088125
L 380.169593 31.088125
L 380.169593 18.939278
L 368.020746 18.939278
z
" clip-path="url(#p8ac299cc76)" style="fill: #ffffff; stroke: #ffffff; stroke-linejoin: miter"/>
   </g>
   <g id="patch_32">
    <path d="M 384.421689 31.088125
L 396.570536 31.088125
L 396.570536 18.939278
L 384.421689 18.939278
z
" clip-path="url(#p8ac299cc76)" style="fill: #d62728; stroke: #ffffff; stroke-linejoin: miter"/>
   </g>
   <g id="patch_33">
    <path d="M 396.570536 31.088125
L 408.719382 31.088125
L 408.719382 18.939278
L 396.570536 18.939278
z
" clip-path="url(#p8ac299cc76)" style="fill: #d62728; stroke: #ffffff; stroke-linejoin: miter"/>
   </g>
   <g id="patch_34">
    <path d="M 408.719382 31.088125
L 420.868229 31.088125
L 420.868229 18.939278
L 408.719382 18.939278
z
" clip-path="url(#p8ac299cc76)" style="fill: #ff9896; stroke: #ffffff; stroke-linejoin: miter"/>
   </g>
   <g id="patch_35">
    <path d="M 420.868229 31.088125
L 433.017076 31.088125
L 433.017076 18.939278
L 420.868229 18.939278
z
" clip-path="url(#p8ac299cc76)" style="fill: #ff9896; stroke: #ffffff; stroke-linejoin: miter"/>
   </g>
   <g id="patch_36">
    <path d="M 433.017076 31.088125
L 445.165922 31.088125
L 445.165922 18.939278
L 433.017076 18.939278
z
" clip-path="url(#p8ac299cc76)" style="fill: #ff9896; stroke: #ffffff; stroke-linejoin: miter"/>
   </g>
   <g id="patch_37">
    <path d="M 445.165922 31.088125
L 457.314769 31.088125
L 457.314769 18.939278
L 445.165922 18.939278
z
" clip-path="url(#p8ac299cc76)" style="fill: #ff9896; stroke: #ffffff; stroke-linejoin: miter"/>
   </g>
   <g id="patch_38">
    <path d="M 457.314769 31.088125
L 469.463616 31.088125
L 469.463616 18.939278
L 457.314769 18.939278
z
" clip-path="url(#p8ac299cc76)" style="fill: #ffffff; stroke: #ffffff; stroke-linejoin: miter"/>
   </g>
   <g id="text_1">
    <!-- Before rechunking -->
    <g transform="translate(7.2 15.97649) scale(0.08 -0.08)">
     <defs>
      <path id="HelveticaNeue-42" d="M 1107 2605
L 1107 4058
L 2323 4058
Q 2522 4058 2698 4035
Q 2874 4013 3008 3936
Q 3142 3859 3219 3718
Q 3296 3578 3296 3334
Q 3296 2970 3069 2787
Q 2842 2605 2323 2605
L 1107 2605
z
M 499 4570
L 499 0
L 2707 0
Q 3046 0 3305 112
Q 3565 224 3741 406
Q 3917 589 4006 825
Q 4096 1062 4096 1312
Q 4096 1734 3872 2028
Q 3648 2323 3226 2413
L 3226 2426
Q 3552 2554 3728 2819
Q 3904 3085 3904 3450
Q 3904 3795 3747 4032
Q 3590 4269 3366 4403
Q 3264 4467 3120 4499
Q 2976 4531 2809 4547
Q 2643 4563 2473 4566
Q 2304 4570 2157 4570
L 499 4570
z
M 1107 512
L 1107 2093
L 2496 2093
Q 2688 2093 2867 2057
Q 3046 2022 3184 1936
Q 3322 1850 3405 1702
Q 3488 1555 3488 1331
Q 3488 947 3261 729
Q 3034 512 2630 512
L 1107 512
z
" transform="scale(0.015625)"/>
      <path id="HelveticaNeue-65" d="M 2707 1971
L 806 1971
Q 819 2163 889 2332
Q 960 2502 1081 2630
Q 1203 2758 1372 2832
Q 1542 2906 1754 2906
Q 1958 2906 2128 2832
Q 2298 2758 2422 2633
Q 2547 2509 2620 2336
Q 2694 2163 2707 1971
z
M 3232 1050
L 2694 1050
Q 2624 723 2403 563
Q 2182 403 1837 403
Q 1568 403 1369 492
Q 1171 582 1043 732
Q 915 883 857 1078
Q 800 1274 806 1491
L 3283 1491
Q 3296 1792 3229 2125
Q 3162 2458 2986 2739
Q 2810 3021 2518 3203
Q 2227 3386 1786 3386
Q 1446 3386 1161 3258
Q 877 3130 669 2899
Q 461 2669 345 2355
Q 230 2042 230 1664
Q 243 1286 342 966
Q 442 646 640 416
Q 838 186 1129 58
Q 1421 -70 1818 -70
Q 2381 -70 2752 211
Q 3123 493 3232 1050
z
" transform="scale(0.015625)"/>
      <path id="HelveticaNeue-66" d="M 634 2829
L 634 0
L 1178 0
L 1178 2829
L 1818 2829
L 1818 3309
L 1178 3309
L 1178 3770
Q 1178 3987 1286 4064
Q 1395 4141 1594 4141
Q 1664 4141 1747 4131
Q 1830 4122 1901 4096
L 1901 4570
Q 1824 4595 1725 4608
Q 1626 4621 1549 4621
Q 1101 4621 867 4413
Q 634 4205 634 3802
L 634 3309
L 77 3309
L 77 2829
L 634 2829
z
" transform="scale(0.015625)"/>
      <path id="HelveticaNeue-6f" d="M 806 1651
Q 806 1952 886 2185
Q 966 2419 1107 2579
Q 1248 2739 1437 2822
Q 1626 2906 1837 2906
Q 2048 2906 2237 2822
Q 2426 2739 2566 2579
Q 2707 2419 2787 2185
Q 2867 1952 2867 1651
Q 2867 1350 2787 1116
Q 2707 883 2566 726
Q 2426 570 2237 486
Q 2048 403 1837 403
Q 1626 403 1437 486
Q 1248 570 1107 726
Q 966 883 886 1116
Q 806 1350 806 1651
z
M 230 1651
Q 230 1286 332 972
Q 435 659 640 425
Q 845 192 1145 61
Q 1446 -70 1837 -70
Q 2234 -70 2531 61
Q 2829 192 3033 425
Q 3238 659 3340 972
Q 3443 1286 3443 1651
Q 3443 2016 3340 2333
Q 3238 2650 3033 2883
Q 2829 3117 2531 3251
Q 2234 3386 1837 3386
Q 1446 3386 1145 3251
Q 845 3117 640 2883
Q 435 2650 332 2333
Q 230 2016 230 1651
z
" transform="scale(0.015625)"/>
      <path id="HelveticaNeue-72" d="M 390 3309
L 390 0
L 934 0
L 934 1472
Q 934 1792 998 2038
Q 1062 2285 1203 2457
Q 1344 2630 1574 2720
Q 1805 2810 2131 2810
L 2131 3386
Q 1690 3398 1402 3206
Q 1114 3014 915 2611
L 902 2611
L 902 3309
L 390 3309
z
" transform="scale(0.015625)"/>
      <path id="HelveticaNeue-20" transform="scale(0.015625)"/>
      <path id="HelveticaNeue-63" d="M 2656 2246
L 3219 2246
Q 3187 2541 3065 2755
Q 2944 2970 2755 3110
Q 2566 3251 2320 3318
Q 2074 3386 1792 3386
Q 1402 3386 1107 3248
Q 813 3110 617 2870
Q 422 2630 326 2307
Q 230 1984 230 1613
Q 230 1242 329 931
Q 429 621 624 397
Q 819 173 1110 51
Q 1402 -70 1779 -70
Q 2413 -70 2781 262
Q 3149 595 3238 1210
L 2682 1210
Q 2630 826 2403 614
Q 2176 403 1773 403
Q 1517 403 1331 505
Q 1146 608 1030 777
Q 915 947 860 1164
Q 806 1382 806 1613
Q 806 1862 857 2096
Q 909 2330 1027 2509
Q 1146 2688 1344 2797
Q 1542 2906 1837 2906
Q 2182 2906 2387 2733
Q 2592 2560 2656 2246
z
" transform="scale(0.015625)"/>
      <path id="HelveticaNeue-68" d="M 410 4570
L 410 0
L 954 0
L 954 1869
Q 954 2093 1014 2281
Q 1075 2470 1196 2611
Q 1318 2752 1500 2829
Q 1683 2906 1933 2906
Q 2246 2906 2425 2726
Q 2605 2547 2605 2240
L 2605 0
L 3149 0
L 3149 2176
Q 3149 2445 3094 2665
Q 3040 2886 2905 3046
Q 2771 3206 2553 3296
Q 2336 3386 2010 3386
Q 1862 3386 1705 3354
Q 1549 3322 1405 3254
Q 1261 3187 1145 3081
Q 1030 2976 966 2822
L 954 2822
L 954 4570
L 410 4570
z
" transform="scale(0.015625)"/>
      <path id="HelveticaNeue-75" d="M 3149 0
L 3149 3309
L 2605 3309
L 2605 1440
Q 2605 1216 2544 1027
Q 2483 838 2361 697
Q 2240 557 2057 480
Q 1875 403 1626 403
Q 1312 403 1133 582
Q 954 762 954 1069
L 954 3309
L 410 3309
L 410 1133
Q 410 864 464 643
Q 518 422 652 262
Q 787 102 1004 16
Q 1222 -70 1549 -70
Q 1914 -70 2182 74
Q 2451 218 2624 525
L 2637 525
L 2637 0
L 3149 0
z
" transform="scale(0.015625)"/>
      <path id="HelveticaNeue-6e" d="M 410 3309
L 410 0
L 954 0
L 954 1869
Q 954 2093 1014 2281
Q 1075 2470 1196 2611
Q 1318 2752 1500 2829
Q 1683 2906 1933 2906
Q 2246 2906 2425 2726
Q 2605 2547 2605 2240
L 2605 0
L 3149 0
L 3149 2176
Q 3149 2445 3094 2665
Q 3040 2886 2905 3046
Q 2771 3206 2553 3296
Q 2336 3386 2010 3386
Q 1274 3386 934 2784
L 922 2784
L 922 3309
L 410 3309
z
" transform="scale(0.015625)"/>
      <path id="HelveticaNeue-6b" d="M 442 4570
L 442 0
L 986 0
L 986 1254
L 1498 1728
L 2630 0
L 3322 0
L 1914 2106
L 3226 3309
L 2496 3309
L 986 1862
L 986 4570
L 442 4570
z
" transform="scale(0.015625)"/>
      <path id="HelveticaNeue-69" d="M 986 3904
L 986 4570
L 442 4570
L 442 3904
L 986 3904
z
M 442 3309
L 442 0
L 986 0
L 986 3309
L 442 3309
z
" transform="scale(0.015625)"/>
      <path id="HelveticaNeue-67" d="M 3264 282
L 3264 3309
L 2752 3309
L 2752 2835
L 2746 2835
Q 2598 3110 2336 3248
Q 2074 3386 1760 3386
Q 1331 3386 1036 3222
Q 742 3059 563 2806
Q 384 2554 307 2243
Q 230 1933 230 1638
Q 230 1299 323 995
Q 416 691 601 464
Q 787 237 1062 102
Q 1338 -32 1709 -32
Q 2029 -32 2313 112
Q 2598 256 2739 563
L 2752 563
L 2752 346
Q 2752 70 2697 -160
Q 2643 -390 2521 -553
Q 2400 -717 2214 -809
Q 2029 -902 1760 -902
Q 1626 -902 1478 -873
Q 1331 -845 1206 -781
Q 1082 -717 995 -614
Q 909 -512 902 -365
L 358 -365
Q 371 -634 499 -819
Q 627 -1005 822 -1120
Q 1018 -1235 1258 -1286
Q 1498 -1338 1728 -1338
Q 2522 -1338 2893 -934
Q 3264 -531 3264 282
z
M 1741 442
Q 1472 442 1293 554
Q 1114 666 1005 848
Q 896 1030 851 1254
Q 806 1478 806 1702
Q 806 1939 860 2156
Q 915 2374 1033 2540
Q 1152 2707 1337 2806
Q 1523 2906 1786 2906
Q 2042 2906 2221 2803
Q 2400 2701 2512 2531
Q 2624 2362 2675 2150
Q 2726 1939 2726 1722
Q 2726 1491 2672 1260
Q 2618 1030 2502 848
Q 2387 666 2198 554
Q 2010 442 1741 442
z
" transform="scale(0.015625)"/>
     </defs>
     <use xlink:href="#HelveticaNeue-42"/>
     <use xlink:href="#HelveticaNeue-65" x="68.499985"/>
     <use xlink:href="#HelveticaNeue-66" x="122.199982"/>
     <use xlink:href="#HelveticaNeue-6f" x="151.799973"/>
     <use xlink:href="#HelveticaNeue-72" x="209.199966"/>
     <use xlink:href="#HelveticaNeue-65" x="240.749954"/>
     <use xlink:href="#HelveticaNeue-20" x="294.449951"/>
     <use xlink:href="#HelveticaNeue-72" x="322.249939"/>
     <use xlink:href="#HelveticaNeue-65" x="353.799927"/>
     <use xlink:href="#HelveticaNeue-63" x="407.499924"/>
     <use xlink:href="#HelveticaNeue-68" x="461.199921"/>
     <use xlink:href="#HelveticaNeue-75" x="516.799911"/>
     <use xlink:href="#HelveticaNeue-6e" x="572.399902"/>
     <use xlink:href="#HelveticaNeue-6b" x="627.999893"/>
     <use xlink:href="#HelveticaNeue-69" x="679.899887"/>
     <use xlink:href="#HelveticaNeue-6e" x="702.099884"/>
     <use xlink:href="#HelveticaNeue-67" x="757.699875"/>
    </g>
   </g>
  </g>
  <g id="axes_2">
   <g id="patch_39">
    <path d="M 7.2 67.088125
L 19.348847 67.088125
L 19.348847 54.939278
L 7.2 54.939278
z
" clip-path="url(#pbcd27ea80b)" style="fill: #1f77b4; stroke: #ffffff; stroke-linejoin: miter"/>
   </g>
   <g id="patch_40">
    <path d="M 19.348847 67.088125
L 31.497693 67.088125
L 31.497693 54.939278
L 19.348847 54.939278
z
" clip-path="url(#pbcd27ea80b)" style="fill: #1f77b4; stroke: #ffffff; stroke-linejoin: miter"/>
   </g>
   <g id="patch_41">
    <path d="M 31.497693 67.088125
L 43.64654 67.088125
L 43.64654 54.939278
L 31.497693 54.939278
z
" clip-path="url(#pbcd27ea80b)" style="fill: #1f77b4; stroke: #ffffff; stroke-linejoin: miter"/>
   </g>
   <g id="patch_42">
    <path d="M 43.64654 67.088125
L 55.795387 67.088125
L 55.795387 54.939278
L 43.64654 54.939278
z
" clip-path="url(#pbcd27ea80b)" style="fill: #1f77b4; stroke: #ffffff; stroke-linejoin: miter"/>
   </g>
   <g id="patch_43">
    <path d="M 55.795387 67.088125
L 67.944233 67.088125
L 67.944233 54.939278
L 55.795387 54.939278
z
" clip-path="url(#pbcd27ea80b)" style="fill: #aec7e8; stroke: #ffffff; stroke-linejoin: miter"/>
   </g>
   <g id="patch_44">
    <path d="M 67.944233 67.088125
L 80.09308 67.088125
L 80.09308 54.939278
L 67.944233 54.939278
z
" clip-path="url(#pbcd27ea80b)" style="fill: #aec7e8; stroke: #ffffff; stroke-linejoin: miter"/>
   </g>
   <g id="patch_45">
    <path d="M 80.09308 67.088125
L 92.241927 67.088125
L 92.241927 54.939278
L 80.09308 54.939278
z
" clip-path="url(#pbcd27ea80b)" style="fill: #aec7e8; stroke: #ffffff; stroke-linejoin: miter"/>
   </g>
   <g id="patch_46">
    <path d="M 92.241927 67.088125
L 104.390773 67.088125
L 104.390773 54.939278
L 92.241927 54.939278
z
" clip-path="url(#pbcd27ea80b)" style="fill: #aec7e8; stroke: #ffffff; stroke-linejoin: miter"/>
   </g>
   <g id="patch_47">
    <path d="M 104.390773 67.088125
L 116.53962 67.088125
L 116.53962 54.939278
L 104.390773 54.939278
z
" clip-path="url(#pbcd27ea80b)" style="fill: #ffffff; stroke: #ffffff; stroke-linejoin: miter"/>
   </g>
   <g id="patch_48">
    <path d="M 118.969389 67.088125
L 131.118236 67.088125
L 131.118236 54.939278
L 118.969389 54.939278
z
" clip-path="url(#pbcd27ea80b)" style="fill: #ff7f0e; stroke: #ffffff; stroke-linejoin: miter"/>
   </g>
   <g id="patch_49">
    <path d="M 131.118236 67.088125
L 143.267083 67.088125
L 143.267083 54.939278
L 131.118236 54.939278
z
" clip-path="url(#pbcd27ea80b)" style="fill: #ff7f0e; stroke: #ffffff; stroke-linejoin: miter"/>
   </g>
   <g id="patch_50">
    <path d="M 143.267083 67.088125
L 155.415929 67.088125
L 155.415929 54.939278
L 143.267083 54.939278
z
" clip-path="url(#pbcd27ea80b)" style="fill: #ff7f0e; stroke: #ffffff; stroke-linejoin: miter"/>
   </g>
   <g id="patch_51">
    <path d="M 155.415929 67.088125
L 167.564776 67.088125
L 167.564776 54.939278
L 155.415929 54.939278
z
" clip-path="url(#pbcd27ea80b)" style="fill: #ff7f0e; stroke: #ffffff; stroke-linejoin: miter"/>
   </g>
   <g id="patch_52">
    <path d="M 167.564776 67.088125
L 179.713623 67.088125
L 179.713623 54.939278
L 167.564776 54.939278
z
" clip-path="url(#pbcd27ea80b)" style="fill: #ffbb78; stroke: #ffffff; stroke-linejoin: miter"/>
   </g>
   <g id="patch_53">
    <path d="M 179.713623 67.088125
L 191.862469 67.088125
L 191.862469 54.939278
L 179.713623 54.939278
z
" clip-path="url(#pbcd27ea80b)" style="fill: #ffbb78; stroke: #ffffff; stroke-linejoin: miter"/>
   </g>
   <g id="patch_54">
    <path d="M 191.862469 67.088125
L 204.011316 67.088125
L 204.011316 54.939278
L 191.862469 54.939278
z
" clip-path="url(#pbcd27ea80b)" style="fill: #ffbb78; stroke: #ffffff; stroke-linejoin: miter"/>
   </g>
   <g id="patch_55">
    <path d="M 204.011316 67.088125
L 216.160163 67.088125
L 216.160163 54.939278
L 204.011316 54.939278
z
" clip-path="url(#pbcd27ea80b)" style="fill: #ffbb78; stroke: #ffffff; stroke-linejoin: miter"/>
   </g>
   <g id="patch_56">
    <path d="M 216.160163 67.088125
L 228.309009 67.088125
L 228.309009 54.939278
L 216.160163 54.939278
z
" clip-path="url(#pbcd27ea80b)" style="fill: #ffffff; stroke: #ffffff; stroke-linejoin: miter"/>
   </g>
   <g id="patch_57">
    <path d="M 230.738779 67.088125
L 242.887625 67.088125
L 242.887625 54.939278
L 230.738779 54.939278
z
" clip-path="url(#pbcd27ea80b)" style="fill: #2ca02c; stroke: #ffffff; stroke-linejoin: miter"/>
   </g>
   <g id="patch_58">
    <path d="M 242.887625 67.088125
L 255.036472 67.088125
L 255.036472 54.939278
L 242.887625 54.939278
z
" clip-path="url(#pbcd27ea80b)" style="fill: #2ca02c; stroke: #ffffff; stroke-linejoin: miter"/>
   </g>
   <g id="patch_59">
    <path d="M 255.036472 67.088125
L 267.185319 67.088125
L 267.185319 54.939278
L 255.036472 54.939278
z
" clip-path="url(#pbcd27ea80b)" style="fill: #2ca02c; stroke: #ffffff; stroke-linejoin: miter"/>
   </g>
   <g id="patch_60">
    <path d="M 267.185319 67.088125
L 279.334165 67.088125
L 279.334165 54.939278
L 267.185319 54.939278
z
" clip-path="url(#pbcd27ea80b)" style="fill: #2ca02c; stroke: #ffffff; stroke-linejoin: miter"/>
   </g>
   <g id="patch_61">
    <path d="M 279.334165 67.088125
L 291.483012 67.088125
L 291.483012 54.939278
L 279.334165 54.939278
z
" clip-path="url(#pbcd27ea80b)" style="fill: #98df8a; stroke: #ffffff; stroke-linejoin: miter"/>
   </g>
   <g id="patch_62">
    <path d="M 291.483012 67.088125
L 303.631859 67.088125
L 303.631859 54.939278
L 291.483012 54.939278
z
" clip-path="url(#pbcd27ea80b)" style="fill: #98df8a; stroke: #ffffff; stroke-linejoin: miter"/>
   </g>
   <g id="patch_63">
    <path d="M 303.631859 67.088125
L 315.780705 67.088125
L 315.780705 54.939278
L 303.631859 54.939278
z
" clip-path="url(#pbcd27ea80b)" style="fill: #98df8a; stroke: #ffffff; stroke-linejoin: miter"/>
   </g>
   <g id="patch_64">
    <path d="M 315.780705 67.088125
L 327.929552 67.088125
L 327.929552 54.939278
L 315.780705 54.939278
z
" clip-path="url(#pbcd27ea80b)" style="fill: #98df8a; stroke: #ffffff; stroke-linejoin: miter"/>
   </g>
   <g id="patch_65">
    <path d="M 327.929552 67.088125
L 340.078399 67.088125
L 340.078399 54.939278
L 327.929552 54.939278
z
" clip-path="url(#pbcd27ea80b)" style="fill: #d62728; stroke: #ffffff; stroke-linejoin: miter"/>
   </g>
   <g id="patch_66">
    <path d="M 340.078399 67.088125
L 352.227245 67.088125
L 352.227245 54.939278
L 340.078399 54.939278
z
" clip-path="url(#pbcd27ea80b)" style="fill: #d62728; stroke: #ffffff; stroke-linejoin: miter"/>
   </g>
   <g id="patch_67">
    <path d="M 352.227245 67.088125
L 364.376092 67.088125
L 364.376092 54.939278
L 352.227245 54.939278
z
" clip-path="url(#pbcd27ea80b)" style="fill: #d62728; stroke: #ffffff; stroke-linejoin: miter"/>
   </g>
   <g id="patch_68">
    <path d="M 364.376092 67.088125
L 376.524939 67.088125
L 376.524939 54.939278
L 364.376092 54.939278
z
" clip-path="url(#pbcd27ea80b)" style="fill: #d62728; stroke: #ffffff; stroke-linejoin: miter"/>
   </g>
   <g id="patch_69">
    <path d="M 376.524939 67.088125
L 388.673785 67.088125
L 388.673785 54.939278
L 376.524939 54.939278
z
" clip-path="url(#pbcd27ea80b)" style="fill: #d62728; stroke: #ffffff; stroke-linejoin: miter"/>
   </g>
   <g id="patch_70">
    <path d="M 388.673785 67.088125
L 400.822632 67.088125
L 400.822632 54.939278
L 388.673785 54.939278
z
" clip-path="url(#pbcd27ea80b)" style="fill: #ffffff; stroke: #ffffff; stroke-linejoin: miter"/>
   </g>
   <g id="patch_71">
    <path d="M 412.364036 67.088125
L 424.512883 67.088125
L 424.512883 54.939278
L 412.364036 54.939278
z
" clip-path="url(#pbcd27ea80b)" style="fill: #ff9896; stroke: #ffffff; stroke-linejoin: miter"/>
   </g>
   <g id="patch_72">
    <path d="M 424.512883 67.088125
L 436.66173 67.088125
L 436.66173 54.939278
L 424.512883 54.939278
z
" clip-path="url(#pbcd27ea80b)" style="fill: #ff9896; stroke: #ffffff; stroke-linejoin: miter"/>
   </g>
   <g id="patch_73">
    <path d="M 436.66173 67.088125
L 448.810576 67.088125
L 448.810576 54.939278
L 436.66173 54.939278
z
" clip-path="url(#pbcd27ea80b)" style="fill: #ff9896; stroke: #ffffff; stroke-linejoin: miter"/>
   </g>
   <g id="patch_74">
    <path d="M 448.810576 67.088125
L 460.959423 67.088125
L 460.959423 54.939278
L 448.810576 54.939278
z
" clip-path="url(#pbcd27ea80b)" style="fill: #ff9896; stroke: #ffffff; stroke-linejoin: miter"/>
   </g>
   <g id="patch_75">
    <path d="M 460.959423 67.088125
L 473.10827 67.088125
L 473.10827 54.939278
L 460.959423 54.939278
z
" clip-path="url(#pbcd27ea80b)" style="fill: #ffffff; stroke: #ffffff; stroke-linejoin: miter"/>
   </g>
   <g id="text_2">
    <!-- After rechunking -->
    <g transform="translate(7.2 51.97649) scale(0.08 -0.08)">
     <defs>
      <path id="HelveticaNeue-41" d="M 1286 1888
L 2061 4019
L 2074 4019
L 2835 1888
L 1286 1888
z
M 1741 4570
L -38 0
L 582 0
L 1094 1376
L 3027 1376
L 3526 0
L 4198 0
L 2413 4570
L 1741 4570
z
" transform="scale(0.015625)"/>
      <path id="HelveticaNeue-74" d="M 1165 3309
L 1165 4301
L 621 4301
L 621 3309
L 58 3309
L 58 2829
L 621 2829
L 621 723
Q 621 493 665 352
Q 710 211 803 134
Q 896 58 1046 29
Q 1197 0 1408 0
L 1824 0
L 1824 480
L 1574 480
Q 1446 480 1366 489
Q 1286 499 1241 531
Q 1197 563 1181 620
Q 1165 678 1165 774
L 1165 2829
L 1824 2829
L 1824 3309
L 1165 3309
z
" transform="scale(0.015625)"/>
     </defs>
     <use xlink:href="#HelveticaNeue-41"/>
     <use xlink:href="#HelveticaNeue-66" x="64.799988"/>
     <use xlink:href="#HelveticaNeue-74" x="94.399979"/>
     <use xlink:href="#HelveticaNeue-65" x="125.899963"/>
     <use xlink:href="#HelveticaNeue-72" x="179.59996"/>
     <use xlink:href="#HelveticaNeue-20" x="212.899948"/>
     <use xlink:href="#HelveticaNeue-72" x="240.699936"/>
     <use xlink:href="#HelveticaNeue-65" x="272.249924"/>
     <use xlink:href="#HelveticaNeue-63" x="325.949921"/>
     <use xlink:href="#HelveticaNeue-68" x="379.649918"/>
     <use xlink:href="#HelveticaNeue-75" x="435.249908"/>
     <use xlink:href="#HelveticaNeue-6e" x="490.849899"/>
     <use xlink:href="#HelveticaNeue-6b" x="546.44989"/>
     <use xlink:href="#HelveticaNeue-69" x="598.349884"/>
     <use xlink:href="#HelveticaNeue-6e" x="620.549881"/>
     <use xlink:href="#HelveticaNeue-67" x="676.149872"/>
    </g>
   </g>
  </g>
  <g id="axes_3">
   <g id="patch_76">
    <path d="M 189.4327 103.088125
L 201.581547 103.088125
L 201.581547 90.939278
L 189.4327 90.939278
z
" clip-path="url(#pb7de37a75f)" style="fill: #1f77b4; stroke: #ffffff; stroke-linejoin: miter"/>
   </g>
   <g id="patch_77">
    <path d="M 201.581547 103.088125
L 213.730393 103.088125
L 213.730393 90.939278
L 201.581547 90.939278
z
" clip-path="url(#pb7de37a75f)" style="fill: #aec7e8; stroke: #ffffff; stroke-linejoin: miter"/>
   </g>
   <g id="patch_78">
    <path d="M 213.730393 103.088125
L 225.87924 103.088125
L 225.87924 90.939278
L 213.730393 90.939278
z
" clip-path="url(#pb7de37a75f)" style="fill: #ffffff; stroke: #ffffff; stroke-linejoin: miter"/>
   </g>
   <g id="patch_79">
    <path d="M 217.375047 103.088125
L 229.523894 103.088125
L 229.523894 90.939278
L 217.375047 90.939278
z
" clip-path="url(#pb7de37a75f)" style="fill: #ff7f0e; stroke: #ffffff; stroke-linejoin: miter"/>
   </g>
   <g id="patch_80">
    <path d="M 229.523894 103.088125
L 241.672741 103.088125
L 241.672741 90.939278
L 229.523894 90.939278
z
" clip-path="url(#pb7de37a75f)" style="fill: #ffbb78; stroke: #ffffff; stroke-linejoin: miter"/>
   </g>
   <g id="patch_81">
    <path d="M 241.672741 103.088125
L 253.821587 103.088125
L 253.821587 90.939278
L 241.672741 90.939278
z
" clip-path="url(#pb7de37a75f)" style="fill: #ffffff; stroke: #ffffff; stroke-linejoin: miter"/>
   </g>
   <g id="patch_82">
    <path d="M 245.317395 103.088125
L 257.466241 103.088125
L 257.466241 90.939278
L 245.317395 90.939278
z
" clip-path="url(#pb7de37a75f)" style="fill: #2ca02c; stroke: #ffffff; stroke-linejoin: miter"/>
   </g>
   <g id="patch_83">
    <path d="M 257.466241 103.088125
L 269.615088 103.088125
L 269.615088 90.939278
L 257.466241 90.939278
z
" clip-path="url(#pb7de37a75f)" style="fill: #98df8a; stroke: #ffffff; stroke-linejoin: miter"/>
   </g>
   <g id="patch_84">
    <path d="M 269.615088 103.088125
L 281.763935 103.088125
L 281.763935 90.939278
L 269.615088 90.939278
z
" clip-path="url(#pb7de37a75f)" style="fill: #d62728; stroke: #ffffff; stroke-linejoin: miter"/>
   </g>
   <g id="patch_85">
    <path d="M 281.763935 103.088125
L 293.912781 103.088125
L 293.912781 90.939278
L 281.763935 90.939278
z
" clip-path="url(#pb7de37a75f)" style="fill: #ffffff; stroke: #ffffff; stroke-linejoin: miter"/>
   </g>
   <g id="patch_86">
    <path d="M 287.230916 103.088125
L 299.379762 103.088125
L 299.379762 90.939278
L 287.230916 90.939278
z
" clip-path="url(#pb7de37a75f)" style="fill: #ff9896; stroke: #ffffff; stroke-linejoin: miter"/>
   </g>
   <g id="patch_87">
    <path d="M 299.379762 103.088125
L 311.528609 103.088125
L 311.528609 90.939278
L 299.379762 90.939278
z
" clip-path="url(#pb7de37a75f)" style="fill: #ffffff; stroke: #ffffff; stroke-linejoin: miter"/>
   </g>
   <g id="text_3">
    <!-- After reducing -->
    <g transform="translate(7.2 87.97649) scale(0.08 -0.08)">
     <defs>
      <path id="HelveticaNeue-64" d="M 806 1626
Q 806 1869 857 2099
Q 909 2330 1024 2509
Q 1139 2688 1331 2797
Q 1523 2906 1798 2906
Q 2080 2906 2278 2800
Q 2477 2694 2601 2521
Q 2726 2349 2784 2121
Q 2842 1894 2842 1651
Q 2842 1421 2787 1197
Q 2733 973 2611 797
Q 2490 621 2298 512
Q 2106 403 1830 403
Q 1568 403 1373 505
Q 1178 608 1053 781
Q 928 954 867 1174
Q 806 1395 806 1626
z
M 3366 0
L 3366 4570
L 2822 4570
L 2822 2867
L 2810 2867
Q 2720 3014 2589 3113
Q 2458 3213 2310 3273
Q 2163 3334 2016 3360
Q 1869 3386 1741 3386
Q 1363 3386 1078 3248
Q 794 3110 605 2876
Q 416 2643 323 2329
Q 230 2016 230 1664
Q 230 1312 326 998
Q 422 685 611 448
Q 800 211 1085 70
Q 1370 -70 1754 -70
Q 2099 -70 2387 51
Q 2675 173 2810 448
L 2822 448
L 2822 0
L 3366 0
z
" transform="scale(0.015625)"/>
     </defs>
     <use xlink:href="#HelveticaNeue-41"/>
     <use xlink:href="#HelveticaNeue-66" x="64.799988"/>
     <use xlink:href="#HelveticaNeue-74" x="94.399979"/>
     <use xlink:href="#HelveticaNeue-65" x="125.899963"/>
     <use xlink:href="#HelveticaNeue-72" x="179.59996"/>
     <use xlink:href="#HelveticaNeue-20" x="212.899948"/>
     <use xlink:href="#HelveticaNeue-72" x="240.699936"/>
     <use xlink:href="#HelveticaNeue-65" x="272.249924"/>
     <use xlink:href="#HelveticaNeue-64" x="325.949921"/>
     <use xlink:href="#HelveticaNeue-75" x="385.249908"/>
     <use xlink:href="#HelveticaNeue-63" x="440.849899"/>
     <use xlink:href="#HelveticaNeue-69" x="494.549896"/>
     <use xlink:href="#HelveticaNeue-6e" x="516.749893"/>
     <use xlink:href="#HelveticaNeue-67" x="572.349884"/>
    </g>
   </g>
  </g>
  <g id="text_4">
   <!-- method='blockwise' -->
   <g transform="translate(197.464027 14.063906) scale(0.09 -0.09)">
    <defs>
     <path id="Menlo-Regular-6d" d="M 2113 3144
Q 2219 3369 2383 3476
Q 2547 3584 2778 3584
Q 3200 3584 3373 3257
Q 3547 2931 3547 2028
L 3547 0
L 3022 0
L 3022 2003
Q 3022 2744 2939 2923
Q 2856 3103 2638 3103
Q 2388 3103 2295 2911
Q 2203 2719 2203 2003
L 2203 0
L 1678 0
L 1678 2003
Q 1678 2753 1589 2928
Q 1500 3103 1269 3103
Q 1041 3103 952 2911
Q 863 2719 863 2003
L 863 0
L 341 0
L 341 3500
L 863 3500
L 863 3200
Q 966 3388 1120 3486
Q 1275 3584 1472 3584
Q 1709 3584 1867 3475
Q 2025 3366 2113 3144
z
" transform="scale(0.015625)"/>
     <path id="Menlo-Regular-65" d="M 3500 2038
L 3500 1756
L 1009 1756
L 1009 1738
Q 984 1022 1282 709
Q 1581 397 2125 397
Q 2400 397 2700 484
Q 3000 572 3341 750
L 3341 178
Q 3013 44 2708 -23
Q 2403 -91 2119 -91
Q 1303 -91 843 398
Q 384 888 384 1747
Q 384 2584 834 3084
Q 1284 3584 2034 3584
Q 2703 3584 3089 3131
Q 3475 2678 3500 2038
z
M 2925 2206
Q 2888 2569 2661 2833
Q 2434 3097 2009 3097
Q 1594 3097 1325 2822
Q 1056 2547 1031 2203
L 2925 2206
z
" transform="scale(0.015625)"/>
     <path id="Menlo-Regular-74" d="M 1919 4494
L 1919 3500
L 3225 3500
L 3225 3053
L 1919 3053
L 1919 1153
Q 1919 766 2066 612
Q 2213 459 2578 459
L 3225 459
L 3225 0
L 2522 0
Q 1875 0 1609 259
Q 1344 519 1344 1153
L 1344 3053
L 409 3053
L 409 3500
L 1344 3500
L 1344 4494
L 1919 4494
z
" transform="scale(0.015625)"/>
     <path id="Menlo-Regular-68" d="M 3284 2169
L 3284 0
L 2706 0
L 2706 2169
Q 2706 2641 2540 2862
Q 2375 3084 2022 3084
Q 1619 3084 1401 2798
Q 1184 2513 1184 1978
L 1184 0
L 609 0
L 609 4863
L 1184 4863
L 1184 2975
Q 1338 3275 1600 3429
Q 1863 3584 2222 3584
Q 2756 3584 3020 3232
Q 3284 2881 3284 2169
z
" transform="scale(0.015625)"/>
     <path id="Menlo-Regular-6f" d="M 1925 3097
Q 1488 3097 1263 2756
Q 1038 2416 1038 1747
Q 1038 1081 1263 739
Q 1488 397 1925 397
Q 2366 397 2591 739
Q 2816 1081 2816 1747
Q 2816 2416 2591 2756
Q 2366 3097 1925 3097
z
M 1925 3584
Q 2653 3584 3039 3112
Q 3425 2641 3425 1747
Q 3425 850 3040 379
Q 2656 -91 1925 -91
Q 1197 -91 812 379
Q 428 850 428 1747
Q 428 2641 812 3112
Q 1197 3584 1925 3584
z
" transform="scale(0.015625)"/>
     <path id="Menlo-Regular-64" d="M 2681 3053
L 2681 4863
L 3256 4863
L 3256 0
L 2681 0
L 2681 441
Q 2538 181 2298 45
Q 2059 -91 1747 -91
Q 1113 -91 748 401
Q 384 894 384 1759
Q 384 2613 750 3098
Q 1116 3584 1747 3584
Q 2063 3584 2303 3448
Q 2544 3313 2681 3053
z
M 991 1747
Q 991 1078 1203 737
Q 1416 397 1831 397
Q 2247 397 2464 740
Q 2681 1084 2681 1747
Q 2681 2413 2464 2755
Q 2247 3097 1831 3097
Q 1416 3097 1203 2756
Q 991 2416 991 1747
z
" transform="scale(0.015625)"/>
     <path id="Menlo-Regular-3d" d="M 275 1563
L 3578 1563
L 3578 1034
L 275 1034
L 275 1563
z
M 275 3034
L 3578 3034
L 3578 2506
L 275 2506
L 275 3034
z
" transform="scale(0.015625)"/>
     <path id="Menlo-Regular-27" d="M 2319 4869
L 2319 2922
L 1619 2922
L 1619 4869
L 2319 4869
z
" transform="scale(0.015625)"/>
     <path id="Menlo-Regular-62" d="M 2869 1747
Q 2869 2416 2656 2756
Q 2444 3097 2028 3097
Q 1609 3097 1393 2755
Q 1178 2413 1178 1747
Q 1178 1084 1393 740
Q 1609 397 2028 397
Q 2444 397 2656 737
Q 2869 1078 2869 1747
z
M 1178 3053
Q 1316 3309 1558 3446
Q 1800 3584 2119 3584
Q 2750 3584 3112 3098
Q 3475 2613 3475 1759
Q 3475 894 3111 401
Q 2747 -91 2113 -91
Q 1800 -91 1561 45
Q 1322 181 1178 441
L 1178 0
L 603 0
L 603 4863
L 1178 4863
L 1178 3053
z
" transform="scale(0.015625)"/>
     <path id="Menlo-Regular-6c" d="M 2247 1266
Q 2247 878 2389 681
Q 2531 484 2809 484
L 3481 484
L 3481 0
L 2753 0
Q 2238 0 1955 329
Q 1672 659 1672 1266
L 1672 4431
L 750 4431
L 750 4881
L 2247 4881
L 2247 1266
z
" transform="scale(0.015625)"/>
     <path id="Menlo-Regular-63" d="M 3316 178
Q 3084 44 2839 -23
Q 2594 -91 2338 -91
Q 1525 -91 1067 396
Q 609 884 609 1747
Q 609 2609 1067 3096
Q 1525 3584 2338 3584
Q 2591 3584 2831 3518
Q 3072 3453 3316 3316
L 3316 2713
Q 3088 2916 2858 3006
Q 2628 3097 2338 3097
Q 1797 3097 1506 2747
Q 1216 2397 1216 1747
Q 1216 1100 1508 748
Q 1800 397 2338 397
Q 2638 397 2875 489
Q 3113 581 3316 775
L 3316 178
z
" transform="scale(0.015625)"/>
     <path id="Menlo-Regular-6b" d="M 738 4863
L 1331 4863
L 1331 2047
L 2841 3500
L 3541 3500
L 2163 2181
L 3756 0
L 3053 0
L 1759 1806
L 1331 1403
L 1331 0
L 738 0
L 738 4863
z
" transform="scale(0.015625)"/>
     <path id="Menlo-Regular-77" d="M 0 3500
L 569 3500
L 1178 672
L 1678 2478
L 2169 2478
L 2675 672
L 3284 3500
L 3853 3500
L 3034 0
L 2484 0
L 1925 1919
L 1369 0
L 819 0
L 0 3500
z
" transform="scale(0.015625)"/>
     <path id="Menlo-Regular-69" d="M 988 3488
L 2459 3488
L 2459 447
L 3600 447
L 3600 0
L 744 0
L 744 447
L 1884 447
L 1884 3041
L 988 3041
L 988 3488
z
M 1884 4847
L 2459 4847
L 2459 4122
L 1884 4122
L 1884 4847
z
" transform="scale(0.015625)"/>
     <path id="Menlo-Regular-73" d="M 3041 3378
L 3041 2816
Q 2794 2959 2544 3031
Q 2294 3103 2034 3103
Q 1644 3103 1451 2976
Q 1259 2850 1259 2591
Q 1259 2356 1403 2240
Q 1547 2125 2119 2016
L 2350 1972
Q 2778 1891 2998 1647
Q 3219 1403 3219 1013
Q 3219 494 2850 201
Q 2481 -91 1825 -91
Q 1566 -91 1281 -36
Q 997 19 666 128
L 666 722
Q 988 556 1281 473
Q 1575 391 1838 391
Q 2219 391 2428 545
Q 2638 700 2638 978
Q 2638 1378 1872 1531
L 1847 1538
L 1631 1581
Q 1134 1678 906 1908
Q 678 2138 678 2534
Q 678 3038 1018 3311
Q 1359 3584 1991 3584
Q 2272 3584 2531 3532
Q 2791 3481 3041 3378
z
" transform="scale(0.015625)"/>
    </defs>
    <use xlink:href="#Menlo-Regular-6d"/>
    <use xlink:href="#Menlo-Regular-65" x="60.205078"/>
    <use xlink:href="#Menlo-Regular-74" x="120.410156"/>
    <use xlink:href="#Menlo-Regular-68" x="180.615234"/>
    <use xlink:href="#Menlo-Regular-6f" x="240.820312"/>
    <use xlink:href="#Menlo-Regular-64" x="301.025391"/>
    <use xlink:href="#Menlo-Regular-3d" x="361.230469"/>
    <use xlink:href="#Menlo-Regular-27" x="421.435547"/>
    <use xlink:href="#Menlo-Regular-62" x="481.640625"/>
    <use xlink:href="#Menlo-Regular-6c" x="541.845703"/>
    <use xlink:href="#Menlo-Regular-6f" x="602.050781"/>
    <use xlink:href="#Menlo-Regular-63" x="662.255859"/>
    <use xlink:href="#Menlo-Regular-6b" x="722.460938"/>
    <use xlink:href="#Menlo-Regular-77" x="782.666016"/>
    <use xlink:href="#Menlo-Regular-69" x="842.871094"/>
    <use xlink:href="#Menlo-Regular-73" x="903.076172"/>
    <use xlink:href="#Menlo-Regular-65" x="963.28125"/>
    <use xlink:href="#Menlo-Regular-27" x="1023.486328"/>
   </g>
  </g>
 </g>
 <defs>
  <clipPath id="p8ac299cc76">
   <rect x="7.2" y="21.97649" width="478.057116" height="18.22327"/>
  </clipPath>
  <clipPath id="pbcd27ea80b">
   <rect x="7.2" y="57.97649" width="478.057116" height="18.22327"/>
  </clipPath>
  <clipPath id="pb7de37a75f">
   <rect x="7.2" y="93.97649" width="478.057116" height="18.22327"/>
  </clipPath>
 </defs>
</svg>
