<?xml version="1.0" encoding="utf-8" standalone="no"?>
<!DOCTYPE svg PUBLIC "-//W3C//DTD SVG 1.1//EN"
  "http://www.w3.org/Graphics/SVG/1.1/DTD/svg11.dtd">
<svg xmlns:xlink="http://www.w3.org/1999/xlink" width="584.39952pt" height="213.197156pt" viewBox="0 0 584.39952 213.197156" xmlns="http://www.w3.org/2000/svg" version="1.1">
 <metadata>
  <rdf:RDF xmlns:dc="http://purl.org/dc/elements/1.1/" xmlns:cc="http://creativecommons.org/ns#" xmlns:rdf="http://www.w3.org/1999/02/22-rdf-syntax-ns#">
   <cc:Work>
    <dc:type rdf:resource="http://purl.org/dc/dcmitype/StillImage"/>
    <dc:date>2022-11-26T15:23:21.390398</dc:date>
    <dc:format>image/svg+xml</dc:format>
    <dc:creator>
     <cc:Agent>
      <dc:title>Matplotlib v3.6.2, https://matplotlib.org/</dc:title>
     </cc:Agent>
    </dc:creator>
   </cc:Work>
  </rdf:RDF>
 </metadata>
 <defs>
  <style type="text/css">*{stroke-linejoin: round; stroke-linecap: butt}</style>
 </defs>
 <g id="figure_1">
  <g id="patch_1">
   <path d="M 0 213.197156
L 584.39952 213.197156
L 584.39952 0
L 0 0
L 0 213.197156
z
" style="fill: none"/>
  </g>
  <g id="axes_1">
   <g id="patch_2">
    <path d="M 47.264377 201.545559
L 56.167572 201.545559
L 56.167572 192.642364
L 47.264377 192.642364
z
" clip-path="url(#pbcb344bb41)" style="fill: #e377c2; stroke: #ffffff; stroke-linejoin: miter"/>
   </g>
   <g id="patch_3">
    <path d="M 56.167572 201.545559
L 65.070766 201.545559
L 65.070766 192.642364
L 56.167572 192.642364
z
" clip-path="url(#pbcb344bb41)" style="fill: #e377c2; stroke: #ffffff; stroke-linejoin: miter"/>
   </g>
   <g id="patch_4">
    <path d="M 65.070766 201.545559
L 73.973961 201.545559
L 73.973961 192.642364
L 65.070766 192.642364
z
" clip-path="url(#pbcb344bb41)" style="fill: #8c564b; stroke: #ffffff; stroke-linejoin: miter"/>
   </g>
   <g id="patch_5">
    <path d="M 73.973961 201.545559
L 82.877156 201.545559
L 82.877156 192.642364
L 73.973961 192.642364
z
" clip-path="url(#pbcb344bb41)" style="fill: #8c564b; stroke: #ffffff; stroke-linejoin: miter"/>
   </g>
   <g id="patch_6">
    <path d="M 82.877156 201.545559
L 91.780351 201.545559
L 91.780351 192.642364
L 82.877156 192.642364
z
" clip-path="url(#pbcb344bb41)" style="fill: #7f7f7f; stroke: #ffffff; stroke-linejoin: miter"/>
   </g>
   <g id="patch_7">
    <path d="M 47.264377 192.642364
L 56.167572 192.642364
L 56.167572 183.739169
L 47.264377 183.739169
z
" clip-path="url(#pbcb344bb41)" style="fill: #7f7f7f; stroke: #ffffff; stroke-linejoin: miter"/>
   </g>
   <g id="patch_8">
    <path d="M 56.167572 192.642364
L 65.070766 192.642364
L 65.070766 183.739169
L 56.167572 183.739169
z
" clip-path="url(#pbcb344bb41)" style="fill: #e377c2; stroke: #ffffff; stroke-linejoin: miter"/>
   </g>
   <g id="patch_9">
    <path d="M 65.070766 192.642364
L 73.973961 192.642364
L 73.973961 183.739169
L 65.070766 183.739169
z
" clip-path="url(#pbcb344bb41)" style="fill: #17becf; stroke: #ffffff; stroke-linejoin: miter"/>
   </g>
   <g id="patch_10">
    <path d="M 73.973961 192.642364
L 82.877156 192.642364
L 82.877156 183.739169
L 73.973961 183.739169
z
" clip-path="url(#pbcb344bb41)" style="fill: #9467bd; stroke: #ffffff; stroke-linejoin: miter"/>
   </g>
   <g id="patch_11">
    <path d="M 82.877156 192.642364
L 91.780351 192.642364
L 91.780351 183.739169
L 82.877156 183.739169
z
" clip-path="url(#pbcb344bb41)" style="fill: #7f7f7f; stroke: #ffffff; stroke-linejoin: miter"/>
   </g>
   <g id="patch_12">
    <path d="M 47.264377 183.739169
L 56.167572 183.739169
L 56.167572 174.835974
L 47.264377 174.835974
z
" clip-path="url(#pbcb344bb41)" style="fill: #17becf; stroke: #ffffff; stroke-linejoin: miter"/>
   </g>
   <g id="patch_13">
    <path d="M 56.167572 183.739169
L 65.070766 183.739169
L 65.070766 174.835974
L 56.167572 174.835974
z
" clip-path="url(#pbcb344bb41)" style="fill: #bcbd22; stroke: #ffffff; stroke-linejoin: miter"/>
   </g>
   <g id="patch_14">
    <path d="M 65.070766 183.739169
L 73.973961 183.739169
L 73.973961 174.835974
L 65.070766 174.835974
z
" clip-path="url(#pbcb344bb41)" style="fill: #7f7f7f; stroke: #ffffff; stroke-linejoin: miter"/>
   </g>
   <g id="patch_15">
    <path d="M 73.973961 183.739169
L 82.877156 183.739169
L 82.877156 174.835974
L 73.973961 174.835974
z
" clip-path="url(#pbcb344bb41)" style="fill: #17becf; stroke: #ffffff; stroke-linejoin: miter"/>
   </g>
   <g id="patch_16">
    <path d="M 82.877156 183.739169
L 91.780351 183.739169
L 91.780351 174.835974
L 82.877156 174.835974
z
" clip-path="url(#pbcb344bb41)" style="fill: #17becf; stroke: #ffffff; stroke-linejoin: miter"/>
   </g>
   <g id="patch_17">
    <path d="M 47.264377 165.932779
L 56.167572 165.932779
L 56.167572 157.029585
L 47.264377 157.029585
z
" clip-path="url(#pbcb344bb41)" style="fill: #7f7f7f; stroke: #ffffff; stroke-linejoin: miter"/>
   </g>
   <g id="patch_18">
    <path d="M 56.167572 165.932779
L 65.070766 165.932779
L 65.070766 157.029585
L 56.167572 157.029585
z
" clip-path="url(#pbcb344bb41)" style="fill: #d62728; stroke: #ffffff; stroke-linejoin: miter"/>
   </g>
   <g id="patch_19">
    <path d="M 65.070766 165.932779
L 73.973961 165.932779
L 73.973961 157.029585
L 65.070766 157.029585
z
" clip-path="url(#pbcb344bb41)" style="fill: #bcbd22; stroke: #ffffff; stroke-linejoin: miter"/>
   </g>
   <g id="patch_20">
    <path d="M 73.973961 165.932779
L 82.877156 165.932779
L 82.877156 157.029585
L 73.973961 157.029585
z
" clip-path="url(#pbcb344bb41)" style="fill: #7f7f7f; stroke: #ffffff; stroke-linejoin: miter"/>
   </g>
   <g id="patch_21">
    <path d="M 82.877156 165.932779
L 91.780351 165.932779
L 91.780351 157.029585
L 82.877156 157.029585
z
" clip-path="url(#pbcb344bb41)" style="fill: #7f7f7f; stroke: #ffffff; stroke-linejoin: miter"/>
   </g>
   <g id="patch_22">
    <path d="M 47.264377 157.029585
L 56.167572 157.029585
L 56.167572 148.12639
L 47.264377 148.12639
z
" clip-path="url(#pbcb344bb41)" style="fill: #bcbd22; stroke: #ffffff; stroke-linejoin: miter"/>
   </g>
   <g id="patch_23">
    <path d="M 56.167572 157.029585
L 65.070766 157.029585
L 65.070766 148.12639
L 56.167572 148.12639
z
" clip-path="url(#pbcb344bb41)" style="fill: #d62728; stroke: #ffffff; stroke-linejoin: miter"/>
   </g>
   <g id="patch_24">
    <path d="M 65.070766 157.029585
L 73.973961 157.029585
L 73.973961 148.12639
L 65.070766 148.12639
z
" clip-path="url(#pbcb344bb41)" style="fill: #bcbd22; stroke: #ffffff; stroke-linejoin: miter"/>
   </g>
   <g id="patch_25">
    <path d="M 73.973961 157.029585
L 82.877156 157.029585
L 82.877156 148.12639
L 73.973961 148.12639
z
" clip-path="url(#pbcb344bb41)" style="fill: #bcbd22; stroke: #ffffff; stroke-linejoin: miter"/>
   </g>
   <g id="patch_26">
    <path d="M 82.877156 157.029585
L 91.780351 157.029585
L 91.780351 148.12639
L 82.877156 148.12639
z
" clip-path="url(#pbcb344bb41)" style="fill: #bcbd22; stroke: #ffffff; stroke-linejoin: miter"/>
   </g>
   <g id="patch_27">
    <path d="M 47.264377 139.223195
L 56.167572 139.223195
L 56.167572 130.32
L 47.264377 130.32
z
" clip-path="url(#pbcb344bb41)" style="fill: #d62728; stroke: #ffffff; stroke-linejoin: miter"/>
   </g>
   <g id="patch_28">
    <path d="M 56.167572 139.223195
L 65.070766 139.223195
L 65.070766 130.32
L 56.167572 130.32
z
" clip-path="url(#pbcb344bb41)" style="fill: #e377c2; stroke: #ffffff; stroke-linejoin: miter"/>
   </g>
   <g id="patch_29">
    <path d="M 65.070766 139.223195
L 73.973961 139.223195
L 73.973961 130.32
L 65.070766 130.32
z
" clip-path="url(#pbcb344bb41)" style="fill: #8c564b; stroke: #ffffff; stroke-linejoin: miter"/>
   </g>
   <g id="patch_30">
    <path d="M 73.973961 139.223195
L 82.877156 139.223195
L 82.877156 130.32
L 73.973961 130.32
z
" clip-path="url(#pbcb344bb41)" style="fill: #d62728; stroke: #ffffff; stroke-linejoin: miter"/>
   </g>
   <g id="patch_31">
    <path d="M 82.877156 139.223195
L 91.780351 139.223195
L 91.780351 130.32
L 82.877156 130.32
z
" clip-path="url(#pbcb344bb41)" style="fill: #e377c2; stroke: #ffffff; stroke-linejoin: miter"/>
   </g>
   <g id="patch_32">
    <path d="M 47.264377 130.32
L 56.167572 130.32
L 56.167572 121.416805
L 47.264377 121.416805
z
" clip-path="url(#pbcb344bb41)" style="fill: #7f7f7f; stroke: #ffffff; stroke-linejoin: miter"/>
   </g>
   <g id="patch_33">
    <path d="M 56.167572 130.32
L 65.070766 130.32
L 65.070766 121.416805
L 56.167572 121.416805
z
" clip-path="url(#pbcb344bb41)" style="fill: #9467bd; stroke: #ffffff; stroke-linejoin: miter"/>
   </g>
   <g id="patch_34">
    <path d="M 65.070766 130.32
L 73.973961 130.32
L 73.973961 121.416805
L 65.070766 121.416805
z
" clip-path="url(#pbcb344bb41)" style="fill: #9467bd; stroke: #ffffff; stroke-linejoin: miter"/>
   </g>
   <g id="patch_35">
    <path d="M 73.973961 130.32
L 82.877156 130.32
L 82.877156 121.416805
L 73.973961 121.416805
z
" clip-path="url(#pbcb344bb41)" style="fill: #e377c2; stroke: #ffffff; stroke-linejoin: miter"/>
   </g>
   <g id="patch_36">
    <path d="M 82.877156 130.32
L 91.780351 130.32
L 91.780351 121.416805
L 82.877156 121.416805
z
" clip-path="url(#pbcb344bb41)" style="fill: #d62728; stroke: #ffffff; stroke-linejoin: miter"/>
   </g>
   <g id="patch_37">
    <path d="M 47.264377 121.416805
L 56.167572 121.416805
L 56.167572 112.51361
L 47.264377 112.51361
z
" clip-path="url(#pbcb344bb41)" style="fill: #8c564b; stroke: #ffffff; stroke-linejoin: miter"/>
   </g>
   <g id="patch_38">
    <path d="M 56.167572 121.416805
L 65.070766 121.416805
L 65.070766 112.51361
L 56.167572 112.51361
z
" clip-path="url(#pbcb344bb41)" style="fill: #e377c2; stroke: #ffffff; stroke-linejoin: miter"/>
   </g>
   <g id="patch_39">
    <path d="M 65.070766 121.416805
L 73.973961 121.416805
L 73.973961 112.51361
L 65.070766 112.51361
z
" clip-path="url(#pbcb344bb41)" style="fill: #8c564b; stroke: #ffffff; stroke-linejoin: miter"/>
   </g>
   <g id="patch_40">
    <path d="M 73.973961 121.416805
L 82.877156 121.416805
L 82.877156 112.51361
L 73.973961 112.51361
z
" clip-path="url(#pbcb344bb41)" style="fill: #d62728; stroke: #ffffff; stroke-linejoin: miter"/>
   </g>
   <g id="patch_41">
    <path d="M 82.877156 121.416805
L 91.780351 121.416805
L 91.780351 112.51361
L 82.877156 112.51361
z
" clip-path="url(#pbcb344bb41)" style="fill: #d62728; stroke: #ffffff; stroke-linejoin: miter"/>
   </g>
   <g id="patch_42">
    <path d="M 47.264377 103.610415
L 56.167572 103.610415
L 56.167572 94.707221
L 47.264377 94.707221
z
" clip-path="url(#pbcb344bb41)" style="fill: #8c564b; stroke: #ffffff; stroke-linejoin: miter"/>
   </g>
   <g id="patch_43">
    <path d="M 56.167572 103.610415
L 65.070766 103.610415
L 65.070766 94.707221
L 56.167572 94.707221
z
" clip-path="url(#pbcb344bb41)" style="fill: #bcbd22; stroke: #ffffff; stroke-linejoin: miter"/>
   </g>
   <g id="patch_44">
    <path d="M 65.070766 103.610415
L 73.973961 103.610415
L 73.973961 94.707221
L 65.070766 94.707221
z
" clip-path="url(#pbcb344bb41)" style="fill: #8c564b; stroke: #ffffff; stroke-linejoin: miter"/>
   </g>
   <g id="patch_45">
    <path d="M 73.973961 103.610415
L 82.877156 103.610415
L 82.877156 94.707221
L 73.973961 94.707221
z
" clip-path="url(#pbcb344bb41)" style="fill: #9467bd; stroke: #ffffff; stroke-linejoin: miter"/>
   </g>
   <g id="patch_46">
    <path d="M 82.877156 103.610415
L 91.780351 103.610415
L 91.780351 94.707221
L 82.877156 94.707221
z
" clip-path="url(#pbcb344bb41)" style="fill: #9467bd; stroke: #ffffff; stroke-linejoin: miter"/>
   </g>
   <g id="patch_47">
    <path d="M 47.264377 94.707221
L 56.167572 94.707221
L 56.167572 85.804026
L 47.264377 85.804026
z
" clip-path="url(#pbcb344bb41)" style="fill: #d62728; stroke: #ffffff; stroke-linejoin: miter"/>
   </g>
   <g id="patch_48">
    <path d="M 56.167572 94.707221
L 65.070766 94.707221
L 65.070766 85.804026
L 56.167572 85.804026
z
" clip-path="url(#pbcb344bb41)" style="fill: #7f7f7f; stroke: #ffffff; stroke-linejoin: miter"/>
   </g>
   <g id="patch_49">
    <path d="M 65.070766 94.707221
L 73.973961 94.707221
L 73.973961 85.804026
L 65.070766 85.804026
z
" clip-path="url(#pbcb344bb41)" style="fill: #d62728; stroke: #ffffff; stroke-linejoin: miter"/>
   </g>
   <g id="patch_50">
    <path d="M 73.973961 94.707221
L 82.877156 94.707221
L 82.877156 85.804026
L 73.973961 85.804026
z
" clip-path="url(#pbcb344bb41)" style="fill: #9467bd; stroke: #ffffff; stroke-linejoin: miter"/>
   </g>
   <g id="patch_51">
    <path d="M 82.877156 94.707221
L 91.780351 94.707221
L 91.780351 85.804026
L 82.877156 85.804026
z
" clip-path="url(#pbcb344bb41)" style="fill: #17becf; stroke: #ffffff; stroke-linejoin: miter"/>
   </g>
   <g id="patch_52">
    <path d="M 47.264377 76.900831
L 56.167572 76.900831
L 56.167572 67.997636
L 47.264377 67.997636
z
" clip-path="url(#pbcb344bb41)" style="fill: #d62728; stroke: #ffffff; stroke-linejoin: miter"/>
   </g>
   <g id="patch_53">
    <path d="M 56.167572 76.900831
L 65.070766 76.900831
L 65.070766 67.997636
L 56.167572 67.997636
z
" clip-path="url(#pbcb344bb41)" style="fill: #17becf; stroke: #ffffff; stroke-linejoin: miter"/>
   </g>
   <g id="patch_54">
    <path d="M 65.070766 76.900831
L 73.973961 76.900831
L 73.973961 67.997636
L 65.070766 67.997636
z
" clip-path="url(#pbcb344bb41)" style="fill: #17becf; stroke: #ffffff; stroke-linejoin: miter"/>
   </g>
   <g id="patch_55">
    <path d="M 73.973961 76.900831
L 82.877156 76.900831
L 82.877156 67.997636
L 73.973961 67.997636
z
" clip-path="url(#pbcb344bb41)" style="fill: #bcbd22; stroke: #ffffff; stroke-linejoin: miter"/>
   </g>
   <g id="patch_56">
    <path d="M 82.877156 76.900831
L 91.780351 76.900831
L 91.780351 67.997636
L 82.877156 67.997636
z
" clip-path="url(#pbcb344bb41)" style="fill: #bcbd22; stroke: #ffffff; stroke-linejoin: miter"/>
   </g>
   <g id="patch_57">
    <path d="M 47.264377 67.997636
L 56.167572 67.997636
L 56.167572 59.094441
L 47.264377 59.094441
z
" clip-path="url(#pbcb344bb41)" style="fill: #7f7f7f; stroke: #ffffff; stroke-linejoin: miter"/>
   </g>
   <g id="patch_58">
    <path d="M 56.167572 67.997636
L 65.070766 67.997636
L 65.070766 59.094441
L 56.167572 59.094441
z
" clip-path="url(#pbcb344bb41)" style="fill: #e377c2; stroke: #ffffff; stroke-linejoin: miter"/>
   </g>
   <g id="patch_59">
    <path d="M 65.070766 67.997636
L 73.973961 67.997636
L 73.973961 59.094441
L 65.070766 59.094441
z
" clip-path="url(#pbcb344bb41)" style="fill: #e377c2; stroke: #ffffff; stroke-linejoin: miter"/>
   </g>
   <g id="patch_60">
    <path d="M 73.973961 67.997636
L 82.877156 67.997636
L 82.877156 59.094441
L 73.973961 59.094441
z
" clip-path="url(#pbcb344bb41)" style="fill: #8c564b; stroke: #ffffff; stroke-linejoin: miter"/>
   </g>
   <g id="patch_61">
    <path d="M 82.877156 67.997636
L 91.780351 67.997636
L 91.780351 59.094441
L 82.877156 59.094441
z
" clip-path="url(#pbcb344bb41)" style="fill: #bcbd22; stroke: #ffffff; stroke-linejoin: miter"/>
   </g>
   <g id="text_1">
    <!--    input -->
    <g transform="translate(63.896635 40.049594) scale(0.08 -0.08)">
     <defs>
      <path id="HelveticaNeue-20" transform="scale(0.015625)"/>
      <path id="HelveticaNeue-69" d="M 986 3904
L 986 4570
L 442 4570
L 442 3904
L 986 3904
z
M 442 3309
L 442 0
L 986 0
L 986 3309
L 442 3309
z
" transform="scale(0.015625)"/>
      <path id="HelveticaNeue-6e" d="M 410 3309
L 410 0
L 954 0
L 954 1869
Q 954 2093 1014 2281
Q 1075 2470 1196 2611
Q 1318 2752 1500 2829
Q 1683 2906 1933 2906
Q 2246 2906 2425 2726
Q 2605 2547 2605 2240
L 2605 0
L 3149 0
L 3149 2176
Q 3149 2445 3094 2665
Q 3040 2886 2905 3046
Q 2771 3206 2553 3296
Q 2336 3386 2010 3386
Q 1274 3386 934 2784
L 922 2784
L 922 3309
L 410 3309
z
" transform="scale(0.015625)"/>
      <path id="HelveticaNeue-70" d="M 429 3309
L 429 -1261
L 973 -1261
L 973 442
L 986 442
Q 1075 294 1206 195
Q 1338 96 1485 38
Q 1632 -19 1782 -44
Q 1933 -70 2054 -70
Q 2432 -70 2717 64
Q 3002 198 3190 432
Q 3379 666 3472 979
Q 3565 1293 3565 1645
Q 3565 1997 3469 2310
Q 3373 2624 3184 2864
Q 2995 3104 2710 3245
Q 2426 3386 2042 3386
Q 1696 3386 1408 3261
Q 1120 3136 986 2861
L 973 2861
L 973 3309
L 429 3309
z
M 2989 1683
Q 2989 1440 2937 1209
Q 2886 979 2771 800
Q 2656 621 2467 512
Q 2278 403 1997 403
Q 1715 403 1516 508
Q 1318 614 1193 787
Q 1069 960 1011 1187
Q 954 1414 954 1658
Q 954 1888 1008 2112
Q 1062 2336 1184 2512
Q 1306 2688 1498 2797
Q 1690 2906 1965 2906
Q 2227 2906 2422 2803
Q 2618 2701 2742 2528
Q 2867 2355 2928 2134
Q 2989 1914 2989 1683
z
" transform="scale(0.015625)"/>
      <path id="HelveticaNeue-75" d="M 3149 0
L 3149 3309
L 2605 3309
L 2605 1440
Q 2605 1216 2544 1027
Q 2483 838 2361 697
Q 2240 557 2057 480
Q 1875 403 1626 403
Q 1312 403 1133 582
Q 954 762 954 1069
L 954 3309
L 410 3309
L 410 1133
Q 410 864 464 643
Q 518 422 652 262
Q 787 102 1004 16
Q 1222 -70 1549 -70
Q 1914 -70 2182 74
Q 2451 218 2624 525
L 2637 525
L 2637 0
L 3149 0
z
" transform="scale(0.015625)"/>
      <path id="HelveticaNeue-74" d="M 1165 3309
L 1165 4301
L 621 4301
L 621 3309
L 58 3309
L 58 2829
L 621 2829
L 621 723
Q 621 493 665 352
Q 710 211 803 134
Q 896 58 1046 29
Q 1197 0 1408 0
L 1824 0
L 1824 480
L 1574 480
Q 1446 480 1366 489
Q 1286 499 1241 531
Q 1197 563 1181 620
Q 1165 678 1165 774
L 1165 2829
L 1824 2829
L 1824 3309
L 1165 3309
z
" transform="scale(0.015625)"/>
     </defs>
     <use xlink:href="#HelveticaNeue-20"/>
     <use xlink:href="#HelveticaNeue-20" x="27.799988"/>
     <use xlink:href="#HelveticaNeue-20" x="55.599976"/>
     <use xlink:href="#HelveticaNeue-69" x="83.399963"/>
     <use xlink:href="#HelveticaNeue-6e" x="105.59996"/>
     <use xlink:href="#HelveticaNeue-70" x="161.199951"/>
     <use xlink:href="#HelveticaNeue-75" x="220.499939"/>
     <use xlink:href="#HelveticaNeue-74" x="276.09993"/>
    </g>
    <!-- (1 array, 5 blocks) -->
    <g transform="translate(44.786635 48.642844) scale(0.08 -0.08)">
     <defs>
      <path id="HelveticaNeue-28" d="M 1306 -1261
L 1722 -1261
Q 1267 -525 1072 198
Q 877 922 877 1728
Q 877 2515 1069 3232
Q 1261 3949 1722 4678
L 1306 4678
Q 806 4019 553 3251
Q 301 2483 301 1728
Q 301 1306 371 922
Q 442 538 573 173
Q 704 -192 889 -547
Q 1075 -902 1306 -1261
z
" transform="scale(0.015625)"/>
      <path id="HelveticaNeue-31" d="M 2278 0
L 2278 4538
L 1862 4538
Q 1818 4282 1696 4115
Q 1574 3949 1398 3853
Q 1222 3757 1004 3721
Q 787 3686 557 3686
L 557 3251
L 1734 3251
L 1734 0
L 2278 0
z
" transform="scale(0.015625)"/>
      <path id="HelveticaNeue-61" d="M 3341 13
Q 3200 -70 2950 -70
Q 2739 -70 2614 48
Q 2490 166 2490 435
Q 2266 166 1968 48
Q 1670 -70 1325 -70
Q 1101 -70 899 -19
Q 698 32 550 141
Q 403 250 316 426
Q 230 602 230 851
Q 230 1133 326 1312
Q 422 1491 579 1603
Q 736 1715 937 1772
Q 1139 1830 1350 1869
Q 1574 1914 1776 1936
Q 1978 1958 2131 2000
Q 2285 2042 2374 2122
Q 2464 2202 2464 2355
Q 2464 2534 2397 2643
Q 2330 2752 2224 2809
Q 2118 2867 1987 2886
Q 1856 2906 1728 2906
Q 1382 2906 1152 2774
Q 922 2643 902 2278
L 358 2278
Q 371 2586 486 2797
Q 602 3008 794 3139
Q 986 3270 1232 3328
Q 1478 3386 1760 3386
Q 1984 3386 2205 3354
Q 2426 3322 2605 3222
Q 2784 3123 2893 2944
Q 3002 2765 3002 2477
L 3002 774
Q 3002 582 3024 492
Q 3046 403 3174 403
Q 3245 403 3341 435
L 3341 13
z
M 2458 1709
Q 2355 1632 2188 1597
Q 2022 1562 1840 1539
Q 1658 1517 1472 1488
Q 1286 1459 1139 1395
Q 992 1331 899 1212
Q 806 1094 806 890
Q 806 755 860 662
Q 915 570 1001 512
Q 1088 454 1203 428
Q 1318 403 1446 403
Q 1715 403 1907 476
Q 2099 550 2220 662
Q 2342 774 2400 905
Q 2458 1037 2458 1152
L 2458 1709
z
" transform="scale(0.015625)"/>
      <path id="HelveticaNeue-72" d="M 390 3309
L 390 0
L 934 0
L 934 1472
Q 934 1792 998 2038
Q 1062 2285 1203 2457
Q 1344 2630 1574 2720
Q 1805 2810 2131 2810
L 2131 3386
Q 1690 3398 1402 3206
Q 1114 3014 915 2611
L 902 2611
L 902 3309
L 390 3309
z
" transform="scale(0.015625)"/>
      <path id="HelveticaNeue-79" d="M 1709 -442
Q 1613 -685 1520 -851
Q 1427 -1018 1315 -1123
Q 1203 -1229 1065 -1277
Q 928 -1325 749 -1325
Q 653 -1325 557 -1312
Q 461 -1299 371 -1267
L 371 -768
Q 442 -800 534 -822
Q 627 -845 691 -845
Q 858 -845 970 -765
Q 1082 -685 1139 -538
L 1363 19
L 51 3309
L 666 3309
L 1632 602
L 1645 602
L 2573 3309
L 3149 3309
L 1709 -442
z
" transform="scale(0.015625)"/>
      <path id="HelveticaNeue-2c" d="M 531 710
L 531 0
L 909 0
Q 915 -77 899 -166
Q 883 -256 838 -342
Q 794 -429 720 -502
Q 646 -576 538 -614
L 538 -934
Q 909 -826 1075 -563
Q 1242 -301 1242 64
L 1242 710
L 531 710
z
" transform="scale(0.015625)"/>
      <path id="HelveticaNeue-35" d="M 3008 3981
L 3008 4461
L 768 4461
L 346 2106
L 813 2080
Q 973 2272 1181 2390
Q 1389 2509 1658 2509
Q 1888 2509 2077 2432
Q 2266 2355 2400 2217
Q 2534 2080 2608 1891
Q 2682 1702 2682 1478
Q 2682 1210 2605 1008
Q 2528 806 2397 672
Q 2266 538 2090 470
Q 1914 403 1722 403
Q 1517 403 1347 464
Q 1178 525 1053 637
Q 928 749 854 899
Q 781 1050 768 1222
L 224 1222
Q 230 915 345 672
Q 461 429 659 265
Q 858 102 1117 16
Q 1376 -70 1670 -70
Q 2067 -70 2364 54
Q 2662 179 2860 390
Q 3059 602 3158 874
Q 3258 1146 3258 1434
Q 3258 1824 3142 2115
Q 3027 2406 2828 2601
Q 2630 2797 2361 2893
Q 2093 2989 1792 2989
Q 1562 2989 1328 2909
Q 1094 2829 947 2662
L 934 2675
L 1178 3981
L 3008 3981
z
" transform="scale(0.015625)"/>
      <path id="HelveticaNeue-62" d="M 429 4570
L 429 0
L 973 0
L 973 442
L 986 442
Q 1075 294 1206 195
Q 1338 96 1485 38
Q 1632 -19 1782 -44
Q 1933 -70 2054 -70
Q 2432 -70 2717 64
Q 3002 198 3190 432
Q 3379 666 3472 979
Q 3565 1293 3565 1645
Q 3565 1997 3469 2310
Q 3373 2624 3184 2864
Q 2995 3104 2710 3245
Q 2426 3386 2042 3386
Q 1696 3386 1408 3261
Q 1120 3136 986 2861
L 973 2861
L 973 4570
L 429 4570
z
M 2989 1683
Q 2989 1440 2937 1209
Q 2886 979 2771 800
Q 2656 621 2467 512
Q 2278 403 1997 403
Q 1715 403 1516 508
Q 1318 614 1193 787
Q 1069 960 1011 1187
Q 954 1414 954 1658
Q 954 1888 1008 2112
Q 1062 2336 1184 2512
Q 1306 2688 1498 2797
Q 1690 2906 1965 2906
Q 2227 2906 2422 2803
Q 2618 2701 2742 2528
Q 2867 2355 2928 2134
Q 2989 1914 2989 1683
z
" transform="scale(0.015625)"/>
      <path id="HelveticaNeue-6c" d="M 442 4570
L 442 0
L 986 0
L 986 4570
L 442 4570
z
" transform="scale(0.015625)"/>
      <path id="HelveticaNeue-6f" d="M 806 1651
Q 806 1952 886 2185
Q 966 2419 1107 2579
Q 1248 2739 1437 2822
Q 1626 2906 1837 2906
Q 2048 2906 2237 2822
Q 2426 2739 2566 2579
Q 2707 2419 2787 2185
Q 2867 1952 2867 1651
Q 2867 1350 2787 1116
Q 2707 883 2566 726
Q 2426 570 2237 486
Q 2048 403 1837 403
Q 1626 403 1437 486
Q 1248 570 1107 726
Q 966 883 886 1116
Q 806 1350 806 1651
z
M 230 1651
Q 230 1286 332 972
Q 435 659 640 425
Q 845 192 1145 61
Q 1446 -70 1837 -70
Q 2234 -70 2531 61
Q 2829 192 3033 425
Q 3238 659 3340 972
Q 3443 1286 3443 1651
Q 3443 2016 3340 2333
Q 3238 2650 3033 2883
Q 2829 3117 2531 3251
Q 2234 3386 1837 3386
Q 1446 3386 1145 3251
Q 845 3117 640 2883
Q 435 2650 332 2333
Q 230 2016 230 1651
z
" transform="scale(0.015625)"/>
      <path id="HelveticaNeue-63" d="M 2656 2246
L 3219 2246
Q 3187 2541 3065 2755
Q 2944 2970 2755 3110
Q 2566 3251 2320 3318
Q 2074 3386 1792 3386
Q 1402 3386 1107 3248
Q 813 3110 617 2870
Q 422 2630 326 2307
Q 230 1984 230 1613
Q 230 1242 329 931
Q 429 621 624 397
Q 819 173 1110 51
Q 1402 -70 1779 -70
Q 2413 -70 2781 262
Q 3149 595 3238 1210
L 2682 1210
Q 2630 826 2403 614
Q 2176 403 1773 403
Q 1517 403 1331 505
Q 1146 608 1030 777
Q 915 947 860 1164
Q 806 1382 806 1613
Q 806 1862 857 2096
Q 909 2330 1027 2509
Q 1146 2688 1344 2797
Q 1542 2906 1837 2906
Q 2182 2906 2387 2733
Q 2592 2560 2656 2246
z
" transform="scale(0.015625)"/>
      <path id="HelveticaNeue-6b" d="M 442 4570
L 442 0
L 986 0
L 986 1254
L 1498 1728
L 2630 0
L 3322 0
L 1914 2106
L 3226 3309
L 2496 3309
L 986 1862
L 986 4570
L 442 4570
z
" transform="scale(0.015625)"/>
      <path id="HelveticaNeue-73" d="M 742 1043
L 198 1043
Q 211 736 326 521
Q 442 307 634 176
Q 826 45 1075 -12
Q 1325 -70 1600 -70
Q 1850 -70 2102 -22
Q 2355 26 2556 147
Q 2758 269 2883 467
Q 3008 666 3008 966
Q 3008 1203 2915 1363
Q 2822 1523 2672 1628
Q 2522 1734 2326 1798
Q 2131 1862 1926 1907
Q 1734 1952 1542 1993
Q 1350 2035 1196 2096
Q 1043 2157 944 2249
Q 845 2342 845 2483
Q 845 2611 909 2691
Q 973 2771 1075 2819
Q 1178 2867 1302 2886
Q 1427 2906 1549 2906
Q 1683 2906 1814 2877
Q 1946 2848 2054 2784
Q 2163 2720 2233 2614
Q 2304 2509 2317 2349
L 2861 2349
Q 2842 2650 2733 2851
Q 2624 3053 2441 3171
Q 2259 3290 2022 3338
Q 1786 3386 1504 3386
Q 1286 3386 1065 3331
Q 845 3277 669 3165
Q 493 3053 381 2873
Q 269 2694 269 2445
Q 269 2125 429 1945
Q 589 1766 829 1667
Q 1069 1568 1350 1513
Q 1632 1459 1872 1392
Q 2112 1325 2272 1216
Q 2432 1107 2432 896
Q 2432 742 2355 643
Q 2278 544 2160 493
Q 2042 442 1901 422
Q 1760 403 1632 403
Q 1466 403 1309 435
Q 1152 467 1027 540
Q 902 614 825 739
Q 749 864 742 1043
z
" transform="scale(0.015625)"/>
      <path id="HelveticaNeue-29" d="M -58 -1261
L 352 -1261
Q 851 -602 1104 163
Q 1357 928 1357 1683
Q 1357 2106 1286 2490
Q 1216 2874 1085 3242
Q 954 3610 768 3965
Q 582 4320 352 4678
L -58 4678
Q 390 3942 585 3216
Q 781 2490 781 1683
Q 781 902 589 182
Q 397 -538 -58 -1261
z
" transform="scale(0.015625)"/>
     </defs>
     <use xlink:href="#HelveticaNeue-28"/>
     <use xlink:href="#HelveticaNeue-31" x="25.899994"/>
     <use xlink:href="#HelveticaNeue-20" x="81.499985"/>
     <use xlink:href="#HelveticaNeue-61" x="109.299973"/>
     <use xlink:href="#HelveticaNeue-72" x="162.999969"/>
     <use xlink:href="#HelveticaNeue-72" x="196.299957"/>
     <use xlink:href="#HelveticaNeue-61" x="229.599945"/>
     <use xlink:href="#HelveticaNeue-79" x="283.299942"/>
     <use xlink:href="#HelveticaNeue-2c" x="325.924927"/>
     <use xlink:href="#HelveticaNeue-20" x="353.724915"/>
     <use xlink:href="#HelveticaNeue-35" x="381.524902"/>
     <use xlink:href="#HelveticaNeue-20" x="437.124893"/>
     <use xlink:href="#HelveticaNeue-62" x="464.924881"/>
     <use xlink:href="#HelveticaNeue-6c" x="524.224869"/>
     <use xlink:href="#HelveticaNeue-6f" x="546.424866"/>
     <use xlink:href="#HelveticaNeue-63" x="603.82486"/>
     <use xlink:href="#HelveticaNeue-6b" x="657.524857"/>
     <use xlink:href="#HelveticaNeue-73" x="709.42485"/>
     <use xlink:href="#HelveticaNeue-29" x="759.424835"/>
    </g>
   </g>
  </g>
  <g id="axes_2">
   <g id="patch_62">
    <path d="M 155.651597 188.190766
L 164.554792 188.190766
L 164.554792 179.287572
L 155.651597 179.287572
z
" clip-path="url(#p890f59296f)" style="fill: #17becf; stroke: #ffffff; stroke-linejoin: miter"/>
   </g>
   <g id="patch_63">
    <path d="M 164.554792 188.190766
L 173.457987 188.190766
L 173.457987 179.287572
L 164.554792 179.287572
z
" clip-path="url(#p890f59296f)" style="fill: #17becf; stroke: #ffffff; stroke-linejoin: miter"/>
   </g>
   <g id="patch_64">
    <path d="M 173.457987 188.190766
L 182.361182 188.190766
L 182.361182 179.287572
L 173.457987 179.287572
z
" clip-path="url(#p890f59296f)" style="fill: #17becf; stroke: #ffffff; stroke-linejoin: miter"/>
   </g>
   <g id="patch_65">
    <path d="M 182.361182 188.190766
L 191.264377 188.190766
L 191.264377 179.287572
L 182.361182 179.287572
z
" clip-path="url(#p890f59296f)" style="fill: #17becf; stroke: #ffffff; stroke-linejoin: miter"/>
   </g>
   <g id="patch_66">
    <path d="M 195.715974 188.190766
L 204.619169 188.190766
L 204.619169 179.287572
L 195.715974 179.287572
z
" clip-path="url(#p890f59296f)" style="fill: #17becf; stroke: #ffffff; stroke-linejoin: miter"/>
   </g>
   <g id="patch_67">
    <path d="M 209.070766 188.190766
L 217.973961 188.190766
L 217.973961 179.287572
L 209.070766 179.287572
z
" clip-path="url(#p890f59296f)" style="fill: #17becf; stroke: #ffffff; stroke-linejoin: miter"/>
   </g>
   <g id="patch_68">
    <path d="M 217.973961 188.190766
L 226.877156 188.190766
L 226.877156 179.287572
L 217.973961 179.287572
z
" clip-path="url(#p890f59296f)" style="fill: #17becf; stroke: #ffffff; stroke-linejoin: miter"/>
   </g>
   <g id="patch_69">
    <path d="M 155.651597 170.384377
L 164.554792 170.384377
L 164.554792 161.481182
L 155.651597 161.481182
z
" clip-path="url(#p890f59296f)" style="fill: #bcbd22; stroke: #ffffff; stroke-linejoin: miter"/>
   </g>
   <g id="patch_70">
    <path d="M 169.00639 170.384377
L 177.909585 170.384377
L 177.909585 161.481182
L 169.00639 161.481182
z
" clip-path="url(#p890f59296f)" style="fill: #bcbd22; stroke: #ffffff; stroke-linejoin: miter"/>
   </g>
   <g id="patch_71">
    <path d="M 177.909585 170.384377
L 186.812779 170.384377
L 186.812779 161.481182
L 177.909585 161.481182
z
" clip-path="url(#p890f59296f)" style="fill: #bcbd22; stroke: #ffffff; stroke-linejoin: miter"/>
   </g>
   <g id="patch_72">
    <path d="M 186.812779 170.384377
L 195.715974 170.384377
L 195.715974 161.481182
L 186.812779 161.481182
z
" clip-path="url(#p890f59296f)" style="fill: #bcbd22; stroke: #ffffff; stroke-linejoin: miter"/>
   </g>
   <g id="patch_73">
    <path d="M 195.715974 170.384377
L 204.619169 170.384377
L 204.619169 161.481182
L 195.715974 161.481182
z
" clip-path="url(#p890f59296f)" style="fill: #bcbd22; stroke: #ffffff; stroke-linejoin: miter"/>
   </g>
   <g id="patch_74">
    <path d="M 204.619169 170.384377
L 213.522364 170.384377
L 213.522364 161.481182
L 204.619169 161.481182
z
" clip-path="url(#p890f59296f)" style="fill: #bcbd22; stroke: #ffffff; stroke-linejoin: miter"/>
   </g>
   <g id="patch_75">
    <path d="M 217.973961 170.384377
L 226.877156 170.384377
L 226.877156 161.481182
L 217.973961 161.481182
z
" clip-path="url(#p890f59296f)" style="fill: #bcbd22; stroke: #ffffff; stroke-linejoin: miter"/>
   </g>
   <g id="patch_76">
    <path d="M 231.328754 170.384377
L 240.231948 170.384377
L 240.231948 161.481182
L 231.328754 161.481182
z
" clip-path="url(#p890f59296f)" style="fill: #bcbd22; stroke: #ffffff; stroke-linejoin: miter"/>
   </g>
   <g id="patch_77">
    <path d="M 240.231948 170.384377
L 249.135143 170.384377
L 249.135143 161.481182
L 240.231948 161.481182
z
" clip-path="url(#p890f59296f)" style="fill: #bcbd22; stroke: #ffffff; stroke-linejoin: miter"/>
   </g>
   <g id="patch_78">
    <path d="M 249.135143 170.384377
L 258.038338 170.384377
L 258.038338 161.481182
L 249.135143 161.481182
z
" clip-path="url(#p890f59296f)" style="fill: #bcbd22; stroke: #ffffff; stroke-linejoin: miter"/>
   </g>
   <g id="patch_79">
    <path d="M 155.651597 152.577987
L 164.554792 152.577987
L 164.554792 143.674792
L 155.651597 143.674792
z
" clip-path="url(#p890f59296f)" style="fill: #7f7f7f; stroke: #ffffff; stroke-linejoin: miter"/>
   </g>
   <g id="patch_80">
    <path d="M 164.554792 152.577987
L 173.457987 152.577987
L 173.457987 143.674792
L 164.554792 143.674792
z
" clip-path="url(#p890f59296f)" style="fill: #7f7f7f; stroke: #ffffff; stroke-linejoin: miter"/>
   </g>
   <g id="patch_81">
    <path d="M 173.457987 152.577987
L 182.361182 152.577987
L 182.361182 143.674792
L 173.457987 143.674792
z
" clip-path="url(#p890f59296f)" style="fill: #7f7f7f; stroke: #ffffff; stroke-linejoin: miter"/>
   </g>
   <g id="patch_82">
    <path d="M 182.361182 152.577987
L 191.264377 152.577987
L 191.264377 143.674792
L 182.361182 143.674792
z
" clip-path="url(#p890f59296f)" style="fill: #7f7f7f; stroke: #ffffff; stroke-linejoin: miter"/>
   </g>
   <g id="patch_83">
    <path d="M 195.715974 152.577987
L 204.619169 152.577987
L 204.619169 143.674792
L 195.715974 143.674792
z
" clip-path="url(#p890f59296f)" style="fill: #7f7f7f; stroke: #ffffff; stroke-linejoin: miter"/>
   </g>
   <g id="patch_84">
    <path d="M 204.619169 152.577987
L 213.522364 152.577987
L 213.522364 143.674792
L 204.619169 143.674792
z
" clip-path="url(#p890f59296f)" style="fill: #7f7f7f; stroke: #ffffff; stroke-linejoin: miter"/>
   </g>
   <g id="patch_85">
    <path d="M 213.522364 152.577987
L 222.425559 152.577987
L 222.425559 143.674792
L 213.522364 143.674792
z
" clip-path="url(#p890f59296f)" style="fill: #7f7f7f; stroke: #ffffff; stroke-linejoin: miter"/>
   </g>
   <g id="patch_86">
    <path d="M 226.877156 152.577987
L 235.780351 152.577987
L 235.780351 143.674792
L 226.877156 143.674792
z
" clip-path="url(#p890f59296f)" style="fill: #7f7f7f; stroke: #ffffff; stroke-linejoin: miter"/>
   </g>
   <g id="patch_87">
    <path d="M 240.231948 152.577987
L 249.135143 152.577987
L 249.135143 143.674792
L 240.231948 143.674792
z
" clip-path="url(#p890f59296f)" style="fill: #7f7f7f; stroke: #ffffff; stroke-linejoin: miter"/>
   </g>
   <g id="patch_88">
    <path d="M 253.586741 152.577987
L 262.489935 152.577987
L 262.489935 143.674792
L 253.586741 143.674792
z
" clip-path="url(#p890f59296f)" style="fill: #7f7f7f; stroke: #ffffff; stroke-linejoin: miter"/>
   </g>
   <g id="patch_89">
    <path d="M 155.651597 134.771597
L 164.554792 134.771597
L 164.554792 125.868403
L 155.651597 125.868403
z
" clip-path="url(#p890f59296f)" style="fill: #e377c2; stroke: #ffffff; stroke-linejoin: miter"/>
   </g>
   <g id="patch_90">
    <path d="M 164.554792 134.771597
L 173.457987 134.771597
L 173.457987 125.868403
L 164.554792 125.868403
z
" clip-path="url(#p890f59296f)" style="fill: #e377c2; stroke: #ffffff; stroke-linejoin: miter"/>
   </g>
   <g id="patch_91">
    <path d="M 173.457987 134.771597
L 182.361182 134.771597
L 182.361182 125.868403
L 173.457987 125.868403
z
" clip-path="url(#p890f59296f)" style="fill: #e377c2; stroke: #ffffff; stroke-linejoin: miter"/>
   </g>
   <g id="patch_92">
    <path d="M 186.812779 134.771597
L 195.715974 134.771597
L 195.715974 125.868403
L 186.812779 125.868403
z
" clip-path="url(#p890f59296f)" style="fill: #e377c2; stroke: #ffffff; stroke-linejoin: miter"/>
   </g>
   <g id="patch_93">
    <path d="M 195.715974 134.771597
L 204.619169 134.771597
L 204.619169 125.868403
L 195.715974 125.868403
z
" clip-path="url(#p890f59296f)" style="fill: #e377c2; stroke: #ffffff; stroke-linejoin: miter"/>
   </g>
   <g id="patch_94">
    <path d="M 204.619169 134.771597
L 213.522364 134.771597
L 213.522364 125.868403
L 204.619169 125.868403
z
" clip-path="url(#p890f59296f)" style="fill: #e377c2; stroke: #ffffff; stroke-linejoin: miter"/>
   </g>
   <g id="patch_95">
    <path d="M 213.522364 134.771597
L 222.425559 134.771597
L 222.425559 125.868403
L 213.522364 125.868403
z
" clip-path="url(#p890f59296f)" style="fill: #e377c2; stroke: #ffffff; stroke-linejoin: miter"/>
   </g>
   <g id="patch_96">
    <path d="M 226.877156 134.771597
L 235.780351 134.771597
L 235.780351 125.868403
L 226.877156 125.868403
z
" clip-path="url(#p890f59296f)" style="fill: #e377c2; stroke: #ffffff; stroke-linejoin: miter"/>
   </g>
   <g id="patch_97">
    <path d="M 235.780351 134.771597
L 244.683546 134.771597
L 244.683546 125.868403
L 235.780351 125.868403
z
" clip-path="url(#p890f59296f)" style="fill: #e377c2; stroke: #ffffff; stroke-linejoin: miter"/>
   </g>
   <g id="patch_98">
    <path d="M 155.651597 116.965208
L 164.554792 116.965208
L 164.554792 108.062013
L 155.651597 108.062013
z
" clip-path="url(#p890f59296f)" style="fill: #8c564b; stroke: #ffffff; stroke-linejoin: miter"/>
   </g>
   <g id="patch_99">
    <path d="M 164.554792 116.965208
L 173.457987 116.965208
L 173.457987 108.062013
L 164.554792 108.062013
z
" clip-path="url(#p890f59296f)" style="fill: #8c564b; stroke: #ffffff; stroke-linejoin: miter"/>
   </g>
   <g id="patch_100">
    <path d="M 177.909585 116.965208
L 186.812779 116.965208
L 186.812779 108.062013
L 177.909585 108.062013
z
" clip-path="url(#p890f59296f)" style="fill: #8c564b; stroke: #ffffff; stroke-linejoin: miter"/>
   </g>
   <g id="patch_101">
    <path d="M 186.812779 116.965208
L 195.715974 116.965208
L 195.715974 108.062013
L 186.812779 108.062013
z
" clip-path="url(#p890f59296f)" style="fill: #8c564b; stroke: #ffffff; stroke-linejoin: miter"/>
   </g>
   <g id="patch_102">
    <path d="M 195.715974 116.965208
L 204.619169 116.965208
L 204.619169 108.062013
L 195.715974 108.062013
z
" clip-path="url(#p890f59296f)" style="fill: #8c564b; stroke: #ffffff; stroke-linejoin: miter"/>
   </g>
   <g id="patch_103">
    <path d="M 209.070766 116.965208
L 217.973961 116.965208
L 217.973961 108.062013
L 209.070766 108.062013
z
" clip-path="url(#p890f59296f)" style="fill: #8c564b; stroke: #ffffff; stroke-linejoin: miter"/>
   </g>
   <g id="patch_104">
    <path d="M 217.973961 116.965208
L 226.877156 116.965208
L 226.877156 108.062013
L 217.973961 108.062013
z
" clip-path="url(#p890f59296f)" style="fill: #8c564b; stroke: #ffffff; stroke-linejoin: miter"/>
   </g>
   <g id="patch_105">
    <path d="M 231.328754 116.965208
L 240.231948 116.965208
L 240.231948 108.062013
L 231.328754 108.062013
z
" clip-path="url(#p890f59296f)" style="fill: #8c564b; stroke: #ffffff; stroke-linejoin: miter"/>
   </g>
   <g id="patch_106">
    <path d="M 155.651597 99.158818
L 164.554792 99.158818
L 164.554792 90.255623
L 155.651597 90.255623
z
" clip-path="url(#p890f59296f)" style="fill: #9467bd; stroke: #ffffff; stroke-linejoin: miter"/>
   </g>
   <g id="patch_107">
    <path d="M 169.00639 99.158818
L 177.909585 99.158818
L 177.909585 90.255623
L 169.00639 90.255623
z
" clip-path="url(#p890f59296f)" style="fill: #9467bd; stroke: #ffffff; stroke-linejoin: miter"/>
   </g>
   <g id="patch_108">
    <path d="M 177.909585 99.158818
L 186.812779 99.158818
L 186.812779 90.255623
L 177.909585 90.255623
z
" clip-path="url(#p890f59296f)" style="fill: #9467bd; stroke: #ffffff; stroke-linejoin: miter"/>
   </g>
   <g id="patch_109">
    <path d="M 191.264377 99.158818
L 200.167572 99.158818
L 200.167572 90.255623
L 191.264377 90.255623
z
" clip-path="url(#p890f59296f)" style="fill: #9467bd; stroke: #ffffff; stroke-linejoin: miter"/>
   </g>
   <g id="patch_110">
    <path d="M 200.167572 99.158818
L 209.070766 99.158818
L 209.070766 90.255623
L 200.167572 90.255623
z
" clip-path="url(#p890f59296f)" style="fill: #9467bd; stroke: #ffffff; stroke-linejoin: miter"/>
   </g>
   <g id="patch_111">
    <path d="M 209.070766 99.158818
L 217.973961 99.158818
L 217.973961 90.255623
L 209.070766 90.255623
z
" clip-path="url(#p890f59296f)" style="fill: #9467bd; stroke: #ffffff; stroke-linejoin: miter"/>
   </g>
   <g id="patch_112">
    <path d="M 155.651597 81.352428
L 164.554792 81.352428
L 164.554792 72.449234
L 155.651597 72.449234
z
" clip-path="url(#p890f59296f)" style="fill: #d62728; stroke: #ffffff; stroke-linejoin: miter"/>
   </g>
   <g id="patch_113">
    <path d="M 164.554792 81.352428
L 173.457987 81.352428
L 173.457987 72.449234
L 164.554792 72.449234
z
" clip-path="url(#p890f59296f)" style="fill: #d62728; stroke: #ffffff; stroke-linejoin: miter"/>
   </g>
   <g id="patch_114">
    <path d="M 177.909585 81.352428
L 186.812779 81.352428
L 186.812779 72.449234
L 177.909585 72.449234
z
" clip-path="url(#p890f59296f)" style="fill: #d62728; stroke: #ffffff; stroke-linejoin: miter"/>
   </g>
   <g id="patch_115">
    <path d="M 186.812779 81.352428
L 195.715974 81.352428
L 195.715974 72.449234
L 186.812779 72.449234
z
" clip-path="url(#p890f59296f)" style="fill: #d62728; stroke: #ffffff; stroke-linejoin: miter"/>
   </g>
   <g id="patch_116">
    <path d="M 195.715974 81.352428
L 204.619169 81.352428
L 204.619169 72.449234
L 195.715974 72.449234
z
" clip-path="url(#p890f59296f)" style="fill: #d62728; stroke: #ffffff; stroke-linejoin: miter"/>
   </g>
   <g id="patch_117">
    <path d="M 204.619169 81.352428
L 213.522364 81.352428
L 213.522364 72.449234
L 204.619169 72.449234
z
" clip-path="url(#p890f59296f)" style="fill: #d62728; stroke: #ffffff; stroke-linejoin: miter"/>
   </g>
   <g id="patch_118">
    <path d="M 213.522364 81.352428
L 222.425559 81.352428
L 222.425559 72.449234
L 213.522364 72.449234
z
" clip-path="url(#p890f59296f)" style="fill: #d62728; stroke: #ffffff; stroke-linejoin: miter"/>
   </g>
   <g id="patch_119">
    <path d="M 226.877156 81.352428
L 235.780351 81.352428
L 235.780351 72.449234
L 226.877156 72.449234
z
" clip-path="url(#p890f59296f)" style="fill: #d62728; stroke: #ffffff; stroke-linejoin: miter"/>
   </g>
   <g id="patch_120">
    <path d="M 235.780351 81.352428
L 244.683546 81.352428
L 244.683546 72.449234
L 235.780351 72.449234
z
" clip-path="url(#p890f59296f)" style="fill: #d62728; stroke: #ffffff; stroke-linejoin: miter"/>
   </g>
   <g id="patch_121">
    <path d="M 249.135143 81.352428
L 258.038338 81.352428
L 258.038338 72.449234
L 249.135143 72.449234
z
" clip-path="url(#p890f59296f)" style="fill: #d62728; stroke: #ffffff; stroke-linejoin: miter"/>
   </g>
   <g id="text_2">
    <!--    split -->
    <g transform="translate(209.45601 40.049594) scale(0.08 -0.08)">
     <use xlink:href="#HelveticaNeue-20"/>
     <use xlink:href="#HelveticaNeue-20" x="27.799988"/>
     <use xlink:href="#HelveticaNeue-20" x="55.599976"/>
     <use xlink:href="#HelveticaNeue-73" x="83.399963"/>
     <use xlink:href="#HelveticaNeue-70" x="133.399948"/>
     <use xlink:href="#HelveticaNeue-6c" x="192.699936"/>
     <use xlink:href="#HelveticaNeue-69" x="214.899933"/>
     <use xlink:href="#HelveticaNeue-74" x="237.09993"/>
    </g>
    <!-- (7 arrays) -->
    <g transform="translate(203.831635 48.642844) scale(0.08 -0.08)">
     <defs>
      <path id="HelveticaNeue-37" d="M 3258 3994
L 3258 4461
L 320 4461
L 320 3949
L 2701 3949
Q 2342 3571 2032 3123
Q 1722 2675 1485 2172
Q 1248 1670 1097 1123
Q 947 576 909 0
L 1517 0
Q 1549 531 1696 1094
Q 1843 1658 2076 2189
Q 2310 2720 2611 3187
Q 2912 3654 3258 3994
z
" transform="scale(0.015625)"/>
     </defs>
     <use xlink:href="#HelveticaNeue-28"/>
     <use xlink:href="#HelveticaNeue-37" x="25.899994"/>
     <use xlink:href="#HelveticaNeue-20" x="81.499985"/>
     <use xlink:href="#HelveticaNeue-61" x="109.299973"/>
     <use xlink:href="#HelveticaNeue-72" x="162.999969"/>
     <use xlink:href="#HelveticaNeue-72" x="196.299957"/>
     <use xlink:href="#HelveticaNeue-61" x="229.599945"/>
     <use xlink:href="#HelveticaNeue-79" x="283.299942"/>
     <use xlink:href="#HelveticaNeue-73" x="333.299927"/>
     <use xlink:href="#HelveticaNeue-29" x="383.299911"/>
    </g>
   </g>
  </g>
  <g id="axes_3">
   <g id="patch_122">
    <path d="M 344.167572 188.190766
L 353.070766 188.190766
L 353.070766 179.287572
L 344.167572 179.287572
z
" clip-path="url(#p5f614ab6f0)" style="fill: #17becf; stroke: #ffffff; stroke-linejoin: miter"/>
   </g>
   <g id="patch_123">
    <path d="M 344.167572 170.384377
L 353.070766 170.384377
L 353.070766 161.481182
L 344.167572 161.481182
z
" clip-path="url(#p5f614ab6f0)" style="fill: #bcbd22; stroke: #ffffff; stroke-linejoin: miter"/>
   </g>
   <g id="patch_124">
    <path d="M 344.167572 152.577987
L 353.070766 152.577987
L 353.070766 143.674792
L 344.167572 143.674792
z
" clip-path="url(#p5f614ab6f0)" style="fill: #7f7f7f; stroke: #ffffff; stroke-linejoin: miter"/>
   </g>
   <g id="patch_125">
    <path d="M 344.167572 134.771597
L 353.070766 134.771597
L 353.070766 125.868403
L 344.167572 125.868403
z
" clip-path="url(#p5f614ab6f0)" style="fill: #e377c2; stroke: #ffffff; stroke-linejoin: miter"/>
   </g>
   <g id="patch_126">
    <path d="M 344.167572 116.965208
L 353.070766 116.965208
L 353.070766 108.062013
L 344.167572 108.062013
z
" clip-path="url(#p5f614ab6f0)" style="fill: #8c564b; stroke: #ffffff; stroke-linejoin: miter"/>
   </g>
   <g id="patch_127">
    <path d="M 344.167572 99.158818
L 353.070766 99.158818
L 353.070766 90.255623
L 344.167572 90.255623
z
" clip-path="url(#p5f614ab6f0)" style="fill: #9467bd; stroke: #ffffff; stroke-linejoin: miter"/>
   </g>
   <g id="patch_128">
    <path d="M 344.167572 81.352428
L 353.070766 81.352428
L 353.070766 72.449234
L 344.167572 72.449234
z
" clip-path="url(#p5f614ab6f0)" style="fill: #d62728; stroke: #ffffff; stroke-linejoin: miter"/>
   </g>
   <g id="text_3">
    <!--    apply/reduce -->
    <g transform="translate(337.450385 39.969594) scale(0.08 -0.08)">
     <defs>
      <path id="HelveticaNeue-2f" d="M 1779 4678
L -109 -102
L 352 -102
L 2246 4678
L 1779 4678
z
" transform="scale(0.015625)"/>
      <path id="HelveticaNeue-65" d="M 2707 1971
L 806 1971
Q 819 2163 889 2332
Q 960 2502 1081 2630
Q 1203 2758 1372 2832
Q 1542 2906 1754 2906
Q 1958 2906 2128 2832
Q 2298 2758 2422 2633
Q 2547 2509 2620 2336
Q 2694 2163 2707 1971
z
M 3232 1050
L 2694 1050
Q 2624 723 2403 563
Q 2182 403 1837 403
Q 1568 403 1369 492
Q 1171 582 1043 732
Q 915 883 857 1078
Q 800 1274 806 1491
L 3283 1491
Q 3296 1792 3229 2125
Q 3162 2458 2986 2739
Q 2810 3021 2518 3203
Q 2227 3386 1786 3386
Q 1446 3386 1161 3258
Q 877 3130 669 2899
Q 461 2669 345 2355
Q 230 2042 230 1664
Q 243 1286 342 966
Q 442 646 640 416
Q 838 186 1129 58
Q 1421 -70 1818 -70
Q 2381 -70 2752 211
Q 3123 493 3232 1050
z
" transform="scale(0.015625)"/>
      <path id="HelveticaNeue-64" d="M 806 1626
Q 806 1869 857 2099
Q 909 2330 1024 2509
Q 1139 2688 1331 2797
Q 1523 2906 1798 2906
Q 2080 2906 2278 2800
Q 2477 2694 2601 2521
Q 2726 2349 2784 2121
Q 2842 1894 2842 1651
Q 2842 1421 2787 1197
Q 2733 973 2611 797
Q 2490 621 2298 512
Q 2106 403 1830 403
Q 1568 403 1373 505
Q 1178 608 1053 781
Q 928 954 867 1174
Q 806 1395 806 1626
z
M 3366 0
L 3366 4570
L 2822 4570
L 2822 2867
L 2810 2867
Q 2720 3014 2589 3113
Q 2458 3213 2310 3273
Q 2163 3334 2016 3360
Q 1869 3386 1741 3386
Q 1363 3386 1078 3248
Q 794 3110 605 2876
Q 416 2643 323 2329
Q 230 2016 230 1664
Q 230 1312 326 998
Q 422 685 611 448
Q 800 211 1085 70
Q 1370 -70 1754 -70
Q 2099 -70 2387 51
Q 2675 173 2810 448
L 2822 448
L 2822 0
L 3366 0
z
" transform="scale(0.015625)"/>
     </defs>
     <use xlink:href="#HelveticaNeue-20"/>
     <use xlink:href="#HelveticaNeue-20" x="27.799988"/>
     <use xlink:href="#HelveticaNeue-20" x="55.599976"/>
     <use xlink:href="#HelveticaNeue-61" x="83.399963"/>
     <use xlink:href="#HelveticaNeue-70" x="137.09996"/>
     <use xlink:href="#HelveticaNeue-70" x="196.399948"/>
     <use xlink:href="#HelveticaNeue-6c" x="255.699936"/>
     <use xlink:href="#HelveticaNeue-79" x="277.899933"/>
     <use xlink:href="#HelveticaNeue-2f" x="327.899918"/>
     <use xlink:href="#HelveticaNeue-72" x="361.199905"/>
     <use xlink:href="#HelveticaNeue-65" x="392.749893"/>
     <use xlink:href="#HelveticaNeue-64" x="446.44989"/>
     <use xlink:href="#HelveticaNeue-75" x="505.749878"/>
     <use xlink:href="#HelveticaNeue-63" x="561.349869"/>
     <use xlink:href="#HelveticaNeue-65" x="615.049866"/>
    </g>
    <!-- (7 arrays, 1 block each) -->
    <g transform="translate(322.711635 48.642844) scale(0.08 -0.08)">
     <defs>
      <path id="HelveticaNeue-68" d="M 410 4570
L 410 0
L 954 0
L 954 1869
Q 954 2093 1014 2281
Q 1075 2470 1196 2611
Q 1318 2752 1500 2829
Q 1683 2906 1933 2906
Q 2246 2906 2425 2726
Q 2605 2547 2605 2240
L 2605 0
L 3149 0
L 3149 2176
Q 3149 2445 3094 2665
Q 3040 2886 2905 3046
Q 2771 3206 2553 3296
Q 2336 3386 2010 3386
Q 1862 3386 1705 3354
Q 1549 3322 1405 3254
Q 1261 3187 1145 3081
Q 1030 2976 966 2822
L 954 2822
L 954 4570
L 410 4570
z
" transform="scale(0.015625)"/>
     </defs>
     <use xlink:href="#HelveticaNeue-28"/>
     <use xlink:href="#HelveticaNeue-37" x="25.899994"/>
     <use xlink:href="#HelveticaNeue-20" x="81.499985"/>
     <use xlink:href="#HelveticaNeue-61" x="109.299973"/>
     <use xlink:href="#HelveticaNeue-72" x="162.999969"/>
     <use xlink:href="#HelveticaNeue-72" x="196.299957"/>
     <use xlink:href="#HelveticaNeue-61" x="229.599945"/>
     <use xlink:href="#HelveticaNeue-79" x="283.299942"/>
     <use xlink:href="#HelveticaNeue-73" x="333.299927"/>
     <use xlink:href="#HelveticaNeue-2c" x="383.299911"/>
     <use xlink:href="#HelveticaNeue-20" x="411.099899"/>
     <use xlink:href="#HelveticaNeue-31" x="438.899887"/>
     <use xlink:href="#HelveticaNeue-20" x="494.499878"/>
     <use xlink:href="#HelveticaNeue-62" x="522.299866"/>
     <use xlink:href="#HelveticaNeue-6c" x="581.599854"/>
     <use xlink:href="#HelveticaNeue-6f" x="603.79985"/>
     <use xlink:href="#HelveticaNeue-63" x="661.199844"/>
     <use xlink:href="#HelveticaNeue-6b" x="714.899841"/>
     <use xlink:href="#HelveticaNeue-20" x="766.799835"/>
     <use xlink:href="#HelveticaNeue-65" x="794.599823"/>
     <use xlink:href="#HelveticaNeue-61" x="848.29982"/>
     <use xlink:href="#HelveticaNeue-63" x="901.999817"/>
     <use xlink:href="#HelveticaNeue-68" x="955.699814"/>
     <use xlink:href="#HelveticaNeue-29" x="1011.299805"/>
    </g>
   </g>
  </g>
  <g id="axes_4">
   <g id="patch_129">
    <path d="M 465.909585 134.771597
L 474.812779 134.771597
L 474.812779 125.868403
L 465.909585 125.868403
z
" clip-path="url(#p07a24eb271)" style="fill: #17becf; stroke: #ffffff; stroke-linejoin: miter"/>
   </g>
   <g id="patch_130">
    <path d="M 474.812779 134.771597
L 483.715974 134.771597
L 483.715974 125.868403
L 474.812779 125.868403
z
" clip-path="url(#p07a24eb271)" style="fill: #bcbd22; stroke: #ffffff; stroke-linejoin: miter"/>
   </g>
   <g id="patch_131">
    <path d="M 483.715974 134.771597
L 492.619169 134.771597
L 492.619169 125.868403
L 483.715974 125.868403
z
" clip-path="url(#p07a24eb271)" style="fill: #7f7f7f; stroke: #ffffff; stroke-linejoin: miter"/>
   </g>
   <g id="patch_132">
    <path d="M 492.619169 134.771597
L 501.522364 134.771597
L 501.522364 125.868403
L 492.619169 125.868403
z
" clip-path="url(#p07a24eb271)" style="fill: #e377c2; stroke: #ffffff; stroke-linejoin: miter"/>
   </g>
   <g id="patch_133">
    <path d="M 501.522364 134.771597
L 510.425559 134.771597
L 510.425559 125.868403
L 501.522364 125.868403
z
" clip-path="url(#p07a24eb271)" style="fill: #8c564b; stroke: #ffffff; stroke-linejoin: miter"/>
   </g>
   <g id="patch_134">
    <path d="M 510.425559 134.771597
L 519.328754 134.771597
L 519.328754 125.868403
L 510.425559 125.868403
z
" clip-path="url(#p07a24eb271)" style="fill: #9467bd; stroke: #ffffff; stroke-linejoin: miter"/>
   </g>
   <g id="patch_135">
    <path d="M 519.328754 134.771597
L 528.231948 134.771597
L 528.231948 125.868403
L 519.328754 125.868403
z
" clip-path="url(#p07a24eb271)" style="fill: #d62728; stroke: #ffffff; stroke-linejoin: miter"/>
   </g>
   <g id="text_4">
    <!--    combine -->
    <g transform="translate(489.37601 40.049594) scale(0.08 -0.08)">
     <defs>
      <path id="HelveticaNeue-6d" d="M 410 3309
L 410 0
L 954 0
L 954 2061
Q 954 2157 1002 2301
Q 1050 2445 1155 2579
Q 1261 2714 1430 2810
Q 1600 2906 1837 2906
Q 2022 2906 2140 2851
Q 2259 2797 2329 2697
Q 2400 2598 2429 2464
Q 2458 2330 2458 2170
L 2458 0
L 3002 0
L 3002 2061
Q 3002 2445 3232 2675
Q 3462 2906 3866 2906
Q 4064 2906 4189 2848
Q 4314 2790 4384 2691
Q 4454 2592 4480 2457
Q 4506 2323 4506 2170
L 4506 0
L 5050 0
L 5050 2426
Q 5050 2682 4970 2864
Q 4890 3046 4746 3161
Q 4602 3277 4400 3331
Q 4198 3386 3949 3386
Q 3622 3386 3350 3238
Q 3078 3091 2912 2822
Q 2810 3130 2560 3258
Q 2310 3386 2003 3386
Q 1306 3386 934 2822
L 922 2822
L 922 3309
L 410 3309
z
" transform="scale(0.015625)"/>
     </defs>
     <use xlink:href="#HelveticaNeue-20"/>
     <use xlink:href="#HelveticaNeue-20" x="27.799988"/>
     <use xlink:href="#HelveticaNeue-20" x="55.599976"/>
     <use xlink:href="#HelveticaNeue-63" x="83.399963"/>
     <use xlink:href="#HelveticaNeue-6f" x="137.09996"/>
     <use xlink:href="#HelveticaNeue-6d" x="194.499954"/>
     <use xlink:href="#HelveticaNeue-62" x="279.799942"/>
     <use xlink:href="#HelveticaNeue-69" x="339.09993"/>
     <use xlink:href="#HelveticaNeue-6e" x="361.299927"/>
     <use xlink:href="#HelveticaNeue-65" x="416.899918"/>
    </g>
    <!-- (1 array, 7 blocks) -->
    <g transform="translate(476.786635 48.642844) scale(0.08 -0.08)">
     <use xlink:href="#HelveticaNeue-28"/>
     <use xlink:href="#HelveticaNeue-31" x="25.899994"/>
     <use xlink:href="#HelveticaNeue-20" x="81.499985"/>
     <use xlink:href="#HelveticaNeue-61" x="109.299973"/>
     <use xlink:href="#HelveticaNeue-72" x="162.999969"/>
     <use xlink:href="#HelveticaNeue-72" x="196.299957"/>
     <use xlink:href="#HelveticaNeue-61" x="229.599945"/>
     <use xlink:href="#HelveticaNeue-79" x="283.299942"/>
     <use xlink:href="#HelveticaNeue-2c" x="325.924927"/>
     <use xlink:href="#HelveticaNeue-20" x="353.724915"/>
     <use xlink:href="#HelveticaNeue-37" x="381.524902"/>
     <use xlink:href="#HelveticaNeue-20" x="437.124893"/>
     <use xlink:href="#HelveticaNeue-62" x="464.924881"/>
     <use xlink:href="#HelveticaNeue-6c" x="524.224869"/>
     <use xlink:href="#HelveticaNeue-6f" x="546.424866"/>
     <use xlink:href="#HelveticaNeue-63" x="603.82486"/>
     <use xlink:href="#HelveticaNeue-6b" x="657.524857"/>
     <use xlink:href="#HelveticaNeue-73" x="709.42485"/>
     <use xlink:href="#HelveticaNeue-29" x="759.424835"/>
    </g>
   </g>
  </g>
  <g id="text_5">
   <!-- Xarray's split-apply-combine -->
   <g transform="translate(191.05851 16.351875) scale(0.12 -0.12)">
    <defs>
     <path id="Menlo-Regular-58" d="M 269 4666
L 947 4666
L 1972 2906
L 3016 4666
L 3694 4666
L 2297 2472
L 3794 0
L 3116 0
L 1972 2009
L 738 0
L 56 0
L 1619 2472
L 269 4666
z
" transform="scale(0.015625)"/>
     <path id="Menlo-Regular-61" d="M 2194 1759
L 2003 1759
Q 1500 1759 1245 1582
Q 991 1406 991 1056
Q 991 741 1181 566
Q 1372 391 1709 391
Q 2184 391 2456 720
Q 2728 1050 2731 1631
L 2731 1759
L 2194 1759
z
M 3309 1997
L 3309 0
L 2731 0
L 2731 519
Q 2547 206 2267 57
Q 1988 -91 1588 -91
Q 1053 -91 734 211
Q 416 513 416 1019
Q 416 1603 808 1906
Q 1200 2209 1959 2209
L 2731 2209
L 2731 2300
Q 2728 2719 2518 2908
Q 2309 3097 1850 3097
Q 1556 3097 1256 3012
Q 956 2928 672 2766
L 672 3341
Q 991 3463 1283 3523
Q 1575 3584 1850 3584
Q 2284 3584 2592 3456
Q 2900 3328 3091 3072
Q 3209 2916 3259 2686
Q 3309 2456 3309 1997
z
" transform="scale(0.015625)"/>
     <path id="Menlo-Regular-72" d="M 3609 2778
Q 3425 2922 3234 2987
Q 3044 3053 2816 3053
Q 2278 3053 1993 2715
Q 1709 2378 1709 1741
L 1709 0
L 1131 0
L 1131 3500
L 1709 3500
L 1709 2816
Q 1853 3188 2151 3386
Q 2450 3584 2859 3584
Q 3072 3584 3256 3531
Q 3441 3478 3609 3366
L 3609 2778
z
" transform="scale(0.015625)"/>
     <path id="Menlo-Regular-79" d="M 2681 1125
Q 2538 759 2316 163
Q 2006 -663 1900 -844
Q 1756 -1088 1540 -1209
Q 1325 -1331 1038 -1331
L 575 -1331
L 575 -850
L 916 -850
Q 1169 -850 1312 -703
Q 1456 -556 1678 56
L 325 3500
L 934 3500
L 1972 763
L 2994 3500
L 3603 3500
L 2681 1125
z
" transform="scale(0.015625)"/>
     <path id="Menlo-Regular-27" d="M 2319 4869
L 2319 2922
L 1619 2922
L 1619 4869
L 2319 4869
z
" transform="scale(0.015625)"/>
     <path id="Menlo-Regular-73" d="M 3041 3378
L 3041 2816
Q 2794 2959 2544 3031
Q 2294 3103 2034 3103
Q 1644 3103 1451 2976
Q 1259 2850 1259 2591
Q 1259 2356 1403 2240
Q 1547 2125 2119 2016
L 2350 1972
Q 2778 1891 2998 1647
Q 3219 1403 3219 1013
Q 3219 494 2850 201
Q 2481 -91 1825 -91
Q 1566 -91 1281 -36
Q 997 19 666 128
L 666 722
Q 988 556 1281 473
Q 1575 391 1838 391
Q 2219 391 2428 545
Q 2638 700 2638 978
Q 2638 1378 1872 1531
L 1847 1538
L 1631 1581
Q 1134 1678 906 1908
Q 678 2138 678 2534
Q 678 3038 1018 3311
Q 1359 3584 1991 3584
Q 2272 3584 2531 3532
Q 2791 3481 3041 3378
z
" transform="scale(0.015625)"/>
     <path id="Menlo-Regular-20" transform="scale(0.015625)"/>
     <path id="Menlo-Regular-70" d="M 1172 441
L 1172 -1331
L 594 -1331
L 594 3500
L 1172 3500
L 1172 3053
Q 1316 3313 1555 3448
Q 1794 3584 2106 3584
Q 2741 3584 3102 3093
Q 3463 2603 3463 1734
Q 3463 881 3100 395
Q 2738 -91 2106 -91
Q 1788 -91 1548 45
Q 1309 181 1172 441
z
M 2859 1747
Q 2859 2416 2648 2756
Q 2438 3097 2022 3097
Q 1603 3097 1387 2755
Q 1172 2413 1172 1747
Q 1172 1084 1387 740
Q 1603 397 2022 397
Q 2438 397 2648 737
Q 2859 1078 2859 1747
z
" transform="scale(0.015625)"/>
     <path id="Menlo-Regular-6c" d="M 2247 1266
Q 2247 878 2389 681
Q 2531 484 2809 484
L 3481 484
L 3481 0
L 2753 0
Q 2238 0 1955 329
Q 1672 659 1672 1266
L 1672 4431
L 750 4431
L 750 4881
L 2247 4881
L 2247 1266
z
" transform="scale(0.015625)"/>
     <path id="Menlo-Regular-69" d="M 988 3488
L 2459 3488
L 2459 447
L 3600 447
L 3600 0
L 744 0
L 744 447
L 1884 447
L 1884 3041
L 988 3041
L 988 3488
z
M 1884 4847
L 2459 4847
L 2459 4122
L 1884 4122
L 1884 4847
z
" transform="scale(0.015625)"/>
     <path id="Menlo-Regular-74" d="M 1919 4494
L 1919 3500
L 3225 3500
L 3225 3053
L 1919 3053
L 1919 1153
Q 1919 766 2066 612
Q 2213 459 2578 459
L 3225 459
L 3225 0
L 2522 0
Q 1875 0 1609 259
Q 1344 519 1344 1153
L 1344 3053
L 409 3053
L 409 3500
L 1344 3500
L 1344 4494
L 1919 4494
z
" transform="scale(0.015625)"/>
     <path id="Menlo-Regular-2d" d="M 319 2263
L 3631 2263
L 3631 1734
L 319 1734
L 319 2263
z
" transform="scale(0.015625)"/>
     <path id="Menlo-Regular-63" d="M 3316 178
Q 3084 44 2839 -23
Q 2594 -91 2338 -91
Q 1525 -91 1067 396
Q 609 884 609 1747
Q 609 2609 1067 3096
Q 1525 3584 2338 3584
Q 2591 3584 2831 3518
Q 3072 3453 3316 3316
L 3316 2713
Q 3088 2916 2858 3006
Q 2628 3097 2338 3097
Q 1797 3097 1506 2747
Q 1216 2397 1216 1747
Q 1216 1100 1508 748
Q 1800 397 2338 397
Q 2638 397 2875 489
Q 3113 581 3316 775
L 3316 178
z
" transform="scale(0.015625)"/>
     <path id="Menlo-Regular-6f" d="M 1925 3097
Q 1488 3097 1263 2756
Q 1038 2416 1038 1747
Q 1038 1081 1263 739
Q 1488 397 1925 397
Q 2366 397 2591 739
Q 2816 1081 2816 1747
Q 2816 2416 2591 2756
Q 2366 3097 1925 3097
z
M 1925 3584
Q 2653 3584 3039 3112
Q 3425 2641 3425 1747
Q 3425 850 3040 379
Q 2656 -91 1925 -91
Q 1197 -91 812 379
Q 428 850 428 1747
Q 428 2641 812 3112
Q 1197 3584 1925 3584
z
" transform="scale(0.015625)"/>
     <path id="Menlo-Regular-6d" d="M 2113 3144
Q 2219 3369 2383 3476
Q 2547 3584 2778 3584
Q 3200 3584 3373 3257
Q 3547 2931 3547 2028
L 3547 0
L 3022 0
L 3022 2003
Q 3022 2744 2939 2923
Q 2856 3103 2638 3103
Q 2388 3103 2295 2911
Q 2203 2719 2203 2003
L 2203 0
L 1678 0
L 1678 2003
Q 1678 2753 1589 2928
Q 1500 3103 1269 3103
Q 1041 3103 952 2911
Q 863 2719 863 2003
L 863 0
L 341 0
L 341 3500
L 863 3500
L 863 3200
Q 966 3388 1120 3486
Q 1275 3584 1472 3584
Q 1709 3584 1867 3475
Q 2025 3366 2113 3144
z
" transform="scale(0.015625)"/>
     <path id="Menlo-Regular-62" d="M 2869 1747
Q 2869 2416 2656 2756
Q 2444 3097 2028 3097
Q 1609 3097 1393 2755
Q 1178 2413 1178 1747
Q 1178 1084 1393 740
Q 1609 397 2028 397
Q 2444 397 2656 737
Q 2869 1078 2869 1747
z
M 1178 3053
Q 1316 3309 1558 3446
Q 1800 3584 2119 3584
Q 2750 3584 3112 3098
Q 3475 2613 3475 1759
Q 3475 894 3111 401
Q 2747 -91 2113 -91
Q 1800 -91 1561 45
Q 1322 181 1178 441
L 1178 0
L 603 0
L 603 4863
L 1178 4863
L 1178 3053
z
" transform="scale(0.015625)"/>
     <path id="Menlo-Regular-6e" d="M 3284 2169
L 3284 0
L 2706 0
L 2706 2169
Q 2706 2641 2540 2862
Q 2375 3084 2022 3084
Q 1619 3084 1401 2798
Q 1184 2513 1184 1978
L 1184 0
L 609 0
L 609 3500
L 1184 3500
L 1184 2975
Q 1338 3275 1600 3429
Q 1863 3584 2222 3584
Q 2756 3584 3020 3232
Q 3284 2881 3284 2169
z
" transform="scale(0.015625)"/>
     <path id="Menlo-Regular-65" d="M 3500 2038
L 3500 1756
L 1009 1756
L 1009 1738
Q 984 1022 1282 709
Q 1581 397 2125 397
Q 2400 397 2700 484
Q 3000 572 3341 750
L 3341 178
Q 3013 44 2708 -23
Q 2403 -91 2119 -91
Q 1303 -91 843 398
Q 384 888 384 1747
Q 384 2584 834 3084
Q 1284 3584 2034 3584
Q 2703 3584 3089 3131
Q 3475 2678 3500 2038
z
M 2925 2206
Q 2888 2569 2661 2833
Q 2434 3097 2009 3097
Q 1594 3097 1325 2822
Q 1056 2547 1031 2203
L 2925 2206
z
" transform="scale(0.015625)"/>
    </defs>
    <use xlink:href="#Menlo-Regular-58"/>
    <use xlink:href="#Menlo-Regular-61" x="60.205078"/>
    <use xlink:href="#Menlo-Regular-72" x="120.410156"/>
    <use xlink:href="#Menlo-Regular-72" x="180.615234"/>
    <use xlink:href="#Menlo-Regular-61" x="240.820312"/>
    <use xlink:href="#Menlo-Regular-79" x="301.025391"/>
    <use xlink:href="#Menlo-Regular-27" x="361.230469"/>
    <use xlink:href="#Menlo-Regular-73" x="421.435547"/>
    <use xlink:href="#Menlo-Regular-20" x="481.640625"/>
    <use xlink:href="#Menlo-Regular-73" x="541.845703"/>
    <use xlink:href="#Menlo-Regular-70" x="602.050781"/>
    <use xlink:href="#Menlo-Regular-6c" x="662.255859"/>
    <use xlink:href="#Menlo-Regular-69" x="722.460938"/>
    <use xlink:href="#Menlo-Regular-74" x="782.666016"/>
    <use xlink:href="#Menlo-Regular-2d" x="842.871094"/>
    <use xlink:href="#Menlo-Regular-61" x="903.076172"/>
    <use xlink:href="#Menlo-Regular-70" x="963.28125"/>
    <use xlink:href="#Menlo-Regular-70" x="1023.486328"/>
    <use xlink:href="#Menlo-Regular-6c" x="1083.691406"/>
    <use xlink:href="#Menlo-Regular-79" x="1143.896484"/>
    <use xlink:href="#Menlo-Regular-2d" x="1204.101562"/>
    <use xlink:href="#Menlo-Regular-63" x="1264.306641"/>
    <use xlink:href="#Menlo-Regular-6f" x="1324.511719"/>
    <use xlink:href="#Menlo-Regular-6d" x="1384.716797"/>
    <use xlink:href="#Menlo-Regular-62" x="1444.921875"/>
    <use xlink:href="#Menlo-Regular-69" x="1505.126953"/>
    <use xlink:href="#Menlo-Regular-6e" x="1565.332031"/>
    <use xlink:href="#Menlo-Regular-65" x="1625.537109"/>
   </g>
  </g>
 </g>
 <defs>
  <clipPath id="pbcb344bb41">
   <rect x="7.2" y="54.642844" width="137.99952" height="151.354312"/>
  </clipPath>
  <clipPath id="p890f59296f">
   <rect x="151.2" y="54.642844" width="137.99952" height="151.354312"/>
  </clipPath>
  <clipPath id="p5f614ab6f0">
   <rect x="295.2" y="54.642844" width="137.99952" height="151.354312"/>
  </clipPath>
  <clipPath id="p07a24eb271">
   <rect x="439.2" y="54.642844" width="137.99952" height="151.354312"/>
  </clipPath>
 </defs>
</svg>
